<svg width="47" height="30" viewBox="0 0 47 30" fill="none" xmlns="http://www.w3.org/2000/svg">
<path d="M2 13.155C0.89543 13.155 0 14.0505 0 15.155C0 16.2596 0.89543 17.155 2 17.155V13.155ZM46.4142 16.5692C47.1953 15.7882 47.1953 14.5219 46.4142 13.7408L33.6863 1.01289C32.9052 0.231845 31.6389 0.231845 30.8579 1.01289C30.0768 1.79394 30.0768 3.06027 30.8579 3.84132L42.1716 15.155L30.8579 26.4687C30.0768 27.2498 30.0768 28.5161 30.8579 29.2972C31.6389 30.0782 32.9052 30.0782 33.6863 29.2972L46.4142 16.5692ZM2 17.155H45V13.155H2V17.155Z" fill="white"/>
</svg>
