<svg width="382" height="539" viewBox="0 0 382 539" fill="none" xmlns="http://www.w3.org/2000/svg">
<path d="M324.416 0.827844C341.867 19.2799 363.66 32.3874 382.513 49.3519C386.419 52.865 390.344 56.545 392.726 61.4345C395.109 66.324 395.653 72.6948 392.817 77.656C389.792 82.9575 383.882 85.306 379.31 89.1245C374.738 92.9431 371.511 100.904 375.674 104.661C380.598 109.106 387.744 102.154 394.09 99.6456C403.183 96.0438 412.438 102.393 418.744 109.616C425.05 116.839 430.704 125.638 439.593 128.63C431.066 136.201 422.538 143.773 414.027 151.366C422.765 158.097 435.125 145.15 446.001 146.525C454.213 147.57 459.018 156.316 462.687 164.163C470.393 180.648 478.281 198.054 477.416 217.054C476.552 236.033 463.543 256.665 446.008 258.048C456.088 255.481 466.438 262.415 470.126 272.48C473.814 282.544 471.558 294.748 466.008 304.43C460.459 314.111 451.931 321.517 442.878 327.316C435.218 332.229 422.97 339.736 424.343 350.777C425.024 356.265 428.088 360.845 431.061 365.212C440.591 379.157 450.1 393.122 459.629 407.068C458.321 405.496 454.459 408.924 452.971 408.625C450.886 408.227 450.817 407.312 449.078 406.19C445.015 403.578 441.39 397.038 438.308 393.141C431.587 384.691 425.185 375.95 419.076 366.957C414.993 360.948 411.572 353.261 406.108 348.72C400.992 344.469 394.564 344.135 388.417 342.472C382.306 340.832 375.986 338.164 372.789 332.395C369.591 326.627 371.53 317.096 377.74 314.953C377.151 311.375 372.844 310.26 369.536 311.278C366.228 312.296 363.264 314.66 359.919 315.489C352.919 317.211 346.622 311.956 341.772 306.687C328.578 292.349 317.715 275.525 309.733 257.078C317.441 255.316 325.13 253.554 332.838 251.793C335.121 251.271 337.692 250.56 338.997 248.403C341.905 243.654 335.845 238.827 330.767 238.493C325.689 238.159 319.187 238.318 317.433 233.239C320.068 226.505 327.936 224.671 334.416 222.834C340.899 220.976 348.603 215.674 347.42 208.725C346.799 205.083 343.749 202.596 340.503 201.526C334.23 199.462 327.299 201.581 320.647 202.745C313.995 203.909 306.339 203.664 302.204 198.294C298.981 194.119 298.82 188.062 298.8 182.448C298.745 161.134 298.69 139.82 298.635 118.506C298.613 108.481 300.028 95.9769 308.717 91.8945C312.993 89.8801 317.766 90.7337 322.299 89.8122C326.833 88.8906 331.794 84.4748 330.604 79.8038C328.977 73.4283 319.534 75.7452 314.923 71.5673C311.296 68.2786 311.742 62.0724 312.594 56.8232C315.667 37.9803 319.944 18.5697 327.78 1.01463" fill="#FDDE97"/>
<path d="M185.981 198.738C210.398 203.783 236.057 201.982 260.991 205.01C266.155 205.637 271.418 206.388 275.905 209.009C280.391 211.63 283.971 216.511 283.874 222.18C283.775 228.236 279.687 233.536 277.499 239.268C275.311 245 276.326 253.339 281.838 254.016C288.356 254.819 291.299 245.057 295.695 239.377C301.989 231.232 313.267 231.105 322.36 233.38C331.453 235.656 340.735 239.589 350.056 236.935C346.193 247.993 342.329 259.051 338.49 270.118C349.496 270.599 354.137 252.963 364.429 247.853C372.205 243.999 380.71 248.376 387.773 252.672C402.609 261.695 418.055 271.365 426.529 287.35C434.995 303.316 433.518 327.589 418.674 338.762C426.345 330.894 438.876 330.617 447.034 336.709C455.192 342.801 459.131 354.042 458.929 365.114C458.727 376.185 454.782 387.109 449.592 397.023C445.202 405.416 438.016 418.553 444.6 426.766C447.871 430.851 452.81 432.829 457.565 434.685C472.78 440.594 487.986 446.531 503.201 452.439C501.279 451.907 499.528 456.914 498.066 457.523C496.027 458.394 495.521 457.687 493.437 457.768C488.572 457.967 482.183 454.712 477.56 453.301C467.504 450.263 457.587 446.806 447.808 442.975C441.273 440.415 434.507 436.108 427.463 435.537C420.869 435.003 415.018 438.413 408.77 440.579C402.564 442.743 395.674 444.189 390.04 441.319C384.405 438.448 381.485 429.568 385.938 424.262C383.677 421.684 379.324 423.242 376.891 425.967C374.459 428.692 372.986 432.318 370.43 434.91C365.073 440.324 356.945 439.648 350.09 438.131C331.441 434.002 313.647 426.511 297.612 416.045C303.576 410.193 309.523 404.351 315.488 398.5C317.254 396.766 319.183 394.714 319.29 392.208C319.552 386.671 311.842 386.208 307.187 388.845C302.531 391.482 296.854 395.336 292.833 392.2C291.889 385.202 297.959 379.199 302.8 373.988C307.633 368.76 311.872 360.024 307.445 355.037C305.125 352.423 301.217 352.144 297.823 353.131C291.268 355.042 286.167 360.741 280.846 365.501C275.525 370.261 268.632 374.447 262.361 372.438C257.478 370.881 254.39 366.036 251.642 361.471C241.228 344.127 230.814 326.784 220.399 309.44C215.504 301.28 210.675 290.276 216.379 281.97C219.182 277.878 223.821 275.84 227.385 272.491C230.948 269.143 233.191 262.7 229.866 259.574C225.326 255.309 218.096 262.608 211.984 261.844C207.176 261.241 204.552 255.926 202.753 251.159C196.308 234.037 190.653 215.763 189.049 196.963" fill="#59C6D7"/>
<path d="M12.7717 411.733C34.5147 422.254 58.3472 426.542 80.8444 435.262C85.5044 437.068 90.2375 439.015 93.9984 442.563C97.7594 446.111 100.374 451.602 99.5018 456.983C98.5732 462.732 94.0835 466.828 91.2795 471.78C88.4755 476.732 88.2557 484.918 93.2275 486.853C99.1077 489.144 103.162 480.527 107.988 476.141C114.899 469.85 125.282 472.368 133.325 476.664C141.367 480.961 149.355 486.882 158.288 486.534C153.208 496.17 148.128 505.807 143.07 515.457C153.118 518.491 159.822 502.766 169.989 500.303C177.668 498.45 184.879 504.612 190.777 510.359C203.165 522.431 216.024 535.263 221.602 552.483C227.175 569.683 222.461 592.474 207.273 599.651C215.411 593.946 226.967 596.614 233.622 604.33C240.278 612.046 242.343 623.683 240.626 634.189C238.909 644.695 233.773 654.184 227.632 662.42C222.437 669.393 214.016 680.234 218.931 689.604C221.373 694.263 225.638 697.303 229.752 700.185C242.919 709.378 256.073 718.595 269.24 727.787C267.548 726.83 265.246 731.193 263.818 731.432C261.824 731.784 261.456 730.992 259.53 730.582C255.03 729.633 249.609 725.036 245.555 722.609C236.732 717.36 228.096 711.744 219.639 705.804C213.986 701.835 208.363 696.147 201.968 693.954C195.981 691.902 190.132 693.784 184.09 694.386C178.088 694.997 171.555 694.763 166.774 690.709C161.992 686.654 160.536 677.506 165.362 673.491C163.64 670.503 159.424 670.97 156.812 672.999C154.199 675.027 152.344 678.139 149.636 680.011C143.964 683.919 136.587 681.372 130.497 678.322C113.928 670.024 98.6096 658.719 85.3198 644.991C91.6106 640.809 97.8841 636.632 104.175 632.449C106.038 631.21 108.095 629.705 108.539 627.342C109.546 622.125 102.525 619.88 97.8807 621.304C93.2368 622.728 87.4863 625.074 84.2241 621.144C84.3244 614.252 90.7338 609.95 95.9037 606.116C101.069 602.264 106.172 594.927 102.794 589.138C101.023 586.104 97.4689 584.923 94.2138 585.071C87.9249 585.358 82.448 589.597 76.8996 592.889C71.3511 596.181 64.437 598.559 58.9508 595.177C54.6786 592.55 52.5106 587.208 50.6164 582.214C43.443 563.245 36.2696 544.277 29.0962 525.308C25.7257 516.384 22.8088 504.765 29.1999 498.182C32.3424 494.938 36.8876 494.08 40.6259 491.722C44.3642 489.364 47.3166 483.748 44.6931 479.99C41.1096 474.862 33.4556 480.128 27.9438 477.97C23.6079 476.27 21.9311 470.59 20.9371 465.625C17.3816 447.796 14.7111 429.054 15.8366 410.759" fill="#FDDE97"/>
<path d="M398.279 693.44C387.752 681.04 381.276 660.748 373.928 646.46C378.002 654.378 378.379 672.362 380.146 681.669C382.218 692.549 381.535 702.616 377.414 713.207C367.923 737.693 344.915 754.891 320.965 755.389C318.209 755.442 315.289 755.232 313.052 753.475C308.625 749.962 309.19 742.15 312.204 737.09C315.219 732.03 319.905 728.544 323.296 723.825C326.687 719.106 328.477 711.844 325.015 707.177C319.811 705.631 314.418 709.301 310.98 713.915C307.541 718.529 305.351 724.165 301.866 728.753C295.696 736.907 285.499 741.023 276.055 739.187C266.612 737.352 258.299 729.618 254.954 719.604C280.93 714.465 304.291 695.013 316.019 668.718C318.351 663.475 319.811 656.082 315.572 652.674C311.262 649.213 305.398 653.224 301.348 657.078C290.515 667.407 279.705 677.763 268.872 688.092C259.311 697.215 248.101 706.941 235.597 705.185C227.331 704.005 220.383 697.949 214.143 691.788C197.775 675.639 183.198 657.235 170.834 637.127C206.536 664.707 258.864 661.666 291.81 630.154C296.19 625.985 300.571 619.956 298.922 613.821C297.109 607.162 289.031 605.143 283.167 607.555C277.303 609.967 272.876 615.289 267.813 619.379C254.224 630.364 235.761 632.277 219.653 627.008C203.545 621.738 189.627 609.915 178.559 595.863C161.014 573.631 149.663 542.513 157.552 514.252C179.077 551.138 221.867 570.984 260.536 561.991C267.954 560.261 276.715 555.28 276.196 546.865C275.702 538.947 267.389 535.146 260.489 533.127C237.481 526.416 213.695 519.259 195.303 502.454C176.91 485.65 165.512 456.287 175.003 432.011C187.908 455.16 206.206 474.534 227.637 487.721C237.433 493.75 248.879 498.6 259.688 495.271C270.497 491.941 278.646 477.024 272.688 466.459C269.862 461.478 264.798 458.699 259.806 456.759C249.303 452.696 238.093 451.306 227.59 447.243C217.086 443.179 206.795 435.603 203.098 423.936C197.658 406.634 208.396 388.675 218.452 374.152C228.508 359.628 239.058 341.434 233.218 324.288C255.849 316.423 282.437 325.599 297.085 346.362C311.733 367.126 313.429 398.061 301.183 420.659C296.92 428.498 291.08 435.655 289.455 444.647C287.83 453.639 293.223 465.07 301.418 464.152C305.186 463.733 308.342 460.875 311.074 457.939C339.546 427.397 346.328 374.781 326.711 336.557C348.683 349.849 360.74 378.163 362.695 405.926C364.65 433.689 358.032 461.242 350.638 487.852C349.389 492.335 348.094 497.027 348.824 501.668C349.554 506.308 353.016 510.765 357.232 510.529C360.364 510.345 362.907 507.776 365.097 505.286C394.958 471.126 410.454 422.023 406.333 374.597C416.977 387.784 427.598 401.259 434.946 416.989C442.317 432.719 446.203 451.096 442.623 468.347C438.455 488.481 424.984 504.263 413.092 520.124C401.199 535.959 389.825 554.782 391.238 575.362C429.223 537.794 462.617 494.511 490.241 447.059C504.418 475.451 502.204 511.499 489.676 540.835C477.147 570.171 455.529 593.582 432.049 612.851C455.246 612.851 477.995 598.406 489.817 576.201C494.951 589.545 497.094 604.803 493.326 618.697C489.558 632.592 479.102 644.704 466.22 646.88C459.815 647.955 451.902 647.378 448.44 653.46C444.696 660.067 450.395 669.216 457.271 670.789C464.148 672.362 471.048 668.954 477.406 665.651C481.174 685.706 466.55 706.26 448.676 711.057C432.473 715.383 414.858 708.829 402.118 697.451C400.752 696.219 399.456 694.882 398.208 693.414L398.279 693.44Z" fill="#24AF79"/>
<path d="M426.562 571.566C426.166 571.53 332.404 576.065 291.817 593.631C302.815 574.673 321.964 560.994 343.089 551.758C364.215 542.521 387.455 537.349 410.507 532.234C367.769 511.426 319.357 508.632 272.796 506.283C311.015 479.608 363.116 469.571 413.106 479.27C374.384 446.559 335.662 413.848 296.939 381.137C344.008 408.403 393.355 432.011 444.17 451.517C431.569 398.271 379.661 356.411 362.021 303.972C385.54 340.805 410.344 378.976 448.171 403.999C454.334 408.076 462.803 411.804 468.327 407.97C472.288 405.234 472.667 399.855 472.344 395.068C470.659 370.075 457.739 348.355 448.987 324.898C446.221 317.479 441.739 301.764 442.474 282.388C443.714 249.753 460.059 226.228 461.948 226.922C463.086 227.34 459.092 236.576 460.318 252.666C460.72 258.086 461.647 263.135 461.992 265.027C463.431 272.9 465.238 278.772 466.325 282.273C473.978 306.923 477.839 319.369 480.438 325.038C484.321 333.545 487.583 338.692 493.88 348.974C501.779 361.859 513.256 380.791 527.49 405.251L426.562 571.566V571.566Z" fill="#AAD6A1"/>
</svg>
