<svg width="658" height="434" viewBox="0 0 658 434" fill="none" xmlns="http://www.w3.org/2000/svg">
<path d="M251.616 517.001C243.524 527.547 225.944 538.476 182.861 535.372L187.407 541.285C203.628 537.906 226.05 532.484 252.07 523.851C281.561 514.059 380.96 478.47 453.079 410.106C569.281 299.936 578.984 138.525 580.331 98.6467C552.877 109.061 538.741 123.354 531.395 137.387C526.306 147.116 526.519 152.801 521.434 162.659C511.38 182.087 492.885 194.004 473.808 201.566L487.277 240.542C473.915 228.994 458.885 217.751 453.889 221.542C451.591 223.288 453.35 226.777 452.35 233.286C450.143 247.777 437.401 257.624 426.821 265.808C411.101 277.946 405.212 276.363 403.357 282.652C398.769 298.078 430.508 320.413 430.244 320.733C430.1 320.896 421.851 313.885 395.628 290.935L384.773 302.789C384.773 302.789 399.079 315.288 397.603 316.43C396.126 317.573 380.17 307.502 380.17 307.502L376.906 332.329L390.069 343.351L380.414 346.056L370.037 334.058L338.677 360.495L349.221 371.183L335.192 366.691L324.337 378.544L340.961 383.377L324.25 389.151L319.307 396.459C324.979 399.129 332.054 402.828 331.501 404.719C330.816 407.055 319.097 403.694 308.792 405.718C299.282 407.585 286.326 414.912 273.608 440.945C276.8 442.99 281.698 446.019 287.871 449.406C295.409 453.543 299.764 455.451 299.496 456.317C298.991 457.964 283.748 449.416 273.192 454.195C256.433 461.797 267.948 495.641 251.58 516.957L251.616 517.001Z" fill="#DBEAD9"/>
<path d="M351.904 199.924C337.967 221.155 330.231 245.382 318.064 267.635C315.545 272.245 312.868 276.912 308.659 280.356C304.449 283.801 298.375 285.798 292.894 284.181C287.038 282.457 283.392 277.247 278.623 273.678C273.854 270.108 265.364 268.801 262.667 273.718C259.475 279.533 267.887 284.886 271.789 290.484C277.388 298.502 273.341 308.971 267.764 316.771C262.188 324.571 254.928 332.1 254.064 341.439C244.731 334.884 235.399 328.33 226.05 321.796C221.512 331.849 236.958 340.895 238.125 351.796C239 360.028 231.595 366.718 224.804 372.095C210.537 383.391 195.416 395.076 176.727 398.609C158.059 402.14 134.986 394.233 129.601 377.487C134.421 386.705 130.057 398.374 121.113 404.281C112.168 410.187 99.7722 410.803 89.0731 407.632C78.374 404.461 69.2031 397.868 61.4745 390.395C54.9303 384.072 44.8035 373.882 34.3763 377.761C29.1918 379.687 25.4411 383.724 21.8765 387.623C10.5004 400.108 -0.899362 412.577 -12.2754 425.063C-11.0471 423.428 -15.2719 420.459 -15.3238 418.942C-15.4169 416.821 -14.5419 416.543 -13.8504 414.593C-12.2448 410.038 -6.71534 405.004 -3.63287 401.107C3.0422 392.621 10.0737 384.377 17.4173 376.362C22.3246 371.005 29.0174 365.906 32.178 359.543C35.1359 353.585 33.9808 347.253 34.1836 340.888C34.3723 334.563 35.513 327.799 40.3898 323.359C45.2665 318.919 54.988 318.611 58.5042 324.16C61.8501 322.763 61.943 318.315 60.1907 315.33C58.4383 312.345 55.4546 310.005 53.8775 306.942C50.5896 300.527 54.2532 293.189 58.2641 287.255C69.1774 271.113 83.0471 256.668 99.1608 244.652C102.65 251.747 106.136 258.824 109.625 265.919C110.659 268.021 111.943 270.358 114.342 271.132C119.633 272.867 122.934 265.859 122.09 260.84C121.245 255.822 119.594 249.531 124.132 246.655C131.292 247.668 134.889 254.902 138.169 260.785C141.469 266.666 148.404 272.941 154.893 270.19C158.294 268.747 160.012 265.206 160.305 261.801C160.87 255.221 157.211 248.965 154.546 242.759C151.882 236.554 150.356 229.048 154.63 223.787C157.951 219.689 163.808 218.138 169.266 216.825C189.994 211.863 210.723 206.901 231.451 201.938C241.201 199.608 253.696 198.105 259.669 205.621C262.614 209.317 262.883 214.158 264.824 218.358C266.765 222.557 272.205 226.369 276.476 224.135C282.305 221.083 277.876 212.427 280.879 206.978C283.244 202.692 289.386 201.696 294.691 201.316C313.735 199.967 333.609 199.659 352.497 203.241" fill="#FDDE97"/>
<path d="M100.714 9.11069C102.654 34.7806 110.629 59.0952 114.385 84.513C115.164 89.7775 115.863 95.1846 114.804 100.537C113.745 105.888 110.568 111.205 105.806 113.237C100.72 115.41 95.2599 113.417 89.9177 113.435C84.5755 113.453 77.8628 117.568 78.6865 123.19C79.6587 129.84 88.559 129.045 94.4145 131.196C102.809 134.272 105.759 145.208 106.15 154.917C106.54 164.625 105.594 175.14 110.162 183.223C99.9464 183.606 89.7308 183.989 79.5147 184.4C81.8875 195.299 97.7966 193.206 104.662 201.314C109.843 207.442 108.33 217.366 106.521 225.855C102.721 243.687 98.5338 262.355 87.312 276.601C76.1033 290.833 55.4457 298.495 42.365 288.228C50.8746 292.749 54.266 304.849 51.2318 315.078C48.1975 325.307 39.7963 333.358 30.4926 337.312C21.1889 341.267 11.0656 341.52 1.47156 340.183C-6.64947 339.055 -19.4406 336.982 -24.6445 346.474C-27.2332 351.191 -27.6409 356.742 -27.9933 362.069C-29.095 379.102 -30.2223 396.137 -31.324 413.17C-31.3639 411.099 -35.9898 411.271 -36.8672 410.076C-38.1087 408.416 -37.6457 407.658 -38.2391 405.659C-39.6321 400.995 -38.5227 393.554 -38.5095 388.522C-38.506 377.589 -38.1169 366.635 -37.381 355.676C-36.8901 348.351 -34.9965 340.147 -36.295 333.073C-37.5117 326.451 -41.837 322.031 -45.2223 316.758C-48.5956 311.526 -51.5411 305.358 -50.563 298.794C-49.5849 292.231 -42.8996 286.057 -37.3429 288.405C-35.758 285.235 -38.1579 281.581 -41.0487 280.233C-43.9395 278.886 -47.341 278.811 -50.1517 277.293C-56.0271 274.107 -57.5114 265.937 -57.9721 258.692C-59.2238 238.983 -57.45 218.844 -52.7464 199.304C-46.3521 202.919 -39.9705 206.52 -33.5762 210.134C-31.6821 211.205 -29.4805 212.313 -27.3595 211.478C-22.6656 209.657 -24.2228 201.976 -27.6006 198.43C-30.9785 194.884 -35.6307 190.801 -34.0241 185.709C-28.4132 182.166 -21.8657 185.827 -16.2909 188.588C-10.7029 191.334 -2.33291 192.186 0.71856 186.006C2.3176 182.766 1.56594 178.855 -0.114982 175.921C-3.36486 170.253 -9.41359 167.422 -14.7331 164.024C-20.0526 160.627 -25.2894 155.484 -25.192 148.623C-25.1219 143.284 -21.8508 138.46 -18.7287 134.073C-6.86032 117.427 5.00807 100.782 16.8765 84.1366C22.4615 76.31 30.4401 67.4808 38.8201 69.9215C42.9463 71.1177 45.8196 74.8708 49.5167 77.0858C53.2137 79.3008 59.1633 79.0697 60.9374 74.6597C63.3568 68.6385 55.434 64.3343 54.5314 58.0953C53.8233 53.1863 57.6032 48.6381 61.1338 45.0988C73.8174 32.4029 87.6635 20.0438 102.97 11.4327" fill="#AAD6A1"/>
<path d="M219.056 466.94C210.454 455.641 205.742 437.645 199.996 424.845C203.182 431.938 202.686 447.642 203.798 455.841C205.104 465.426 204.047 474.176 199.971 483.226C190.579 504.149 169.744 518.096 148.854 517.433C146.451 517.352 143.916 517.036 142.048 515.401C138.351 512.134 139.202 505.345 142.061 501.07C144.919 496.795 149.162 493.968 152.333 490.007C155.504 486.046 157.397 479.794 154.595 475.565C150.131 473.977 145.264 476.932 142.057 480.799C138.85 484.666 136.683 489.482 133.436 493.324C127.686 500.154 118.613 503.276 110.469 501.243C102.326 499.21 95.4376 492.083 92.9835 483.194C115.851 479.902 137.097 464.005 148.521 441.606C150.793 437.14 152.404 430.758 148.867 427.591C145.271 424.375 139.978 427.605 136.272 430.781C126.36 439.294 116.467 447.832 106.555 456.345C97.8064 463.865 87.5936 471.835 76.7791 469.73C69.6314 468.322 63.8564 462.721 58.7017 457.062C45.1825 442.225 33.3261 425.504 23.4766 407.398C53.3167 433.091 99.0473 432.836 129.198 406.859C133.205 403.424 137.298 398.365 136.143 392.938C134.869 387.047 127.924 384.916 122.704 386.751C117.485 388.586 113.383 393.025 108.784 396.361C96.4412 405.319 80.2673 406.143 66.4747 400.808C52.6821 395.474 41.0983 384.523 32.0994 371.759C17.8333 351.563 9.37119 323.899 17.5412 299.609C34.6026 332.77 70.9734 352.042 105.077 345.97C111.619 344.801 119.48 340.857 119.415 333.493C119.347 326.564 112.279 322.868 106.36 320.791C86.6214 313.882 66.2265 306.55 50.9728 291.049C35.7191 275.548 27.1353 249.414 36.5178 228.673C46.6997 249.457 61.7535 267.194 79.8199 279.679C88.0788 285.387 97.8281 290.142 107.399 287.733C116.969 285.324 124.753 272.686 120.046 263.197C117.813 258.723 113.529 256.067 109.268 254.146C100.303 250.12 90.6004 248.395 81.6358 244.369C72.6712 240.343 64.0523 233.263 61.3662 222.918C57.4203 207.576 67.6003 192.403 77.0278 180.196C86.4552 167.988 96.482 152.601 92.18 137.378C112.259 131.555 135.003 140.777 146.812 159.559C158.622 178.341 158.68 205.403 146.974 224.554C142.901 231.196 137.484 237.171 135.656 244.94C133.827 252.709 138.002 262.926 145.184 262.502C148.486 262.308 151.367 259.96 153.882 257.524C180.089 232.188 188.412 186.604 173.074 152.364C191.607 164.965 200.814 190.214 201.243 214.52C201.673 238.827 194.643 262.557 186.98 285.429C185.687 289.282 184.343 293.316 184.766 297.397C185.189 301.478 188.001 305.524 191.684 305.512C194.422 305.495 196.756 303.371 198.778 301.299C226.362 272.87 242.115 230.75 240.7 189.193C249.369 201.183 258.005 213.424 263.685 227.481C269.386 241.54 271.928 257.748 268.018 272.631C263.463 290.002 251.002 303.151 239.913 316.441C228.825 329.708 218.051 345.606 218.338 363.621C253.157 332.593 284.237 296.369 310.482 256.244C321.531 281.659 317.949 313.001 305.688 338.015C293.426 363.03 273.517 382.46 252.176 398.192C272.387 399.255 292.87 387.697 304.188 368.87C308.049 380.745 309.216 394.152 305.296 406.099C301.376 418.046 291.71 428.132 280.387 429.44C274.757 430.084 267.889 429.218 264.594 434.365C261.029 439.956 265.574 448.198 271.493 449.885C277.412 451.572 283.58 448.916 289.272 446.326C291.635 463.992 277.95 481.25 262.157 484.616C247.842 487.647 232.795 481.122 222.217 470.614C221.083 469.477 220.016 468.251 218.996 466.913L219.056 466.94Z" fill="#62C7D3"/>
<path d="M504.87 380.39C501.34 386.36 498.82 393.01 495.76 399.3C494.11 402.7 492.46 406.09 490.81 409.49C489.55 412.09 486.44 416.19 486.17 419.04C488.83 392.02 487.4 364.6 481.93 338C473.69 360.55 469.87 384.7 470.75 408.68C461.24 385.52 446.92 364.34 428.98 346.87C433.31 372.12 437.64 397.37 441.97 422.61C434.46 413.23 426.39 408.55 416.9 401.56C412.26 398.14 407.42 394.19 401.96 392.15C400.26 391.52 391.49 391.14 391 390.72C399.21 397.93 403.7 408.86 410.77 417.14C414.49 421.5 419.3 425.48 422.63 430.1C426.71 435.77 426.56 437.59 432.61 440.79C439.04 444.2 446.92 446.06 454.01 447.49C467.44 450.2 481.39 450.38 494.87 447.88C496.89 447.5 498.92 447.04 500.91 446.47C500.91 446.42 500.93 446.38 500.93 446.33C500.79 445.8 500.74 445.21 500.77 444.56C500.86 442.99 500.96 441.41 501.06 439.84C500.87 439.28 501.19 424.5 503.3 418.05C503.35 412.19 505.52 404.37 506.11 401.42C508.26 390.76 511.64 380.39 515.56 370.27C519.32 360.56 522.98 349.71 528.28 340.73C520.47 353.95 512.66 367.17 504.84 380.39H504.87Z" fill="#AAD6A1"/>
<path d="M-44.7297 442.913C-44.7669 442.406 -67.3786 326.562 -93.9512 281.66C-71.4774 289.055 -53.1413 308.427 -39.2103 331.767C-25.2793 355.107 -15.3205 382.46 -5.45745 409.597C8.84159 349.105 2.69097 287.565 -3.58859 228.492C32.3339 267.367 52.9849 329.213 52.0068 395.049C79.8698 335.583 107.733 276.118 135.596 216.652C115.169 284.735 99.1074 354.441 87.7357 424.606C142.629 390.936 177.839 311.89 230.911 272.184C195.739 314.003 159.369 357.882 139.608 413.643C136.387 422.728 133.979 434.582 139.147 440.209C142.841 444.247 148.698 442.914 153.786 440.901C180.352 430.391 201.272 406.918 224.85 388.078C232.307 382.122 248.364 371.23 269.346 365.638C304.685 356.221 333.083 368.774 332.694 371.373C332.459 372.938 321.769 371.042 304.692 377.985C298.938 380.31 293.682 383.167 291.712 384.235C283.515 388.683 277.541 392.918 273.98 395.455C248.912 413.319 236.254 422.336 230.648 427.494C222.231 435.215 217.312 441.028 207.442 452.367C195.076 466.585 176.882 487.314 153.263 513.353L-44.7297 442.913V442.913Z" fill="#24AF79"/>
</svg>
