<svg width="844" height="221" viewBox="0 0 844 221" fill="none" xmlns="http://www.w3.org/2000/svg">
<mask id="path-1-outside-1_1252_557" maskUnits="userSpaceOnUse" x="69.5" y="56.3093" width="712" height="129" fill="black">
<rect fill="white" x="69.5" y="56.3093" width="712" height="129"/>
<path d="M125.136 87.6384L108.144 153.556L115.468 153.776L131.801 87.6384H125.136ZM88.8076 175.456C84.7549 175.602 81.9473 174.235 80.3848 171.354C78.8223 168.327 78.4805 165.177 79.3594 161.906L98.5488 82.072C99.7207 77.4822 101.503 73.698 103.896 70.7195C106.288 67.5457 109.242 65.8855 112.758 65.739H149.672C154.555 66.1785 157.851 68.0583 159.56 71.3787C161.366 74.5037 161.586 78.7273 160.219 84.0496L144.398 146.452C143.959 148.161 143.812 149.797 143.959 151.359C144.252 152.97 145.424 153.776 147.475 153.776H154.579L148.793 175.456H138.393C137.27 175.602 136.244 175.383 135.316 174.797C134.389 174.211 134.096 172.844 134.438 170.695C133.803 172.404 132.851 173.698 131.581 174.577C130.312 175.309 128.7 175.602 126.747 175.456H88.8076ZM245.839 65.8123L224.379 153.41H233.607L255.507 65.8123H281.508L254.555 175.309H177.284C171.181 175.309 166.859 173.869 164.32 170.988C161.781 168.01 161.415 162.223 163.222 153.63L184.755 65.8123H210.463L189.516 153.41H198.744L219.105 65.8123H245.839ZM263.563 175.456L291.542 65.5925H344.643L338.417 87.5652H313.222L307.875 109.465H332.777L327.357 131.584H302.162L296.303 153.556H321.864L316.518 175.456H263.563ZM374.379 87.8582L368.373 109.611H375.844L381.117 87.8582H374.379ZM325.233 175.456L352.553 65.739H393.861C399.232 65.8367 403.188 66.9841 405.727 69.1814C408.607 71.4763 410.243 75.407 410.634 80.9734L400.6 118.034C400.014 120.378 398.988 122.428 397.523 124.186C396.254 125.602 394.838 126.823 393.275 127.848C391.713 128.825 390.224 129.679 388.808 130.412C387.343 130.851 386.122 131.291 385.146 131.73L392.47 175.456H365.81L360.756 140.885L352.479 175.456H325.233ZM398.695 175.456L426.747 65.9587H453.627L442.567 109.758H450.038L460.805 65.9587H487.685L460.365 175.456H433.705L444.252 131.73H437.733L426.308 175.456H398.695ZM514.784 109.538H521.449L526.869 87.6384H519.545L514.784 109.538ZM470.18 175.309L494.569 80.5339C496.034 75.7976 497.792 72.1111 499.843 69.4744C501.894 66.9353 506.044 65.6658 512.294 65.6658H541.518C545.277 65.6658 548.183 65.9343 550.233 66.4714C552.528 67.0574 554.188 68.0583 555.214 69.4744C556.19 71.1833 556.605 73.5759 556.459 76.6521C556.166 79.3865 555.36 83.0486 554.042 87.6384L532.143 175.529H504.457L515.956 131.73H508.412L497.572 175.529L470.18 175.309ZM545.912 162.052L566.566 78.8494C567.299 76.4568 568.056 74.4548 568.837 72.8435C569.374 71.1345 570.229 69.7917 571.4 68.8152C572.523 67.6433 574.159 66.9109 576.308 66.6179C578.261 66.1785 580.971 65.8855 584.438 65.739H612.489C619.374 65.739 624.086 67.2527 626.625 70.28C628.969 73.1609 629.335 77.824 627.724 84.2693L621.498 109.611H594.472L599.525 87.7117H592.274L575.429 153.849H582.68L588.612 131.73H615.785L607.729 162.272C606.508 167.253 604.896 170.744 602.895 172.746C600.746 174.65 597.206 175.529 592.274 175.383H560.194C556.532 175.529 553.725 175.529 551.771 175.383C549.281 175.09 547.548 174.504 546.571 173.625C545.546 172.648 545.033 171.281 545.033 169.523C544.936 167.668 545.229 165.177 545.912 162.052ZM614.394 175.309L641.127 66.1052H668.373L660.756 95.0359L677.528 66.1052H704.335L672.841 120.671L677.235 175.309H650.062L648.964 144.255L641.347 175.309H614.394ZM709.022 82.1453C710.146 76.8718 711.952 72.7458 714.442 69.7673C716.64 67.0818 720.741 65.7878 726.747 65.8855H758.461C762.367 65.7878 765.395 66.1541 767.543 66.9841C769.398 67.9607 770.668 69.2546 771.352 70.866C771.938 72.282 772.133 73.8445 771.938 75.5535C771.547 77.5554 771.156 79.3376 770.766 80.9001L766.664 98.5515H740.297L742.934 87.5652H733.559L728.432 109.538H763.954L751.869 160.295C750.6 165.568 748.891 169.426 746.742 171.867C744.203 174.162 740.077 175.309 734.364 175.309H703.163C698.524 175.309 694.936 173.722 692.396 170.549C690.102 167.717 689.345 163.932 690.126 159.196L694.447 142.497H720.521L717.738 153.41H727.333L732.46 131.584H696.938L709.022 82.1453Z"/>
</mask>
<path d="M125.136 87.6384L108.144 153.556L115.468 153.776L131.801 87.6384H125.136ZM88.8076 175.456C84.7549 175.602 81.9473 174.235 80.3848 171.354C78.8223 168.327 78.4805 165.177 79.3594 161.906L98.5488 82.072C99.7207 77.4822 101.503 73.698 103.896 70.7195C106.288 67.5457 109.242 65.8855 112.758 65.739H149.672C154.555 66.1785 157.851 68.0583 159.56 71.3787C161.366 74.5037 161.586 78.7273 160.219 84.0496L144.398 146.452C143.959 148.161 143.812 149.797 143.959 151.359C144.252 152.97 145.424 153.776 147.475 153.776H154.579L148.793 175.456H138.393C137.27 175.602 136.244 175.383 135.316 174.797C134.389 174.211 134.096 172.844 134.438 170.695C133.803 172.404 132.851 173.698 131.581 174.577C130.312 175.309 128.7 175.602 126.747 175.456H88.8076ZM245.839 65.8123L224.379 153.41H233.607L255.507 65.8123H281.508L254.555 175.309H177.284C171.181 175.309 166.859 173.869 164.32 170.988C161.781 168.01 161.415 162.223 163.222 153.63L184.755 65.8123H210.463L189.516 153.41H198.744L219.105 65.8123H245.839ZM263.563 175.456L291.542 65.5925H344.643L338.417 87.5652H313.222L307.875 109.465H332.777L327.357 131.584H302.162L296.303 153.556H321.864L316.518 175.456H263.563ZM374.379 87.8582L368.373 109.611H375.844L381.117 87.8582H374.379ZM325.233 175.456L352.553 65.739H393.861C399.232 65.8367 403.188 66.9841 405.727 69.1814C408.607 71.4763 410.243 75.407 410.634 80.9734L400.6 118.034C400.014 120.378 398.988 122.428 397.523 124.186C396.254 125.602 394.838 126.823 393.275 127.848C391.713 128.825 390.224 129.679 388.808 130.412C387.343 130.851 386.122 131.291 385.146 131.73L392.47 175.456H365.81L360.756 140.885L352.479 175.456H325.233ZM398.695 175.456L426.747 65.9587H453.627L442.567 109.758H450.038L460.805 65.9587H487.685L460.365 175.456H433.705L444.252 131.73H437.733L426.308 175.456H398.695ZM514.784 109.538H521.449L526.869 87.6384H519.545L514.784 109.538ZM470.18 175.309L494.569 80.5339C496.034 75.7976 497.792 72.1111 499.843 69.4744C501.894 66.9353 506.044 65.6658 512.294 65.6658H541.518C545.277 65.6658 548.183 65.9343 550.233 66.4714C552.528 67.0574 554.188 68.0583 555.214 69.4744C556.19 71.1833 556.605 73.5759 556.459 76.6521C556.166 79.3865 555.36 83.0486 554.042 87.6384L532.143 175.529H504.457L515.956 131.73H508.412L497.572 175.529L470.18 175.309ZM545.912 162.052L566.566 78.8494C567.299 76.4568 568.056 74.4548 568.837 72.8435C569.374 71.1345 570.229 69.7917 571.4 68.8152C572.523 67.6433 574.159 66.9109 576.308 66.6179C578.261 66.1785 580.971 65.8855 584.438 65.739H612.489C619.374 65.739 624.086 67.2527 626.625 70.28C628.969 73.1609 629.335 77.824 627.724 84.2693L621.498 109.611H594.472L599.525 87.7117H592.274L575.429 153.849H582.68L588.612 131.73H615.785L607.729 162.272C606.508 167.253 604.896 170.744 602.895 172.746C600.746 174.65 597.206 175.529 592.274 175.383H560.194C556.532 175.529 553.725 175.529 551.771 175.383C549.281 175.09 547.548 174.504 546.571 173.625C545.546 172.648 545.033 171.281 545.033 169.523C544.936 167.668 545.229 165.177 545.912 162.052ZM614.394 175.309L641.127 66.1052H668.373L660.756 95.0359L677.528 66.1052H704.335L672.841 120.671L677.235 175.309H650.062L648.964 144.255L641.347 175.309H614.394ZM709.022 82.1453C710.146 76.8718 711.952 72.7458 714.442 69.7673C716.64 67.0818 720.741 65.7878 726.747 65.8855H758.461C762.367 65.7878 765.395 66.1541 767.543 66.9841C769.398 67.9607 770.668 69.2546 771.352 70.866C771.938 72.282 772.133 73.8445 771.938 75.5535C771.547 77.5554 771.156 79.3376 770.766 80.9001L766.664 98.5515H740.297L742.934 87.5652H733.559L728.432 109.538H763.954L751.869 160.295C750.6 165.568 748.891 169.426 746.742 171.867C744.203 174.162 740.077 175.309 734.364 175.309H703.163C698.524 175.309 694.936 173.722 692.396 170.549C690.102 167.717 689.345 163.932 690.126 159.196L694.447 142.497H720.521L717.738 153.41H727.333L732.46 131.584H696.938L709.022 82.1453Z" fill="#05034A"/>
<path d="M125.136 87.6384V78.6384H118.162L116.421 85.3919L125.136 87.6384ZM108.144 153.556L99.4285 151.31L96.6174 162.215L107.874 162.552L108.144 153.556ZM115.468 153.776L115.198 162.772L122.463 162.99L124.205 155.934L115.468 153.776ZM131.801 87.6384L140.538 89.7962L143.294 78.6384H131.801V87.6384ZM88.8076 175.456V166.456H88.645L88.4825 166.462L88.8076 175.456ZM80.3848 171.354L72.3872 175.482L72.4295 175.564L72.4735 175.645L80.3848 171.354ZM79.3594 161.906L88.0512 164.241L88.0822 164.126L88.1101 164.009L79.3594 161.906ZM98.5488 82.072L89.8286 79.8456L89.8129 79.907L89.7981 79.9686L98.5488 82.072ZM103.896 70.7195L110.912 76.3558L110.999 76.2478L111.082 76.1372L103.896 70.7195ZM112.758 65.739V56.739H112.57L112.383 56.7468L112.758 65.739ZM149.672 65.739L150.479 56.7752L150.076 56.739H149.672V65.739ZM159.56 71.3787L151.557 75.4975L151.658 75.6929L151.768 75.8832L159.56 71.3787ZM160.219 84.0496L151.502 81.8103L151.498 81.8241L151.495 81.8378L160.219 84.0496ZM144.398 146.452L153.115 148.693L153.119 148.678L153.122 148.664L144.398 146.452ZM143.959 151.359L134.998 152.199L135.035 152.586L135.104 152.969L143.959 151.359ZM154.579 153.776L163.275 156.097L166.296 144.776H154.579V153.776ZM148.793 175.456V184.456H155.706L157.489 177.777L148.793 175.456ZM138.393 175.456V166.456H137.808L137.229 166.531L138.393 175.456ZM134.438 170.695L143.326 172.109L126.001 167.561L134.438 170.695ZM131.581 174.577L136.079 182.373L136.399 182.187L136.704 181.977L131.581 174.577ZM126.747 175.456L127.42 166.481L127.084 166.456H126.747V175.456ZM116.421 85.3919L99.4285 151.31L116.859 155.803L133.851 89.885L116.421 85.3919ZM107.874 162.552L115.198 162.772L115.738 144.78L108.413 144.56L107.874 162.552ZM124.205 155.934L140.538 89.7962L123.063 85.4807L106.73 151.618L124.205 155.934ZM131.801 78.6384H125.136V96.6384H131.801V78.6384ZM88.4825 166.462C87.5037 166.497 87.343 166.322 87.6026 166.449C87.7389 166.515 87.9069 166.626 88.0633 166.778C88.2166 166.927 88.2857 167.044 88.2961 167.063L72.4735 175.645C76.084 182.302 82.6395 184.685 89.1327 184.45L88.4825 166.462ZM88.3824 167.226C87.8418 166.179 87.7577 165.333 88.0512 164.241L70.6676 159.571C69.2032 165.022 69.8027 170.475 72.3872 175.482L88.3824 167.226ZM88.1101 164.009L107.3 84.1754L89.7981 79.9686L70.6086 159.803L88.1101 164.009ZM107.269 84.2985C108.197 80.663 109.493 78.1221 110.912 76.3558L96.8789 65.0832C93.5127 69.2739 91.2441 74.3013 89.8286 79.8456L107.269 84.2985ZM111.082 76.1372C112.09 74.8001 112.678 74.7502 113.132 74.7312L112.383 56.7468C105.807 57.0208 100.486 60.2912 96.7088 65.3018L111.082 76.1372ZM112.758 74.739H149.672V56.739H112.758V74.739ZM148.865 74.7028C150.382 74.8393 151.097 75.1537 151.347 75.2963C151.506 75.3872 151.514 75.4137 151.557 75.4975L167.562 67.2599C164.009 60.3566 157.351 57.3938 150.479 56.7752L148.865 74.7028ZM151.768 75.8832C151.905 76.1199 152.583 77.6028 151.502 81.8103L168.936 86.2888C170.589 79.8518 170.828 72.8874 167.351 66.8741L151.768 75.8832ZM151.495 81.8378L135.674 144.24L153.122 148.664L168.943 86.2613L151.495 81.8378ZM135.682 144.211C135.016 146.801 134.744 149.483 134.998 152.199L152.92 150.519C152.881 150.11 152.902 149.521 153.115 148.693L135.682 144.211ZM135.104 152.969C135.609 155.745 137.095 158.619 139.959 160.588C142.574 162.386 145.398 162.776 147.475 162.776V144.776C147.501 144.776 148.713 144.763 150.156 145.756C151.849 146.919 152.602 148.584 152.814 149.749L135.104 152.969ZM147.475 162.776H154.579V144.776H147.475V162.776ZM145.883 151.455L140.097 173.135L157.489 177.777L163.275 156.097L145.883 151.455ZM148.793 166.456H138.393V184.456H148.793V166.456ZM137.229 166.531C137.602 166.483 138.1 166.479 138.667 166.601C139.238 166.723 139.732 166.941 140.122 167.187L130.51 182.406C133.275 184.152 136.424 184.789 139.557 184.38L137.229 166.531ZM140.122 167.187C142.23 168.518 142.987 170.446 143.201 171.446C143.38 172.279 143.243 172.629 143.326 172.109L125.549 169.281C125.29 170.909 125.129 173.018 125.601 175.218C126.108 177.585 127.475 180.489 130.51 182.406L140.122 167.187ZM126.001 167.561C125.936 167.734 125.916 167.725 125.998 167.613C126.088 167.492 126.242 167.327 126.458 167.177L136.704 181.977C139.747 179.87 141.717 176.946 142.874 173.829L126.001 167.561ZM127.084 166.781C127.442 166.574 127.718 166.508 127.81 166.491C127.888 166.477 127.778 166.508 127.42 166.481L126.074 184.431C129.235 184.668 132.795 184.267 136.079 182.373L127.084 166.781ZM126.747 166.456H88.8076V184.456H126.747V166.456ZM245.839 65.8123L254.58 67.9538L257.31 56.8123H245.839V65.8123ZM224.379 153.41L215.637 151.268L212.908 162.41H224.379V153.41ZM233.607 153.41V162.41H240.634L242.339 155.593L233.607 153.41ZM255.507 65.8123V56.8123H248.48L246.776 63.6294L255.507 65.8123ZM281.508 65.8123L290.247 67.9634L292.992 56.8123H281.508V65.8123ZM254.555 175.309V184.309H261.608L263.294 177.46L254.555 175.309ZM164.32 170.988L157.471 176.827L157.519 176.883L157.568 176.939L164.32 170.988ZM163.222 153.63L154.481 151.486L154.445 151.632L154.414 151.778L163.222 153.63ZM184.755 65.8123V56.8123H177.695L176.014 63.6689L184.755 65.8123ZM210.463 65.8123L219.216 67.9054L221.869 56.8123H210.463V65.8123ZM189.516 153.41L180.762 151.317L178.11 162.41H189.516V153.41ZM198.744 153.41V162.41H205.892L207.51 155.448L198.744 153.41ZM219.105 65.8123V56.8123H211.958L210.339 63.7746L219.105 65.8123ZM237.097 63.6707L215.637 151.268L233.12 155.551L254.58 67.9538L237.097 63.6707ZM224.379 162.41H233.607V144.41H224.379V162.41ZM242.339 155.593L264.238 67.9951L246.776 63.6294L224.876 151.227L242.339 155.593ZM255.507 74.8123H281.508V56.8123H255.507V74.8123ZM272.769 63.6611L245.816 173.158L263.294 177.46L290.247 67.9634L272.769 63.6611ZM254.555 166.309H177.284V184.309H254.555V166.309ZM177.284 166.309C172.265 166.309 171.114 165.084 171.072 165.037L157.568 176.939C162.605 182.654 170.096 184.309 177.284 184.309V166.309ZM171.169 165.149C171.639 165.7 171.24 165.69 171.123 163.846C171.011 162.066 171.217 159.347 172.029 155.481L154.414 151.778C153.42 156.506 152.906 160.977 153.159 164.983C153.409 168.925 154.462 173.297 157.471 176.827L171.169 165.149ZM171.963 155.773L193.496 67.9556L176.014 63.6689L154.481 151.486L171.963 155.773ZM184.755 74.8123H210.463V56.8123H184.755V74.8123ZM201.71 63.7191L180.762 151.317L198.269 155.503L219.216 67.9054L201.71 63.7191ZM189.516 162.41H198.744V144.41H189.516V162.41ZM207.51 155.448L227.872 67.8499L210.339 63.7746L189.978 151.372L207.51 155.448ZM219.105 74.8123H245.839V56.8123H219.105V74.8123ZM263.563 175.456L254.842 173.235L251.984 184.456H263.563V175.456ZM291.542 65.5925V56.5925H284.547L282.82 63.3714L291.542 65.5925ZM344.643 65.5925L353.302 68.046L356.547 56.5925H344.643V65.5925ZM338.417 87.5652V96.5652H345.221L347.076 90.0186L338.417 87.5652ZM313.222 87.5652V78.5652H306.155L304.478 85.4306L313.222 87.5652ZM307.875 109.465L299.132 107.33L296.413 118.465H307.875V109.465ZM332.777 109.465L341.519 111.607L344.249 100.465H332.777V109.465ZM327.357 131.584V140.584H334.418L336.099 133.726L327.357 131.584ZM302.162 131.584V122.584H295.248L293.466 129.265L302.162 131.584ZM296.303 153.556L287.607 151.237L284.588 162.556H296.303V153.556ZM321.864 153.556L330.607 155.691L333.326 144.556H321.864V153.556ZM316.518 175.456V184.456H323.585L325.261 177.59L316.518 175.456ZM272.285 177.677L300.264 67.8136L282.82 63.3714L254.842 173.235L272.285 177.677ZM291.542 74.5925H344.643V56.5925H291.542V74.5925ZM335.983 63.1391L329.758 85.1118L347.076 90.0186L353.302 68.046L335.983 63.1391ZM338.417 78.5652H313.222V96.5652H338.417V78.5652ZM304.478 85.4306L299.132 107.33L316.618 111.599L321.965 89.6998L304.478 85.4306ZM307.875 118.465H332.777V100.465H307.875V118.465ZM324.036 107.323L318.616 129.442L336.099 133.726L341.519 111.607L324.036 107.323ZM327.357 122.584H302.162V140.584H327.357V122.584ZM293.466 129.265L287.607 151.237L304.999 155.875L310.858 133.903L293.466 129.265ZM296.303 162.556H321.864V144.556H296.303V162.556ZM313.121 151.422L307.774 173.321L325.261 177.59L330.607 155.691L313.121 151.422ZM316.518 166.456H263.563V184.456H316.518V166.456ZM374.379 87.8582V78.8582H367.527L365.703 85.4629L374.379 87.8582ZM368.373 109.611L359.698 107.216L356.551 118.611H368.373V109.611ZM375.844 109.611V118.611H382.923L384.59 111.731L375.844 109.611ZM381.117 87.8582L389.864 89.9786L392.56 78.8582H381.117V87.8582ZM325.233 175.456L316.5 173.281L313.718 184.456H325.233V175.456ZM352.553 65.739V56.739H345.519L343.819 63.5644L352.553 65.739ZM393.861 65.739L394.025 56.7405L393.943 56.739H393.861V65.739ZM405.727 69.1814L399.837 75.9869L399.976 76.1067L400.119 76.2208L405.727 69.1814ZM410.634 80.9734L419.321 83.3255L419.718 81.8589L419.612 80.3434L410.634 80.9734ZM400.6 118.034L391.912 115.682L391.89 115.766L391.868 115.851L400.6 118.034ZM397.523 124.186L404.225 130.194L404.333 130.073L404.437 129.948L397.523 124.186ZM393.275 127.848L398.045 135.48L398.13 135.428L398.213 135.373L393.275 127.848ZM388.808 130.412L391.394 139.032L392.197 138.791L392.942 138.406L388.808 130.412ZM385.146 131.73L381.452 123.523L375.122 126.371L376.269 133.217L385.146 131.73ZM392.47 175.456V184.456H403.103L401.346 173.969L392.47 175.456ZM365.81 175.456L356.904 176.758L358.03 184.456H365.81V175.456ZM360.756 140.885L369.661 139.584L352.003 138.79L360.756 140.885ZM352.479 175.456V184.456H359.579L361.232 177.551L352.479 175.456ZM365.703 85.4629L359.698 107.216L377.048 112.006L383.054 90.2534L365.703 85.4629ZM368.373 118.611H375.844V100.611H368.373V118.611ZM384.59 111.731L389.864 89.9786L372.371 85.7378L367.097 107.491L384.59 111.731ZM381.117 78.8582H374.379V96.8582H381.117V78.8582ZM333.967 177.63L361.286 67.9136L343.819 63.5644L316.5 173.281L333.967 177.63ZM352.553 74.739H393.861V56.739H352.553V74.739ZM393.698 74.7375C398.148 74.8184 399.603 75.7839 399.837 75.9869L411.616 62.3759C406.772 58.1844 400.317 56.8549 394.025 56.7405L393.698 74.7375ZM400.119 76.2208C400.204 76.2883 401.351 77.2595 401.656 81.6034L419.612 80.3434C419.135 73.5544 417.011 66.6644 411.334 62.142L400.119 76.2208ZM401.947 78.6213L391.912 115.682L409.287 120.386L419.321 83.3255L401.947 78.6213ZM391.868 115.851C391.592 116.956 391.159 117.766 390.609 118.425L404.437 129.948C406.818 127.091 408.435 123.8 409.331 120.217L391.868 115.851ZM390.822 118.178C390.063 119.025 389.238 119.733 388.337 120.324L398.213 135.373C400.438 133.913 402.445 132.18 404.225 130.194L390.822 118.178ZM388.505 120.216C387.119 121.083 385.842 121.813 384.673 122.418L392.942 138.406C394.605 137.546 396.307 136.567 398.045 135.48L388.505 120.216ZM386.221 121.791C384.524 122.301 382.904 122.869 381.452 123.523L388.839 139.938C389.34 139.712 390.161 139.402 391.394 139.032L386.221 121.791ZM376.269 133.217L383.593 176.943L401.346 173.969L394.022 130.243L376.269 133.217ZM392.47 166.456H365.81V184.456H392.47V166.456ZM374.715 174.154L369.661 139.584L351.851 142.187L356.904 176.758L374.715 174.154ZM352.003 138.79L343.727 173.36L361.232 177.551L369.509 142.981L352.003 138.79ZM352.479 166.456H325.233V184.456H352.479V166.456ZM398.695 175.456L389.977 173.222L387.099 184.456H398.695V175.456ZM426.747 65.9587V56.9587H419.762L418.029 63.7252L426.747 65.9587ZM453.627 65.9587L462.353 68.1622L465.182 56.9587H453.627V65.9587ZM442.567 109.758L433.841 107.554L431.012 118.758H442.567V109.758ZM450.038 109.758V118.758H457.094L458.778 111.906L450.038 109.758ZM460.805 65.9587V56.9587H453.749L452.065 63.8103L460.805 65.9587ZM487.685 65.9587L496.417 68.1374L499.206 56.9587H487.685V65.9587ZM460.365 175.456V184.456H467.396L469.098 177.635L460.365 175.456ZM433.705 175.456L424.956 173.345L422.276 184.456H433.705V175.456ZM444.252 131.73L453.001 133.841L455.681 122.73H444.252V131.73ZM437.733 131.73V122.73H430.783L429.026 129.455L437.733 131.73ZM426.308 175.456V184.456H433.258L435.015 177.731L426.308 175.456ZM407.414 177.689L435.466 68.1923L418.029 63.7252L389.977 173.222L407.414 177.689ZM426.747 74.9587H453.627V56.9587H426.747V74.9587ZM444.901 63.7553L433.841 107.554L451.293 111.961L462.353 68.1622L444.901 63.7553ZM442.567 118.758H450.038V100.758H442.567V118.758ZM458.778 111.906L469.544 68.1072L452.065 63.8103L441.298 107.609L458.778 111.906ZM460.805 74.9587H487.685V56.9587H460.805V74.9587ZM478.952 63.78L451.633 173.277L469.098 177.635L496.417 68.1374L478.952 63.78ZM460.365 166.456H433.705V184.456H460.365V166.456ZM442.454 177.566L453.001 133.841L435.503 129.62L424.956 173.345L442.454 177.566ZM444.252 122.73H437.733V140.73H444.252V122.73ZM429.026 129.455L417.6 173.18L435.015 177.731L446.441 134.006L429.026 129.455ZM426.308 166.456H398.695V184.456H426.308V166.456ZM514.784 109.538L505.99 107.626L503.617 118.538H514.784V109.538ZM521.449 109.538V118.538H528.493L530.186 111.7L521.449 109.538ZM526.869 87.6384L535.606 89.8006L538.368 78.6384H526.869V87.6384ZM519.545 87.6384V78.6384H512.291L510.75 85.7266L519.545 87.6384ZM470.18 175.309L461.464 173.066L458.594 184.217L470.107 184.309L470.18 175.309ZM494.569 80.5339L485.971 77.8747L485.907 78.0814L485.853 78.2909L494.569 80.5339ZM499.843 69.4744L492.841 63.8193L492.789 63.8836L492.739 63.9489L499.843 69.4744ZM550.233 66.4714L547.953 75.1778L547.98 75.1848L548.007 75.1917L550.233 66.4714ZM555.214 69.4744L563.028 65.0091L562.788 64.5883L562.503 64.1958L555.214 69.4744ZM556.459 76.6521L565.408 77.6109L565.436 77.3461L565.449 77.0802L556.459 76.6521ZM554.042 87.6384L545.392 85.1538L545.348 85.3074L545.309 85.4625L554.042 87.6384ZM532.143 175.529V184.529H539.175L540.876 177.705L532.143 175.529ZM504.457 175.529L495.752 173.244L492.789 184.529H504.457V175.529ZM515.956 131.73L524.661 134.016L527.624 122.73H515.956V131.73ZM508.412 131.73V122.73H501.368L499.676 129.568L508.412 131.73ZM497.572 175.529L497.5 184.529L504.602 184.586L506.309 177.691L497.572 175.529ZM514.784 118.538H521.449V100.538H514.784V118.538ZM530.186 111.7L535.606 89.8006L518.133 85.4762L512.713 107.376L530.186 111.7ZM526.869 78.6384H519.545V96.6384H526.869V78.6384ZM510.75 85.7266L505.99 107.626L523.579 111.45L528.34 89.5503L510.75 85.7266ZM478.896 177.552L503.285 82.7769L485.853 78.2909L461.464 173.066L478.896 177.552ZM503.168 83.1932C504.452 79.0399 505.803 76.4701 506.947 74.9998L492.739 63.9489C489.781 67.752 487.616 72.5553 485.971 77.8747L503.168 83.1932ZM506.844 75.1294C506.423 75.6508 506.213 75.5038 507.126 75.2243C508.064 74.9375 509.705 74.6658 512.294 74.6658V56.6658C505.605 56.6658 497.647 57.87 492.841 63.8193L506.844 75.1294ZM512.294 74.6658H541.518V56.6658H512.294V74.6658ZM541.518 74.6658C545.003 74.6658 547.008 74.9303 547.953 75.1778L552.514 57.7651C549.357 56.9383 545.552 56.6658 541.518 56.6658V74.6658ZM548.007 75.1917C548.484 75.3135 548.621 75.4101 548.553 75.369C548.514 75.3457 548.424 75.2864 548.305 75.1798C548.185 75.0717 548.052 74.9295 547.924 74.753L562.503 64.1958C559.868 60.5561 556.069 58.6728 552.46 57.7512L548.007 75.1917ZM547.4 73.9396C547.264 73.703 547.321 73.6901 547.39 74.0888C547.46 74.4904 547.519 75.1776 547.469 76.224L565.449 77.0802C565.634 73.1808 565.207 68.8222 563.028 65.0091L547.4 73.9396ZM547.51 75.6933C547.298 77.6696 546.655 80.7566 545.392 85.1538L562.692 90.1231C564.066 85.3406 565.034 81.1033 565.408 77.6109L547.51 75.6933ZM545.309 85.4625L523.41 173.353L540.876 177.705L562.775 89.8144L545.309 85.4625ZM532.143 166.529H504.457V184.529H532.143V166.529ZM513.162 177.814L524.661 134.016L507.251 129.445L495.752 173.244L513.162 177.814ZM515.956 122.73H508.412V140.73H515.956V122.73ZM499.676 129.568L488.836 173.367L506.309 177.691L517.149 133.892L499.676 129.568ZM497.644 166.529L470.252 166.31L470.107 184.309L497.5 184.529L497.644 166.529ZM545.912 162.052L537.177 159.884L537.147 160.006L537.12 160.129L545.912 162.052ZM566.566 78.8494L557.961 76.2149L557.89 76.4462L557.832 76.681L566.566 78.8494ZM568.837 72.8435L576.935 76.77L577.224 76.1739L577.423 75.5419L568.837 72.8435ZM571.4 68.8152L577.162 75.7292L577.549 75.4064L577.898 75.0423L571.4 68.8152ZM576.308 66.6179L577.524 75.5354L577.906 75.4832L578.283 75.3984L576.308 66.6179ZM584.438 65.739V56.739H584.247L584.058 56.747L584.438 65.739ZM626.625 70.28L633.606 64.6002L633.564 64.5481L633.521 64.4965L626.625 70.28ZM627.724 84.2693L618.992 82.0865L618.988 82.1043L618.984 82.1221L627.724 84.2693ZM621.498 109.611V118.611H628.555L630.238 111.758L621.498 109.611ZM594.472 109.611L585.702 107.587L583.158 118.611H594.472V109.611ZM599.525 87.7117L608.295 89.7354L610.839 78.7117H599.525V87.7117ZM592.274 87.7117V78.7117H585.279L583.553 85.4902L592.274 87.7117ZM575.429 153.849L566.707 151.628L563.849 162.849H575.429V153.849ZM582.68 153.849V162.849H589.584L591.372 156.181L582.68 153.849ZM588.612 131.73V122.73H581.708L579.92 129.399L588.612 131.73ZM615.785 131.73L624.487 134.026L627.467 122.73H615.785V131.73ZM607.729 162.272L599.026 159.977L599.006 160.053L598.987 160.13L607.729 162.272ZM602.895 172.746L608.864 179.481L609.067 179.301L609.258 179.11L602.895 172.746ZM592.274 175.383L592.542 166.387L592.408 166.383H592.274V175.383ZM560.194 175.383V166.383H560.014L559.835 166.39L560.194 175.383ZM551.771 175.383L550.72 184.321L550.909 184.343L551.098 184.357L551.771 175.383ZM546.571 173.625L540.364 180.142L540.456 180.23L540.551 180.314L546.571 173.625ZM545.033 169.523H554.033V169.287L554.021 169.05L545.033 169.523ZM554.647 164.221L575.301 81.0177L557.832 76.681L537.177 159.884L554.647 164.221ZM575.172 81.4838C575.818 79.3746 576.418 77.837 576.935 76.77L560.739 68.917C559.693 71.0727 558.78 73.539 557.961 76.2149L575.172 81.4838ZM577.423 75.5419C577.484 75.3464 577.518 75.3162 577.474 75.3866C577.451 75.4213 577.414 75.4743 577.359 75.5378C577.303 75.6015 577.237 75.6669 577.162 75.7292L565.639 61.9012C562.923 64.164 561.214 67.0814 560.251 70.1451L577.423 75.5419ZM577.898 75.0423C577.577 75.3776 577.278 75.5425 577.147 75.6011C577.039 75.6499 577.128 75.5894 577.524 75.5354L575.092 57.7004C571.605 58.1759 567.841 59.5221 564.902 62.588L577.898 75.0423ZM578.283 75.3984C579.467 75.1321 581.559 74.8687 584.817 74.731L584.058 56.747C580.382 56.9023 577.055 57.2248 574.332 57.8374L578.283 75.3984ZM584.438 74.739H612.489V56.739H584.438V74.739ZM612.489 74.739C615.334 74.739 617.24 75.0593 618.434 75.443C619.58 75.8112 619.796 76.1426 619.729 76.0635L633.521 64.4965C628.349 58.3306 620.152 56.739 612.489 56.739V74.739ZM619.644 75.9598C619.394 75.6536 619.608 75.6589 619.685 76.6426C619.767 77.6916 619.653 79.444 618.992 82.0865L636.455 86.4521C638.233 79.3379 638.759 70.9336 633.606 64.6002L619.644 75.9598ZM618.984 82.1221L612.758 107.464L630.238 111.758L636.464 86.4164L618.984 82.1221ZM621.498 100.611H594.472V118.611H621.498V100.611ZM603.241 111.635L608.295 89.7354L590.756 85.6879L585.702 107.587L603.241 111.635ZM599.525 78.7117H592.274V96.7117H599.525V78.7117ZM583.553 85.4902L566.707 151.628L584.15 156.071L600.996 89.9331L583.553 85.4902ZM575.429 162.849H582.68V144.849H575.429V162.849ZM591.372 156.181L597.305 134.062L579.92 129.399L573.987 151.518L591.372 156.181ZM588.612 140.73H615.785V122.73H588.612V140.73ZM607.083 129.435L599.026 159.977L616.431 164.568L624.487 134.026L607.083 129.435ZM598.987 160.13C597.885 164.625 596.763 166.15 596.531 166.382L609.258 179.11C613.03 175.338 615.13 169.88 616.47 164.415L598.987 160.13ZM596.925 166.011C597.192 165.774 597.192 165.917 596.46 166.098C595.71 166.285 594.455 166.443 592.542 166.387L592.007 184.379C597.708 184.548 604.126 183.68 608.864 179.481L596.925 166.011ZM592.274 166.383H560.194V184.383H592.274V166.383ZM559.835 166.39C556.276 166.532 553.877 166.515 552.445 166.408L551.098 184.357C553.572 184.543 556.789 184.526 560.554 184.375L559.835 166.39ZM552.823 166.444C552.422 166.397 552.111 166.345 551.879 166.297C551.645 166.248 551.522 166.209 551.486 166.197C551.448 166.184 551.542 166.213 551.725 166.312C551.909 166.411 552.225 166.605 552.592 166.935L540.551 180.314C543.692 183.142 547.809 183.978 550.72 184.321L552.823 166.444ZM552.778 167.108C553.281 167.586 553.639 168.159 553.845 168.707C554.036 169.216 554.033 169.537 554.033 169.523H536.033C536.033 173.11 537.143 177.074 540.364 180.142L552.778 167.108ZM554.021 169.05C553.985 168.373 554.088 166.793 554.704 163.976L537.12 160.129C536.369 163.562 535.886 166.962 536.046 169.996L554.021 169.05ZM614.394 175.309L605.652 173.169L602.925 184.309H614.394V175.309ZM641.127 66.1052V57.1052H634.064L632.385 63.9652L641.127 66.1052ZM668.373 66.1052L677.076 68.3967L680.049 57.1052H668.373V66.1052ZM660.756 95.0359L652.052 92.7444L668.542 99.5499L660.756 95.0359ZM677.528 66.1052V57.1052H672.343L669.742 61.5912L677.528 66.1052ZM704.335 66.1052L712.13 70.6042L719.921 57.1052H704.335V66.1052ZM672.841 120.671L665.046 116.172L663.645 118.599L663.87 121.392L672.841 120.671ZM677.235 175.309V184.309H686.988L686.206 174.588L677.235 175.309ZM650.062 175.309L641.068 175.628L641.375 184.309H650.062V175.309ZM648.964 144.255L657.958 143.936L640.223 142.111L648.964 144.255ZM641.347 175.309V184.309H648.406L650.088 177.453L641.347 175.309ZM623.135 177.449L649.869 68.2453L632.385 63.9652L605.652 173.169L623.135 177.449ZM641.127 75.1052H668.373V57.1052H641.127V75.1052ZM659.67 63.8137L652.052 92.7444L669.459 97.3274L677.076 68.3967L659.67 63.8137ZM668.542 99.5499L685.314 70.6192L669.742 61.5912L652.97 90.5219L668.542 99.5499ZM677.528 75.1052H704.335V57.1052H677.528V75.1052ZM696.54 61.6062L665.046 116.172L680.636 125.17L712.13 70.6042L696.54 61.6062ZM663.87 121.392L668.264 176.031L686.206 174.588L681.812 119.949L663.87 121.392ZM677.235 166.309H650.062V184.309H677.235V166.309ZM659.057 174.991L657.958 143.936L639.969 144.573L641.068 175.628L659.057 174.991ZM640.223 142.111L632.606 173.165L650.088 177.453L657.705 146.399L640.223 142.111ZM641.347 166.309H614.394V184.309H641.347V166.309ZM709.022 82.1453L717.765 84.2823L717.797 84.1516L717.825 84.0199L709.022 82.1453ZM714.442 69.7673L721.347 75.5401L721.378 75.5035L721.408 75.4665L714.442 69.7673ZM726.747 65.8855L726.601 74.8843L726.674 74.8855H726.747V65.8855ZM758.461 65.8855V74.8855H758.573L758.686 74.8827L758.461 65.8855ZM767.543 66.9841L771.735 59.0199L771.273 58.7769L770.787 58.5889L767.543 66.9841ZM771.352 70.866L779.668 67.4248L779.652 67.3878L779.637 67.351L771.352 70.866ZM771.938 75.5535L780.771 77.2771L780.839 76.9284L780.879 76.5754L771.938 75.5535ZM770.766 80.9001L762.034 78.7173L762.016 78.7901L761.999 78.8631L770.766 80.9001ZM766.664 98.5515V107.552H773.813L775.43 100.589L766.664 98.5515ZM740.297 98.5515L731.545 96.4512L728.881 107.552H740.297V98.5515ZM742.934 87.5652L751.685 89.6655L754.349 78.5652H742.934V87.5652ZM733.559 87.5652V78.5652H726.417L724.794 85.5201L733.559 87.5652ZM728.432 109.538L719.667 107.493L717.09 118.538H728.432V109.538ZM763.954 109.538L772.709 111.622L775.349 100.538H763.954V109.538ZM751.869 160.295L760.619 162.401L760.622 162.39L760.624 162.379L751.869 160.295ZM746.742 171.867L752.777 178.544L753.159 178.199L753.499 177.813L746.742 171.867ZM692.396 170.549L699.424 164.926L699.407 164.904L699.389 164.882L692.396 170.549ZM690.126 159.196L681.413 156.941L681.312 157.333L681.246 157.731L690.126 159.196ZM694.447 142.497V133.497H687.48L685.734 140.242L694.447 142.497ZM720.521 142.497L729.242 144.721L732.105 133.497H720.521V142.497ZM717.738 153.41L709.017 151.186L706.155 162.41H717.738V153.41ZM727.333 153.41V162.41H734.464L736.095 155.468L727.333 153.41ZM732.46 131.584L741.221 133.642L743.819 122.584H732.46V131.584ZM696.938 131.584L688.195 129.447L685.473 140.584H696.938V131.584ZM717.825 84.0199C718.755 79.6534 720.092 77.0417 721.347 75.5401L707.538 63.9945C703.813 68.45 701.536 74.0903 700.22 80.2706L717.825 84.0199ZM721.408 75.4665C721.159 75.7709 721.092 75.6124 721.874 75.3657C722.717 75.1 724.212 74.8455 726.601 74.8843L726.893 56.8867C720.078 56.7759 712.356 58.105 707.477 64.0682L721.408 75.4665ZM726.747 74.8855H758.461V56.8855H726.747V74.8855ZM758.686 74.8827C762.118 74.7969 763.768 75.1739 764.299 75.3793L770.787 58.5889C767.021 57.1342 762.616 56.7788 758.236 56.8883L758.686 74.8827ZM763.351 74.9484C763.58 75.0687 763.574 75.1042 763.462 74.9901C763.407 74.9333 763.335 74.8495 763.26 74.7382C763.185 74.6264 763.119 74.505 763.066 74.3809L779.637 67.351C777.99 63.4694 775.049 60.7641 771.735 59.0199L763.351 74.9484ZM763.035 74.3071C763.025 74.2827 763.018 74.259 763.012 74.2389C763.007 74.2189 763.006 74.2102 763.007 74.2162C763.008 74.2257 763.02 74.3229 762.996 74.5315L780.879 76.5754C781.226 73.5387 780.906 70.4173 779.668 67.4248L763.035 74.3071ZM763.104 73.8299C762.736 75.7162 762.378 77.3407 762.034 78.7173L779.497 83.083C779.934 81.3346 780.358 79.3946 780.771 77.2771L763.104 73.8299ZM761.999 78.8631L757.898 96.5145L775.43 100.589L779.532 82.9372L761.999 78.8631ZM766.664 89.5515H740.297V107.552H766.664V89.5515ZM749.048 100.652L751.685 89.6655L734.182 85.4648L731.545 96.4512L749.048 100.652ZM742.934 78.5652H733.559V96.5652H742.934V78.5652ZM724.794 85.5201L719.667 107.493L737.196 111.583L742.323 89.6103L724.794 85.5201ZM728.432 118.538H763.954V100.538H728.432V118.538ZM755.199 107.453L743.114 158.21L760.624 162.379L772.709 111.622L755.199 107.453ZM743.119 158.188C741.991 162.875 740.725 165.081 739.986 165.921L753.499 177.813C757.056 173.77 759.208 168.261 760.619 162.401L743.119 158.188ZM740.707 165.19C740.624 165.265 739.237 166.309 734.364 166.309V184.309C740.917 184.309 747.782 183.059 752.777 178.544L740.707 165.19ZM734.364 166.309H703.163V184.309H734.364V166.309ZM703.163 166.309C700.823 166.309 700 165.647 699.424 164.926L685.369 176.171C689.871 181.798 696.226 184.309 703.163 184.309V166.309ZM699.389 164.882C699.186 164.632 698.503 163.71 699.006 160.661L681.246 157.731C680.186 164.155 681.017 170.801 685.404 176.215L699.389 164.882ZM698.839 161.451L703.16 144.752L685.734 140.242L681.413 156.941L698.839 161.451ZM694.447 151.497H720.521V133.497H694.447V151.497ZM711.801 140.273L709.017 151.186L726.459 155.634L729.242 144.721L711.801 140.273ZM717.738 162.41H727.333V144.41H717.738V162.41ZM736.095 155.468L741.221 133.642L723.698 129.526L718.571 151.352L736.095 155.468ZM732.46 122.584H696.938V140.584H732.46V122.584ZM705.68 133.721L717.765 84.2823L700.28 80.0082L688.195 129.447L705.68 133.721Z" fill="#05034A" mask="url(#path-1-outside-1_1252_557)"/>
<mask id="path-3-outside-2_1252_557" maskUnits="userSpaceOnUse" x="59.5" y="46.3093" width="712" height="129" fill="black">
<rect fill="white" x="59.5" y="46.3093" width="712" height="129"/>
<path d="M115.136 77.6384L98.1436 143.556L105.468 143.776L121.801 77.6384H115.136ZM78.8076 165.456C74.7549 165.602 71.9473 164.235 70.3848 161.354C68.8223 158.327 68.4805 155.177 69.3594 151.906L88.5488 72.072C89.7207 67.4822 91.5029 63.698 93.8955 60.7195C96.2881 57.5457 99.2422 55.8855 102.758 55.739H139.672C144.555 56.1785 147.851 58.0583 149.56 61.3787C151.366 64.5037 151.586 68.7273 150.219 74.0496L134.398 136.452C133.959 138.161 133.812 139.797 133.959 141.359C134.252 142.97 135.424 143.776 137.475 143.776H144.579L138.793 165.456H128.393C127.27 165.602 126.244 165.383 125.316 164.797C124.389 164.211 124.096 162.844 124.438 160.695C123.803 162.404 122.851 163.698 121.581 164.577C120.312 165.309 118.7 165.602 116.747 165.456H78.8076ZM235.839 55.8123L214.379 143.41H223.607L245.507 55.8123H271.508L244.555 165.309H167.284C161.181 165.309 156.859 163.869 154.32 160.988C151.781 158.01 151.415 152.223 153.222 143.63L174.755 55.8123H200.463L179.516 143.41H188.744L209.105 55.8123H235.839ZM253.563 165.456L281.542 55.5925H334.643L328.417 77.5652H303.222L297.875 99.4646H322.777L317.357 121.584H292.162L286.303 143.556H311.864L306.518 165.456H253.563ZM364.379 77.8582L358.373 99.6111H365.844L371.117 77.8582H364.379ZM315.233 165.456L342.553 55.739H383.861C389.232 55.8367 393.188 56.9841 395.727 59.1814C398.607 61.4763 400.243 65.407 400.634 70.9734L390.6 108.034C390.014 110.378 388.988 112.428 387.523 114.186C386.254 115.602 384.838 116.823 383.275 117.848C381.713 118.825 380.224 119.679 378.808 120.412C377.343 120.851 376.122 121.291 375.146 121.73L382.47 165.456H355.81L350.756 130.885L342.479 165.456H315.233ZM388.695 165.456L416.747 55.9587H443.627L432.567 99.7576H440.038L450.805 55.9587H477.685L450.365 165.456H423.705L434.252 121.73H427.733L416.308 165.456H388.695ZM504.784 99.5378H511.449L516.869 77.6384H509.545L504.784 99.5378ZM460.18 165.309L484.569 70.5339C486.034 65.7976 487.792 62.1111 489.843 59.4744C491.894 56.9353 496.044 55.6658 502.294 55.6658H531.518C535.277 55.6658 538.183 55.9343 540.233 56.4714C542.528 57.0574 544.188 58.0583 545.214 59.4744C546.19 61.1833 546.605 63.5759 546.459 66.6521C546.166 69.3865 545.36 73.0486 544.042 77.6384L522.143 165.529H494.457L505.956 121.73H498.412L487.572 165.529L460.18 165.309ZM535.912 152.052L556.566 68.8494C557.299 66.4568 558.056 64.4548 558.837 62.8435C559.374 61.1345 560.229 59.7917 561.4 58.8152C562.523 57.6433 564.159 56.9109 566.308 56.6179C568.261 56.1785 570.971 55.8855 574.438 55.739H602.489C609.374 55.739 614.086 57.2527 616.625 60.28C618.969 63.1609 619.335 67.824 617.724 74.2693L611.498 99.6111H584.472L589.525 77.7117H582.274L565.429 143.849H572.68L578.612 121.73H605.785L597.729 152.272C596.508 157.253 594.896 160.744 592.895 162.746C590.746 164.65 587.206 165.529 582.274 165.383H550.194C546.532 165.529 543.725 165.529 541.771 165.383C539.281 165.09 537.548 164.504 536.571 163.625C535.546 162.648 535.033 161.281 535.033 159.523C534.936 157.668 535.229 155.177 535.912 152.052ZM604.394 165.309L631.127 56.1052H658.373L650.756 85.0359L667.528 56.1052H694.335L662.841 110.671L667.235 165.309H640.062L638.964 134.255L631.347 165.309H604.394ZM699.022 72.1453C700.146 66.8718 701.952 62.7458 704.442 59.7673C706.64 57.0818 710.741 55.7878 716.747 55.8855H748.461C752.367 55.7878 755.395 56.1541 757.543 56.9841C759.398 57.9607 760.668 59.2546 761.352 60.866C761.938 62.282 762.133 63.8445 761.938 65.5535C761.547 67.5554 761.156 69.3376 760.766 70.9001L756.664 88.5515H730.297L732.934 77.5652H723.559L718.432 99.5378H753.954L741.869 150.295C740.6 155.568 738.891 159.426 736.742 161.867C734.203 164.162 730.077 165.309 724.364 165.309H693.163C688.524 165.309 684.936 163.722 682.396 160.549C680.102 157.717 679.345 153.932 680.126 149.196L684.447 132.497H710.521L707.738 143.41H717.333L722.46 121.584H686.938L699.022 72.1453Z"/>
</mask>
<path d="M115.136 77.6384L98.1436 143.556L105.468 143.776L121.801 77.6384H115.136ZM78.8076 165.456C74.7549 165.602 71.9473 164.235 70.3848 161.354C68.8223 158.327 68.4805 155.177 69.3594 151.906L88.5488 72.072C89.7207 67.4822 91.5029 63.698 93.8955 60.7195C96.2881 57.5457 99.2422 55.8855 102.758 55.739H139.672C144.555 56.1785 147.851 58.0583 149.56 61.3787C151.366 64.5037 151.586 68.7273 150.219 74.0496L134.398 136.452C133.959 138.161 133.812 139.797 133.959 141.359C134.252 142.97 135.424 143.776 137.475 143.776H144.579L138.793 165.456H128.393C127.27 165.602 126.244 165.383 125.316 164.797C124.389 164.211 124.096 162.844 124.438 160.695C123.803 162.404 122.851 163.698 121.581 164.577C120.312 165.309 118.7 165.602 116.747 165.456H78.8076ZM235.839 55.8123L214.379 143.41H223.607L245.507 55.8123H271.508L244.555 165.309H167.284C161.181 165.309 156.859 163.869 154.32 160.988C151.781 158.01 151.415 152.223 153.222 143.63L174.755 55.8123H200.463L179.516 143.41H188.744L209.105 55.8123H235.839ZM253.563 165.456L281.542 55.5925H334.643L328.417 77.5652H303.222L297.875 99.4646H322.777L317.357 121.584H292.162L286.303 143.556H311.864L306.518 165.456H253.563ZM364.379 77.8582L358.373 99.6111H365.844L371.117 77.8582H364.379ZM315.233 165.456L342.553 55.739H383.861C389.232 55.8367 393.188 56.9841 395.727 59.1814C398.607 61.4763 400.243 65.407 400.634 70.9734L390.6 108.034C390.014 110.378 388.988 112.428 387.523 114.186C386.254 115.602 384.838 116.823 383.275 117.848C381.713 118.825 380.224 119.679 378.808 120.412C377.343 120.851 376.122 121.291 375.146 121.73L382.47 165.456H355.81L350.756 130.885L342.479 165.456H315.233ZM388.695 165.456L416.747 55.9587H443.627L432.567 99.7576H440.038L450.805 55.9587H477.685L450.365 165.456H423.705L434.252 121.73H427.733L416.308 165.456H388.695ZM504.784 99.5378H511.449L516.869 77.6384H509.545L504.784 99.5378ZM460.18 165.309L484.569 70.5339C486.034 65.7976 487.792 62.1111 489.843 59.4744C491.894 56.9353 496.044 55.6658 502.294 55.6658H531.518C535.277 55.6658 538.183 55.9343 540.233 56.4714C542.528 57.0574 544.188 58.0583 545.214 59.4744C546.19 61.1833 546.605 63.5759 546.459 66.6521C546.166 69.3865 545.36 73.0486 544.042 77.6384L522.143 165.529H494.457L505.956 121.73H498.412L487.572 165.529L460.18 165.309ZM535.912 152.052L556.566 68.8494C557.299 66.4568 558.056 64.4548 558.837 62.8435C559.374 61.1345 560.229 59.7917 561.4 58.8152C562.523 57.6433 564.159 56.9109 566.308 56.6179C568.261 56.1785 570.971 55.8855 574.438 55.739H602.489C609.374 55.739 614.086 57.2527 616.625 60.28C618.969 63.1609 619.335 67.824 617.724 74.2693L611.498 99.6111H584.472L589.525 77.7117H582.274L565.429 143.849H572.68L578.612 121.73H605.785L597.729 152.272C596.508 157.253 594.896 160.744 592.895 162.746C590.746 164.65 587.206 165.529 582.274 165.383H550.194C546.532 165.529 543.725 165.529 541.771 165.383C539.281 165.09 537.548 164.504 536.571 163.625C535.546 162.648 535.033 161.281 535.033 159.523C534.936 157.668 535.229 155.177 535.912 152.052ZM604.394 165.309L631.127 56.1052H658.373L650.756 85.0359L667.528 56.1052H694.335L662.841 110.671L667.235 165.309H640.062L638.964 134.255L631.347 165.309H604.394ZM699.022 72.1453C700.146 66.8718 701.952 62.7458 704.442 59.7673C706.64 57.0818 710.741 55.7878 716.747 55.8855H748.461C752.367 55.7878 755.395 56.1541 757.543 56.9841C759.398 57.9607 760.668 59.2546 761.352 60.866C761.938 62.282 762.133 63.8445 761.938 65.5535C761.547 67.5554 761.156 69.3376 760.766 70.9001L756.664 88.5515H730.297L732.934 77.5652H723.559L718.432 99.5378H753.954L741.869 150.295C740.6 155.568 738.891 159.426 736.742 161.867C734.203 164.162 730.077 165.309 724.364 165.309H693.163C688.524 165.309 684.936 163.722 682.396 160.549C680.102 157.717 679.345 153.932 680.126 149.196L684.447 132.497H710.521L707.738 143.41H717.333L722.46 121.584H686.938L699.022 72.1453Z" fill="white"/>
<path d="M115.136 77.6384V68.6384H108.162L106.421 75.3919L115.136 77.6384ZM98.1436 143.556L89.4285 141.31L86.6174 152.215L97.8737 152.552L98.1436 143.556ZM105.468 143.776L105.198 152.772L112.463 152.99L114.205 145.934L105.468 143.776ZM121.801 77.6384L130.538 79.7962L133.294 68.6384H121.801V77.6384ZM78.8076 165.456V156.456H78.645L78.4825 156.462L78.8076 165.456ZM70.3848 161.354L62.3872 165.482L62.4295 165.564L62.4735 165.645L70.3848 161.354ZM69.3594 151.906L78.0512 154.241L78.0822 154.126L78.1101 154.009L69.3594 151.906ZM88.5488 72.072L79.8286 69.8456L79.8129 69.907L79.7981 69.9686L88.5488 72.072ZM93.8955 60.7195L100.912 66.3558L100.999 66.2478L101.082 66.1372L93.8955 60.7195ZM102.758 55.739V46.739H102.57L102.383 46.7468L102.758 55.739ZM139.672 55.739L140.479 46.7752L140.076 46.739H139.672V55.739ZM149.56 61.3787L141.557 65.4975L141.658 65.6929L141.768 65.8832L149.56 61.3787ZM150.219 74.0496L141.502 71.8103L141.498 71.8241L141.495 71.8378L150.219 74.0496ZM134.398 136.452L143.115 138.693L143.119 138.678L143.122 138.664L134.398 136.452ZM133.959 141.359L124.998 142.199L125.035 142.586L125.104 142.969L133.959 141.359ZM144.579 143.776L153.275 146.097L156.296 134.776H144.579V143.776ZM138.793 165.456V174.456H145.706L147.489 167.777L138.793 165.456ZM128.393 165.456V156.456H127.808L127.229 156.531L128.393 165.456ZM124.438 160.695L133.326 162.109L116.001 157.561L124.438 160.695ZM121.581 164.577L126.079 172.373L126.399 172.187L126.704 171.977L121.581 164.577ZM116.747 165.456L117.42 156.481L117.084 156.456H116.747V165.456ZM106.421 75.3919L89.4285 141.31L106.859 145.803L123.851 79.885L106.421 75.3919ZM97.8737 152.552L105.198 152.772L105.738 134.78L98.4134 134.56L97.8737 152.552ZM114.205 145.934L130.538 79.7962L113.063 75.4807L96.7303 141.618L114.205 145.934ZM121.801 68.6384H115.136V86.6384H121.801V68.6384ZM78.4825 156.462C77.5037 156.497 77.343 156.322 77.6026 156.449C77.7389 156.515 77.9069 156.626 78.0633 156.778C78.2166 156.927 78.2857 157.044 78.2961 157.063L62.4735 165.645C66.084 172.302 72.6395 174.685 79.1327 174.45L78.4825 156.462ZM78.3824 157.226C77.8418 156.179 77.7577 155.333 78.0512 154.241L60.6676 149.571C59.2032 155.022 59.8027 160.475 62.3872 165.482L78.3824 157.226ZM78.1101 154.009L97.2996 74.1754L79.7981 69.9686L60.6086 149.803L78.1101 154.009ZM97.2691 74.2985C98.1973 70.663 99.4932 68.1221 100.912 66.3558L86.8789 55.0832C83.5127 59.2739 81.2441 64.3013 79.8286 69.8456L97.2691 74.2985ZM101.082 66.1372C102.09 64.8001 102.678 64.7502 103.132 64.7312L102.383 46.7468C95.8066 47.0208 90.486 50.2912 86.7088 55.3018L101.082 66.1372ZM102.758 64.739H139.672V46.739H102.758V64.739ZM138.865 64.7028C140.382 64.8393 141.097 65.1537 141.347 65.2963C141.506 65.3872 141.514 65.4137 141.557 65.4975L157.562 57.2599C154.009 50.3566 147.351 47.3938 140.479 46.7752L138.865 64.7028ZM141.768 65.8832C141.905 66.1199 142.583 67.6028 141.502 71.8103L158.936 76.2888C160.589 69.8518 160.828 62.8874 157.351 56.8741L141.768 65.8832ZM141.495 71.8378L125.674 134.24L143.122 138.664L158.943 76.2613L141.495 71.8378ZM125.682 134.211C125.016 136.801 124.744 139.483 124.998 142.199L142.92 140.519C142.881 140.11 142.902 139.521 143.115 138.693L125.682 134.211ZM125.104 142.969C125.609 145.745 127.095 148.619 129.959 150.588C132.574 152.386 135.398 152.776 137.475 152.776V134.776C137.501 134.776 138.713 134.763 140.156 135.756C141.849 136.919 142.602 138.584 142.814 139.749L125.104 142.969ZM137.475 152.776H144.579V134.776H137.475V152.776ZM135.883 141.455L130.097 163.135L147.489 167.777L153.275 146.097L135.883 141.455ZM138.793 156.456H128.393V174.456H138.793V156.456ZM127.229 156.531C127.602 156.483 128.1 156.479 128.667 156.601C129.238 156.723 129.732 156.941 130.122 157.187L120.51 172.406C123.275 174.152 126.424 174.789 129.557 174.38L127.229 156.531ZM130.122 157.187C132.23 158.518 132.987 160.446 133.201 161.446C133.38 162.279 133.243 162.629 133.326 162.109L115.549 159.281C115.29 160.909 115.129 163.018 115.601 165.218C116.108 167.585 117.475 170.489 120.51 172.406L130.122 157.187ZM116.001 157.561C115.936 157.734 115.916 157.725 115.998 157.613C116.088 157.492 116.242 157.327 116.458 157.177L126.704 171.977C129.747 169.87 131.717 166.946 132.874 163.829L116.001 157.561ZM117.084 156.781C117.442 156.574 117.718 156.508 117.81 156.491C117.888 156.477 117.778 156.508 117.42 156.481L116.074 174.431C119.235 174.668 122.795 174.267 126.079 172.373L117.084 156.781ZM116.747 156.456H78.8076V174.456H116.747V156.456ZM235.839 55.8123L244.58 57.9538L247.31 46.8123H235.839V55.8123ZM214.379 143.41L205.637 141.268L202.908 152.41H214.379V143.41ZM223.607 143.41V152.41H230.634L232.339 145.593L223.607 143.41ZM245.507 55.8123V46.8123H238.48L236.776 53.6294L245.507 55.8123ZM271.508 55.8123L280.247 57.9634L282.992 46.8123H271.508V55.8123ZM244.555 165.309V174.309H251.608L253.294 167.46L244.555 165.309ZM154.32 160.988L147.471 166.827L147.519 166.883L147.568 166.939L154.32 160.988ZM153.222 143.63L144.481 141.486L144.445 141.632L144.414 141.778L153.222 143.63ZM174.755 55.8123V46.8123H167.695L166.014 53.6689L174.755 55.8123ZM200.463 55.8123L209.216 57.9054L211.869 46.8123H200.463V55.8123ZM179.516 143.41L170.762 141.317L168.11 152.41H179.516V143.41ZM188.744 143.41V152.41H195.892L197.51 145.448L188.744 143.41ZM209.105 55.8123V46.8123H201.958L200.339 53.7746L209.105 55.8123ZM227.097 53.6707L205.637 141.268L223.12 145.551L244.58 57.9538L227.097 53.6707ZM214.379 152.41H223.607V134.41H214.379V152.41ZM232.339 145.593L254.238 57.9951L236.776 53.6294L214.876 141.227L232.339 145.593ZM245.507 64.8123H271.508V46.8123H245.507V64.8123ZM262.769 53.6611L235.816 163.158L253.294 167.46L280.247 57.9634L262.769 53.6611ZM244.555 156.309H167.284V174.309H244.555V156.309ZM167.284 156.309C162.265 156.309 161.114 155.084 161.072 155.037L147.568 166.939C152.605 172.654 160.096 174.309 167.284 174.309V156.309ZM161.169 155.149C161.639 155.7 161.24 155.69 161.123 153.846C161.011 152.066 161.217 149.347 162.029 145.481L144.414 141.778C143.42 146.506 142.906 150.977 143.159 154.983C143.409 158.925 144.462 163.297 147.471 166.827L161.169 155.149ZM161.963 145.773L183.496 57.9556L166.014 53.6689L144.481 141.486L161.963 145.773ZM174.755 64.8123H200.463V46.8123H174.755V64.8123ZM191.71 53.7191L170.762 141.317L188.269 145.503L209.216 57.9054L191.71 53.7191ZM179.516 152.41H188.744V134.41H179.516V152.41ZM197.51 145.448L217.872 57.8499L200.339 53.7746L179.978 141.372L197.51 145.448ZM209.105 64.8123H235.839V46.8123H209.105V64.8123ZM253.563 165.456L244.842 163.235L241.984 174.456H253.563V165.456ZM281.542 55.5925V46.5925H274.547L272.82 53.3714L281.542 55.5925ZM334.643 55.5925L343.302 58.046L346.547 46.5925H334.643V55.5925ZM328.417 77.5652V86.5652H335.221L337.076 80.0186L328.417 77.5652ZM303.222 77.5652V68.5652H296.155L294.478 75.4306L303.222 77.5652ZM297.875 99.4646L289.132 97.33L286.413 108.465H297.875V99.4646ZM322.777 99.4646L331.519 101.607L334.249 90.4646H322.777V99.4646ZM317.357 121.584V130.584H324.418L326.099 123.726L317.357 121.584ZM292.162 121.584V112.584H285.248L283.466 119.265L292.162 121.584ZM286.303 143.556L277.607 141.237L274.588 152.556H286.303V143.556ZM311.864 143.556L320.607 145.691L323.326 134.556H311.864V143.556ZM306.518 165.456V174.456H313.585L315.261 167.59L306.518 165.456ZM262.285 167.677L290.264 57.8136L272.82 53.3714L244.842 163.235L262.285 167.677ZM281.542 64.5925H334.643V46.5925H281.542V64.5925ZM325.983 53.1391L319.758 75.1118L337.076 80.0186L343.302 58.046L325.983 53.1391ZM328.417 68.5652H303.222V86.5652H328.417V68.5652ZM294.478 75.4306L289.132 97.33L306.618 101.599L311.965 79.6998L294.478 75.4306ZM297.875 108.465H322.777V90.4646H297.875V108.465ZM314.036 97.3227L308.616 119.442L326.099 123.726L331.519 101.607L314.036 97.3227ZM317.357 112.584H292.162V130.584H317.357V112.584ZM283.466 119.265L277.607 141.237L294.999 145.875L300.858 123.903L283.466 119.265ZM286.303 152.556H311.864V134.556H286.303V152.556ZM303.121 141.422L297.774 163.321L315.261 167.59L320.607 145.691L303.121 141.422ZM306.518 156.456H253.563V174.456H306.518V156.456ZM364.379 77.8582V68.8582H357.527L355.703 75.4629L364.379 77.8582ZM358.373 99.6111L349.698 97.2159L346.551 108.611H358.373V99.6111ZM365.844 99.6111V108.611H372.923L374.59 101.731L365.844 99.6111ZM371.117 77.8582L379.864 79.9786L382.56 68.8582H371.117V77.8582ZM315.233 165.456L306.5 163.281L303.718 174.456H315.233V165.456ZM342.553 55.739V46.739H335.519L333.819 53.5644L342.553 55.739ZM383.861 55.739L384.025 46.7405L383.943 46.739H383.861V55.739ZM395.727 59.1814L389.837 65.9869L389.976 66.1067L390.119 66.2208L395.727 59.1814ZM400.634 70.9734L409.321 73.3255L409.718 71.8589L409.612 70.3434L400.634 70.9734ZM390.6 108.034L381.912 105.682L381.89 105.766L381.868 105.851L390.6 108.034ZM387.523 114.186L394.225 120.194L394.333 120.073L394.437 119.948L387.523 114.186ZM383.275 117.848L388.045 125.48L388.13 125.428L388.213 125.373L383.275 117.848ZM378.808 120.412L381.394 129.032L382.197 128.791L382.942 128.406L378.808 120.412ZM375.146 121.73L371.452 113.523L365.122 116.371L366.269 123.217L375.146 121.73ZM382.47 165.456V174.456H393.103L391.346 163.969L382.47 165.456ZM355.81 165.456L346.904 166.758L348.03 174.456H355.81V165.456ZM350.756 130.885L359.661 129.584L342.003 128.79L350.756 130.885ZM342.479 165.456V174.456H349.579L351.232 167.551L342.479 165.456ZM355.703 75.4629L349.698 97.2159L367.048 102.006L373.054 80.2534L355.703 75.4629ZM358.373 108.611H365.844V90.6111H358.373V108.611ZM374.59 101.731L379.864 79.9786L362.371 75.7378L357.097 97.4907L374.59 101.731ZM371.117 68.8582H364.379V86.8582H371.117V68.8582ZM323.967 167.63L351.286 57.9136L333.819 53.5644L306.5 163.281L323.967 167.63ZM342.553 64.739H383.861V46.739H342.553V64.739ZM383.698 64.7375C388.148 64.8184 389.603 65.7839 389.837 65.9869L401.616 52.3759C396.772 48.1844 390.317 46.8549 384.025 46.7405L383.698 64.7375ZM390.119 66.2208C390.204 66.2883 391.351 67.2595 391.656 71.6034L409.612 70.3434C409.135 63.5544 407.011 56.6644 401.334 52.142L390.119 66.2208ZM391.947 68.6213L381.912 105.682L399.287 110.386L409.321 73.3255L391.947 68.6213ZM381.868 105.851C381.592 106.956 381.159 107.766 380.609 108.425L394.437 119.948C396.818 117.091 398.435 113.8 399.331 110.217L381.868 105.851ZM380.822 108.178C380.063 109.025 379.238 109.733 378.337 110.324L388.213 125.373C390.438 123.913 392.445 122.18 394.225 120.194L380.822 108.178ZM378.505 110.216C377.119 111.083 375.842 111.813 374.673 112.418L382.942 128.406C384.605 127.546 386.307 126.567 388.045 125.48L378.505 110.216ZM376.221 111.791C374.524 112.301 372.904 112.869 371.452 113.523L378.839 129.938C379.34 129.712 380.161 129.402 381.394 129.032L376.221 111.791ZM366.269 123.217L373.593 166.943L391.346 163.969L384.022 120.243L366.269 123.217ZM382.47 156.456H355.81V174.456H382.47V156.456ZM364.715 164.154L359.661 129.584L341.851 132.187L346.904 166.758L364.715 164.154ZM342.003 128.79L333.727 163.36L351.232 167.551L359.509 132.981L342.003 128.79ZM342.479 156.456H315.233V174.456H342.479V156.456ZM388.695 165.456L379.977 163.222L377.099 174.456H388.695V165.456ZM416.747 55.9587V46.9587H409.762L408.029 53.7252L416.747 55.9587ZM443.627 55.9587L452.353 58.1622L455.182 46.9587H443.627V55.9587ZM432.567 99.7576L423.841 97.5542L421.012 108.758H432.567V99.7576ZM440.038 99.7576V108.758H447.094L448.778 101.906L440.038 99.7576ZM450.805 55.9587V46.9587H443.749L442.065 53.8103L450.805 55.9587ZM477.685 55.9587L486.417 58.1374L489.206 46.9587H477.685V55.9587ZM450.365 165.456V174.456H457.396L459.098 167.635L450.365 165.456ZM423.705 165.456L414.956 163.345L412.276 174.456H423.705V165.456ZM434.252 121.73L443.001 123.841L445.681 112.73H434.252V121.73ZM427.733 121.73V112.73H420.783L419.026 119.455L427.733 121.73ZM416.308 165.456V174.456H423.258L425.015 167.731L416.308 165.456ZM397.414 167.689L425.466 58.1923L408.029 53.7252L379.977 163.222L397.414 167.689ZM416.747 64.9587H443.627V46.9587H416.747V64.9587ZM434.901 53.7553L423.841 97.5542L441.293 101.961L452.353 58.1622L434.901 53.7553ZM432.567 108.758H440.038V90.7576H432.567V108.758ZM448.778 101.906L459.544 58.1072L442.065 53.8103L431.298 97.6092L448.778 101.906ZM450.805 64.9587H477.685V46.9587H450.805V64.9587ZM468.952 53.78L441.633 163.277L459.098 167.635L486.417 58.1374L468.952 53.78ZM450.365 156.456H423.705V174.456H450.365V156.456ZM432.454 167.566L443.001 123.841L425.503 119.62L414.956 163.345L432.454 167.566ZM434.252 112.73H427.733V130.73H434.252V112.73ZM419.026 119.455L407.6 163.18L425.015 167.731L436.441 124.006L419.026 119.455ZM416.308 156.456H388.695V174.456H416.308V156.456ZM504.784 99.5378L495.99 97.626L493.617 108.538H504.784V99.5378ZM511.449 99.5378V108.538H518.493L520.186 101.7L511.449 99.5378ZM516.869 77.6384L525.606 79.8006L528.368 68.6384H516.869V77.6384ZM509.545 77.6384V68.6384H502.291L500.75 75.7266L509.545 77.6384ZM460.18 165.309L451.464 163.066L448.594 174.217L460.107 174.309L460.18 165.309ZM484.569 70.5339L475.971 67.8747L475.907 68.0814L475.853 68.2909L484.569 70.5339ZM489.843 59.4744L482.841 53.8193L482.789 53.8836L482.739 53.9489L489.843 59.4744ZM540.233 56.4714L537.953 65.1778L537.98 65.1848L538.007 65.1917L540.233 56.4714ZM545.214 59.4744L553.028 55.0091L552.788 54.5883L552.503 54.1958L545.214 59.4744ZM546.459 66.6521L555.408 67.6109L555.436 67.3461L555.449 67.0802L546.459 66.6521ZM544.042 77.6384L535.392 75.1538L535.348 75.3074L535.309 75.4625L544.042 77.6384ZM522.143 165.529V174.529H529.175L530.876 167.705L522.143 165.529ZM494.457 165.529L485.752 163.244L482.789 174.529H494.457V165.529ZM505.956 121.73L514.661 124.016L517.624 112.73H505.956V121.73ZM498.412 121.73V112.73H491.368L489.676 119.568L498.412 121.73ZM487.572 165.529L487.5 174.529L494.602 174.586L496.309 167.691L487.572 165.529ZM504.784 108.538H511.449V90.5378H504.784V108.538ZM520.186 101.7L525.606 79.8006L508.133 75.4762L502.713 97.3757L520.186 101.7ZM516.869 68.6384H509.545V86.6384H516.869V68.6384ZM500.75 75.7266L495.99 97.626L513.579 101.45L518.34 79.5503L500.75 75.7266ZM468.896 167.552L493.285 72.7769L475.853 68.2909L451.464 163.066L468.896 167.552ZM493.168 73.1932C494.452 69.0399 495.803 66.4701 496.947 64.9998L482.739 53.9489C479.781 57.752 477.616 62.5553 475.971 67.8747L493.168 73.1932ZM496.844 65.1294C496.423 65.6508 496.213 65.5038 497.126 65.2243C498.064 64.9375 499.705 64.6658 502.294 64.6658V46.6658C495.605 46.6658 487.647 47.87 482.841 53.8193L496.844 65.1294ZM502.294 64.6658H531.518V46.6658H502.294V64.6658ZM531.518 64.6658C535.003 64.6658 537.008 64.9303 537.953 65.1778L542.514 47.7651C539.357 46.9383 535.552 46.6658 531.518 46.6658V64.6658ZM538.007 65.1917C538.484 65.3135 538.621 65.4101 538.553 65.369C538.514 65.3457 538.424 65.2864 538.305 65.1798C538.185 65.0717 538.052 64.9295 537.924 64.753L552.503 54.1958C549.868 50.5561 546.069 48.6728 542.46 47.7512L538.007 65.1917ZM537.4 63.9396C537.264 63.703 537.321 63.6901 537.39 64.0888C537.46 64.4904 537.519 65.1776 537.469 66.224L555.449 67.0802C555.634 63.1808 555.207 58.8222 553.028 55.0091L537.4 63.9396ZM537.51 65.6933C537.298 67.6696 536.655 70.7566 535.392 75.1538L552.692 80.1231C554.066 75.3406 555.034 71.1033 555.408 67.6109L537.51 65.6933ZM535.309 75.4625L513.41 163.353L530.876 167.705L552.775 79.8144L535.309 75.4625ZM522.143 156.529H494.457V174.529H522.143V156.529ZM503.162 167.814L514.661 124.016L497.251 119.445L485.752 163.244L503.162 167.814ZM505.956 112.73H498.412V130.73H505.956V112.73ZM489.676 119.568L478.836 163.367L496.309 167.691L507.149 123.892L489.676 119.568ZM487.644 156.529L460.252 156.31L460.107 174.309L487.5 174.529L487.644 156.529ZM535.912 152.052L527.177 149.884L527.147 150.006L527.12 150.129L535.912 152.052ZM556.566 68.8494L547.961 66.2149L547.89 66.4462L547.832 66.681L556.566 68.8494ZM558.837 62.8435L566.935 66.77L567.224 66.1739L567.423 65.5419L558.837 62.8435ZM561.4 58.8152L567.162 65.7292L567.549 65.4064L567.898 65.0423L561.4 58.8152ZM566.308 56.6179L567.524 65.5354L567.906 65.4832L568.283 65.3984L566.308 56.6179ZM574.438 55.739V46.739H574.247L574.058 46.747L574.438 55.739ZM616.625 60.28L623.606 54.6002L623.564 54.5481L623.521 54.4965L616.625 60.28ZM617.724 74.2693L608.992 72.0865L608.988 72.1043L608.984 72.1221L617.724 74.2693ZM611.498 99.6111V108.611H618.555L620.238 101.758L611.498 99.6111ZM584.472 99.6111L575.702 97.5873L573.158 108.611H584.472V99.6111ZM589.525 77.7117L598.295 79.7354L600.839 68.7117H589.525V77.7117ZM582.274 77.7117V68.7117H575.279L573.553 75.4902L582.274 77.7117ZM565.429 143.849L556.707 141.628L553.849 152.849H565.429V143.849ZM572.68 143.849V152.849H579.584L581.372 146.181L572.68 143.849ZM578.612 121.73V112.73H571.708L569.92 119.399L578.612 121.73ZM605.785 121.73L614.487 124.026L617.467 112.73H605.785V121.73ZM597.729 152.272L589.026 149.977L589.006 150.053L588.987 150.13L597.729 152.272ZM592.895 162.746L598.864 169.481L599.067 169.301L599.258 169.11L592.895 162.746ZM582.274 165.383L582.542 156.387L582.408 156.383H582.274V165.383ZM550.194 165.383V156.383H550.014L549.835 156.39L550.194 165.383ZM541.771 165.383L540.72 174.321L540.909 174.343L541.098 174.357L541.771 165.383ZM536.571 163.625L530.364 170.142L530.456 170.23L530.551 170.314L536.571 163.625ZM535.033 159.523H544.033V159.287L544.021 159.05L535.033 159.523ZM544.647 154.221L565.301 71.0177L547.832 66.681L527.177 149.884L544.647 154.221ZM565.172 71.4838C565.818 69.3746 566.418 67.837 566.935 66.77L550.739 58.917C549.693 61.0727 548.78 63.539 547.961 66.2149L565.172 71.4838ZM567.423 65.5419C567.484 65.3464 567.518 65.3162 567.474 65.3866C567.451 65.4213 567.414 65.4743 567.359 65.5378C567.303 65.6015 567.237 65.6669 567.162 65.7292L555.639 51.9012C552.923 54.164 551.214 57.0814 550.251 60.1451L567.423 65.5419ZM567.898 65.0423C567.577 65.3776 567.278 65.5425 567.147 65.6011C567.039 65.6499 567.128 65.5894 567.524 65.5354L565.092 47.7004C561.605 48.1759 557.841 49.5221 554.902 52.588L567.898 65.0423ZM568.283 65.3984C569.467 65.1321 571.559 64.8687 574.817 64.731L574.058 46.747C570.382 46.9023 567.055 47.2248 564.332 47.8374L568.283 65.3984ZM574.438 64.739H602.489V46.739H574.438V64.739ZM602.489 64.739C605.334 64.739 607.24 65.0593 608.434 65.443C609.58 65.8112 609.796 66.1426 609.729 66.0635L623.521 54.4965C618.349 48.3306 610.152 46.739 602.489 46.739V64.739ZM609.644 65.9598C609.394 65.6536 609.608 65.6589 609.685 66.6426C609.767 67.6916 609.653 69.444 608.992 72.0865L626.455 76.4521C628.233 69.3379 628.759 60.9336 623.606 54.6002L609.644 65.9598ZM608.984 72.1221L602.758 97.4639L620.238 101.758L626.464 76.4164L608.984 72.1221ZM611.498 90.6111H584.472V108.611H611.498V90.6111ZM593.241 101.635L598.295 79.7354L580.756 75.6879L575.702 97.5873L593.241 101.635ZM589.525 68.7117H582.274V86.7117H589.525V68.7117ZM573.553 75.4902L556.707 141.628L574.15 146.071L590.996 79.9331L573.553 75.4902ZM565.429 152.849H572.68V134.849H565.429V152.849ZM581.372 146.181L587.305 124.062L569.92 119.399L563.987 141.518L581.372 146.181ZM578.612 130.73H605.785V112.73H578.612V130.73ZM597.083 119.435L589.026 149.977L606.431 154.568L614.487 124.026L597.083 119.435ZM588.987 150.13C587.885 154.625 586.763 156.15 586.531 156.382L599.258 169.11C603.03 165.338 605.13 159.88 606.47 154.415L588.987 150.13ZM586.925 156.011C587.192 155.774 587.192 155.917 586.46 156.098C585.71 156.285 584.455 156.443 582.542 156.387L582.007 174.379C587.708 174.548 594.126 173.68 598.864 169.481L586.925 156.011ZM582.274 156.383H550.194V174.383H582.274V156.383ZM549.835 156.39C546.276 156.532 543.877 156.515 542.445 156.408L541.098 174.357C543.572 174.543 546.789 174.526 550.554 174.375L549.835 156.39ZM542.823 156.444C542.422 156.397 542.111 156.345 541.879 156.297C541.645 156.248 541.522 156.209 541.486 156.197C541.448 156.184 541.542 156.213 541.725 156.312C541.909 156.411 542.225 156.605 542.592 156.935L530.551 170.314C533.692 173.142 537.809 173.978 540.72 174.321L542.823 156.444ZM542.778 157.108C543.281 157.586 543.639 158.159 543.845 158.707C544.036 159.216 544.033 159.537 544.033 159.523H526.033C526.033 163.11 527.143 167.074 530.364 170.142L542.778 157.108ZM544.021 159.05C543.985 158.373 544.088 156.793 544.704 153.976L527.12 150.129C526.369 153.562 525.886 156.962 526.046 159.996L544.021 159.05ZM604.394 165.309L595.652 163.169L592.925 174.309H604.394V165.309ZM631.127 56.1052V47.1052H624.064L622.385 53.9652L631.127 56.1052ZM658.373 56.1052L667.076 58.3967L670.049 47.1052H658.373V56.1052ZM650.756 85.0359L642.052 82.7444L658.542 89.5499L650.756 85.0359ZM667.528 56.1052V47.1052H662.343L659.742 51.5912L667.528 56.1052ZM694.335 56.1052L702.13 60.6042L709.921 47.1052H694.335V56.1052ZM662.841 110.671L655.046 106.172L653.645 108.599L653.87 111.392L662.841 110.671ZM667.235 165.309V174.309H676.988L676.206 164.588L667.235 165.309ZM640.062 165.309L631.068 165.628L631.375 174.309H640.062V165.309ZM638.964 134.255L647.958 133.936L630.223 132.111L638.964 134.255ZM631.347 165.309V174.309H638.406L640.088 167.453L631.347 165.309ZM613.135 167.449L639.869 58.2453L622.385 53.9652L595.652 163.169L613.135 167.449ZM631.127 65.1052H658.373V47.1052H631.127V65.1052ZM649.67 53.8137L642.052 82.7444L659.459 87.3274L667.076 58.3967L649.67 53.8137ZM658.542 89.5499L675.314 60.6192L659.742 51.5912L642.97 80.5219L658.542 89.5499ZM667.528 65.1052H694.335V47.1052H667.528V65.1052ZM686.54 51.6062L655.046 106.172L670.636 115.17L702.13 60.6042L686.54 51.6062ZM653.87 111.392L658.264 166.031L676.206 164.588L671.812 109.949L653.87 111.392ZM667.235 156.309H640.062V174.309H667.235V156.309ZM649.057 164.991L647.958 133.936L629.969 134.573L631.068 165.628L649.057 164.991ZM630.223 132.111L622.606 163.165L640.088 167.453L647.705 136.399L630.223 132.111ZM631.347 156.309H604.394V174.309H631.347V156.309ZM699.022 72.1453L707.765 74.2823L707.797 74.1516L707.825 74.0199L699.022 72.1453ZM704.442 59.7673L711.347 65.5401L711.378 65.5035L711.408 65.4665L704.442 59.7673ZM716.747 55.8855L716.601 64.8843L716.674 64.8855H716.747V55.8855ZM748.461 55.8855V64.8855H748.573L748.686 64.8827L748.461 55.8855ZM757.543 56.9841L761.735 49.0199L761.273 48.7769L760.787 48.5889L757.543 56.9841ZM761.352 60.866L769.668 57.4248L769.652 57.3878L769.637 57.351L761.352 60.866ZM761.938 65.5535L770.771 67.2771L770.839 66.9284L770.879 66.5754L761.938 65.5535ZM760.766 70.9001L752.034 68.7173L752.016 68.7901L751.999 68.8631L760.766 70.9001ZM756.664 88.5515V97.5515H763.813L765.43 90.5885L756.664 88.5515ZM730.297 88.5515L721.545 86.4512L718.881 97.5515H730.297V88.5515ZM732.934 77.5652L741.685 79.6655L744.349 68.5652H732.934V77.5652ZM723.559 77.5652V68.5652H716.417L714.794 75.5201L723.559 77.5652ZM718.432 99.5378L709.667 97.4928L707.09 108.538H718.432V99.5378ZM753.954 99.5378L762.709 101.622L765.349 90.5378H753.954V99.5378ZM741.869 150.295L750.619 152.401L750.622 152.39L750.624 152.379L741.869 150.295ZM736.742 161.867L742.777 168.544L743.159 168.199L743.499 167.813L736.742 161.867ZM682.396 160.549L689.424 154.926L689.407 154.904L689.389 154.882L682.396 160.549ZM680.126 149.196L671.413 146.941L671.312 147.333L671.246 147.731L680.126 149.196ZM684.447 132.497V123.497H677.48L675.734 130.242L684.447 132.497ZM710.521 132.497L719.242 134.721L722.105 123.497H710.521V132.497ZM707.738 143.41L699.017 141.186L696.155 152.41H707.738V143.41ZM717.333 143.41V152.41H724.464L726.095 145.468L717.333 143.41ZM722.46 121.584L731.221 123.642L733.819 112.584H722.46V121.584ZM686.938 121.584L678.195 119.447L675.473 130.584H686.938V121.584ZM707.825 74.0199C708.755 69.6534 710.092 67.0417 711.347 65.5401L697.538 53.9945C693.813 58.45 691.536 64.0903 690.22 70.2706L707.825 74.0199ZM711.408 65.4665C711.159 65.7709 711.092 65.6124 711.874 65.3657C712.717 65.1 714.212 64.8455 716.601 64.8843L716.893 46.8867C710.078 46.7759 702.356 48.105 697.477 54.0682L711.408 65.4665ZM716.747 64.8855H748.461V46.8855H716.747V64.8855ZM748.686 64.8827C752.118 64.7969 753.768 65.1739 754.299 65.3793L760.787 48.5889C757.021 47.1342 752.616 46.7788 748.236 46.8883L748.686 64.8827ZM753.351 64.9484C753.58 65.0687 753.574 65.1042 753.462 64.9901C753.407 64.9333 753.335 64.8495 753.26 64.7382C753.185 64.6264 753.119 64.505 753.066 64.3809L769.637 57.351C767.99 53.4694 765.049 50.7641 761.735 49.0199L753.351 64.9484ZM753.035 64.3071C753.025 64.2827 753.018 64.259 753.012 64.2389C753.007 64.2189 753.006 64.2102 753.007 64.2162C753.008 64.2257 753.02 64.3229 752.996 64.5315L770.879 66.5754C771.226 63.5387 770.906 60.4173 769.668 57.4248L753.035 64.3071ZM753.104 63.8299C752.736 65.7162 752.378 67.3407 752.034 68.7173L769.497 73.083C769.934 71.3346 770.358 69.3946 770.771 67.2771L753.104 63.8299ZM751.999 68.8631L747.898 86.5145L765.43 90.5885L769.532 72.9372L751.999 68.8631ZM756.664 79.5515H730.297V97.5515H756.664V79.5515ZM739.048 90.6519L741.685 79.6655L724.182 75.4648L721.545 86.4512L739.048 90.6519ZM732.934 68.5652H723.559V86.5652H732.934V68.5652ZM714.794 75.5201L709.667 97.4928L727.196 101.583L732.323 79.6103L714.794 75.5201ZM718.432 108.538H753.954V90.5378H718.432V108.538ZM745.199 97.4533L733.114 148.21L750.624 152.379L762.709 101.622L745.199 97.4533ZM733.119 148.188C731.991 152.875 730.725 155.081 729.986 155.921L743.499 167.813C747.056 163.77 749.208 158.261 750.619 152.401L733.119 148.188ZM730.707 155.19C730.624 155.265 729.237 156.309 724.364 156.309V174.309C730.917 174.309 737.782 173.059 742.777 168.544L730.707 155.19ZM724.364 156.309H693.163V174.309H724.364V156.309ZM693.163 156.309C690.823 156.309 690 155.647 689.424 154.926L675.369 166.171C679.871 171.798 686.226 174.309 693.163 174.309V156.309ZM689.389 154.882C689.186 154.632 688.503 153.71 689.006 150.661L671.246 147.731C670.186 154.155 671.017 160.801 675.404 166.215L689.389 154.882ZM688.839 151.451L693.16 134.752L675.734 130.242L671.413 146.941L688.839 151.451ZM684.447 141.497H710.521V123.497H684.447V141.497ZM701.801 130.273L699.017 141.186L716.459 145.634L719.242 134.721L701.801 130.273ZM707.738 152.41H717.333V134.41H707.738V152.41ZM726.095 145.468L731.221 123.642L713.698 119.526L708.571 141.352L726.095 145.468ZM722.46 112.584H686.938V130.584H722.46V112.584ZM695.68 123.721L707.765 74.2823L690.28 70.0082L678.195 119.447L695.68 123.721Z" fill="#05034A" mask="url(#path-3-outside-2_1252_557)"/>
<path d="M806.929 61.2581C802.055 50.4072 793.329 41.691 782.439 36.8381C793.325 32.0255 802.065 23.326 806.93 12.4694C811.685 23.3427 820.384 32.0636 831.258 36.8411C820.377 41.6532 811.69 50.3899 806.929 61.2581Z" fill="white" stroke="#05034A" stroke-width="7" stroke-linejoin="round"/>
<path d="M30.4353 208.924C26.4731 200.839 19.9058 194.281 11.7934 190.335C19.9032 186.418 26.479 179.873 30.4363 171.787C34.3138 179.884 40.8549 186.441 48.9511 190.337C40.8502 194.258 34.3164 200.828 30.4353 208.924Z" fill="white" stroke="#05034A" stroke-width="7" stroke-linejoin="round"/>
</svg>
