<svg width="315" height="212" viewBox="0 0 315 212" fill="none" xmlns="http://www.w3.org/2000/svg">
<path d="M48.2611 152.722C45.4134 155.447 11.6853 138.041 2.79713 105.203C1.0343 98.6865 -3.78577 80.8443 5.6941 70.9845C20.3269 55.7829 60.9954 67.9199 64.6937 83.3395C66.6045 91.2977 59.2326 102.429 52.1196 103.301C45.2655 104.137 39.7674 95.307 34.7131 97.5963C31.9641 98.844 31.1751 102.538 30.8423 104.246C27.181 122.876 51.1087 149.984 48.2488 152.722H48.2611Z" fill="url(#paint0_linear_38_729)"/>
<path d="M94.9253 49.966C90.2914 49.3578 87.301 40.7722 88.1413 34.0587C89.0063 27.1186 94.3075 19.5227 98.8054 20.0235C103.551 20.5601 107.27 30.0997 105.589 37.803C104.292 43.7772 99.3368 50.5384 94.9253 49.966Z" fill="#6F1E5F"/>
<path d="M217.415 23.0196C213.315 22.5671 208.172 30.0221 208.004 37.0366C207.825 44.4916 213.243 52.4231 217.415 51.9824C221.467 51.5537 224.116 43.2531 223.996 37.0366C223.888 31.3917 221.419 23.4603 217.415 23.0196Z" fill="#6F1E5F"/>
<path d="M282.16 118.668C277.765 121.463 269.122 125.072 264.922 121.524C261.259 118.425 261.601 110.393 264.922 105.314C269.085 98.9344 275.775 100.453 279.291 93.8673C281.562 89.6265 281.562 83.7817 279.291 82.4207C276.349 80.6588 272.039 87.9374 262.053 90.0518C256.925 91.1332 248.245 91.2912 245.767 87.1962C242.385 81.5944 250.614 68.0943 262.053 62.4075C271.368 57.7657 284.724 57.3768 292.708 64.3153C307.138 76.8554 298.324 108.352 282.172 118.656L282.16 118.668Z" fill="url(#paint1_linear_38_729)"/>
<path d="M162.255 15.8526C155.56 16.2326 148.23 16.6615 140.204 12.9725C131.774 9.0873 130.113 4.12362 121.036 1.42729C113.572 -0.791046 104.727 -0.386599 103.786 2.38326C102.968 4.78544 108.624 7.22439 114.329 13.9284C115.575 15.3992 125.642 27.4468 124.872 38.9307C124.322 47.0932 118.617 50.4146 98.9852 68.7374C84.9972 81.8023 77.9971 88.3347 73.0982 94.7079C65.3529 104.77 54.8466 118.436 54.8833 137.016C54.8955 143.18 54.9199 156.27 63.5082 164.898C67.0999 168.514 69.5798 168.71 70.2151 171.627C72.1209 180.292 52.0857 186.554 52.0002 199.509C51.9758 204.044 54.3824 208.983 57.7542 210.086C62.763 211.741 70.4472 205.086 74.0511 198.541C76.3845 194.312 76.5311 191.003 80.758 185.071C83.3235 181.493 84.875 180.439 86.512 180.267C90.2381 179.85 93.4144 184.054 94.184 185.071C98.4843 190.771 95.7233 194.57 98.9729 201.421C99.8036 203.161 104.226 211.851 111.434 211.998C116.479 212.096 122.209 208.652 122.942 204.301C123.834 198.958 117.005 193.234 112.399 190.832C108.648 188.883 106.095 188.993 103.774 186.027C103.566 185.77 100.488 181.726 101.856 178.331C102.711 176.21 104.983 175.132 111.446 173.526C124.31 170.327 127.951 171.467 129.661 168.722C132.007 164.947 128.745 156.968 123.907 155.253C120.951 154.199 118.715 155.976 111.446 159.101C102.369 162.998 97.4581 165.119 93.2311 164.874C84.5085 164.371 76.641 153.721 74.0633 145.644C67.2587 124.355 88.4056 93.5558 113.364 79.2898C139.752 64.2149 178.588 62.9403 200.59 67.7446C201.775 68.002 214.236 70.7473 214.969 68.7006C215.556 67.046 207.615 64.6438 201.543 57.1554C194.201 48.0982 193.945 36.9452 193.871 34.0773C193.48 17.3111 203.755 8.48676 200.578 5.22666C196.925 1.48857 184.709 14.5167 162.23 15.8036L162.255 15.8526Z" fill="url(#paint2_linear_38_729)"/>
<path d="M161.49 143.511C142.249 141.454 99.9108 136.923 97.1446 120.325C94.4641 104.269 129.531 81.1209 162.457 76.8483C185.799 73.8193 224.416 78.1658 238.332 101.967C247.659 117.924 243.461 138.499 258.504 146.404C260.572 147.488 264.049 148.091 270.989 149.298C294.844 153.447 303.559 149.138 310.364 156.058C314.183 159.949 316.227 166.179 314.208 169.59C310.915 175.106 297.635 171.941 295.958 171.523C287.06 169.306 284.575 162.485 281.552 163.79C278.32 165.182 277.023 174.047 280.597 180.216C285.187 188.133 294.673 186.2 296.925 192.775C298.565 197.589 295.432 204.288 290.205 207.267C284.195 210.69 276.337 208.683 272.922 204.374C268.651 198.993 273.902 193.329 270.046 183.122C269.716 182.26 265.615 171.72 259.483 171.523C253.828 171.35 249.177 180.031 246.998 184.082C242.298 192.836 243.865 197.06 239.312 200.507C235.419 203.45 229.091 204.275 225.86 201.468C221.686 197.848 223.999 189.315 224.905 186.015C229.936 167.496 244.33 166.45 246.998 153.164C250.046 137.97 235.089 119.858 229.715 121.286C227.39 121.901 227.733 125.952 225.872 129.979C217.414 148.362 173.142 144.742 161.527 143.511H161.49Z" fill="url(#paint3_linear_38_729)"/>
<defs>
<linearGradient id="paint0_linear_38_729" x1="-0.00121805" y1="108.498" x2="65.0019" y2="108.498" gradientUnits="userSpaceOnUse">
<stop stop-color="#59C6D7"/>
<stop offset="0.12" stop-color="#62C7D3"/>
<stop offset="0.32" stop-color="#7DCBC8"/>
<stop offset="0.58" stop-color="#A9D1B7"/>
<stop offset="0.89" stop-color="#E5DAA0"/>
<stop offset="1" stop-color="#FDDE97"/>
</linearGradient>
<linearGradient id="paint1_linear_38_729" x1="244.986" y1="91.0117" x2="299.984" y2="91.0117" gradientUnits="userSpaceOnUse">
<stop stop-color="#59C6D7"/>
<stop offset="0.12" stop-color="#62C7D3"/>
<stop offset="0.32" stop-color="#7DCBC8"/>
<stop offset="0.58" stop-color="#A9D1B7"/>
<stop offset="0.89" stop-color="#E5DAA0"/>
<stop offset="1" stop-color="#FDDE97"/>
</linearGradient>
<linearGradient id="paint2_linear_38_729" x1="52.0124" y1="106.02" x2="215.006" y2="106.02" gradientUnits="userSpaceOnUse">
<stop stop-color="#BF3B94"/>
<stop offset="0.3" stop-color="#C8428C"/>
<stop offset="0.8" stop-color="#E35579"/>
<stop offset="1" stop-color="#F05E71"/>
</linearGradient>
<linearGradient id="paint3_linear_38_729" x1="97.01" y1="142.501" x2="314.991" y2="142.501" gradientUnits="userSpaceOnUse">
<stop stop-color="#24AE79"/>
<stop offset="0.1" stop-color="#2AAF79"/>
<stop offset="0.24" stop-color="#3BB37C"/>
<stop offset="0.4" stop-color="#58B980"/>
<stop offset="0.58" stop-color="#81C285"/>
<stop offset="0.77" stop-color="#B5CE8D"/>
<stop offset="0.97" stop-color="#F3DB95"/>
<stop offset="1" stop-color="#FDDE97"/>
</linearGradient>
</defs>
</svg>
