<svg width="1347" height="606" viewBox="0 0 1347 606" fill="none" xmlns="http://www.w3.org/2000/svg">
<path d="M1242.84 457.806C1274.04 466.472 1312.81 497.8 1335.38 605.641L1346.52 588.499C1326.94 552.641 1298.2 503.824 1259.08 449.574C1214.77 388.159 1059.03 183.851 843.077 79.9073C495.032 -87.645 97.5058 56.7661 0.000264111 94.9373C44.4321 150.726 88.9118 170.242 128.026 173.437C155.089 175.68 168.74 169.213 196.174 171.318C250.263 175.517 292.032 208.031 323.708 246.491L408.614 173.198C389.993 217.669 373.363 265.84 385.996 273.977C391.83 277.765 399.062 269.855 415.534 265.506C452.133 255.782 484.931 276.452 512.144 293.656C552.539 319.171 552.826 335.157 569.348 333.139C609.915 328.209 641.809 227.914 642.719 228.268C643.197 228.428 632.016 255.814 594.83 343.284L631.144 357.298C631.144 357.298 651.418 309.543 655.194 311.982C658.97 314.42 645.75 363.607 645.75 363.607L708.131 345.699L725.618 302.278L738.957 322.868L717.202 360.524L803.148 409.22L821.643 372.496L820.567 411.237L856.881 425.252L856.948 379.813L882.643 414.341L903.813 418.753C906.307 402.235 910.307 381.166 915.228 380.555C921.343 379.784 921.445 411.717 933.563 434.664C944.711 455.805 971.539 479.632 1043.47 483.437C1046.16 473.561 1050.09 458.525 1053.96 440.037C1058.7 417.451 1060.25 404.899 1062.52 404.601C1066.81 404.124 1056.85 450.015 1075.79 470.63C1105.91 503.462 1179.82 440.246 1242.89 457.774L1242.84 457.806Z" fill="#24AF79" fill-opacity="0.5"/>
</svg>
