<svg width="1307" height="665" viewBox="0 0 1307 665" fill="none" xmlns="http://www.w3.org/2000/svg">
<path d="M1211.43 509.984C1241.83 520.639 1278.52 554.499 1294.86 664.373L1306.85 647.814C1289.47 610.525 1263.69 559.684 1227.99 502.767C1187.51 438.275 1044.6 223.278 836.413 105.387C500.889 -84.5199 98.8192 36.1396 0.0607493 68.5333C40.9685 127.371 83.9879 149.725 122.567 155.352C149.299 159.261 163.174 153.633 190.23 157.436C243.611 165 283.163 200.263 312.408 240.876L400.671 172.434C379.728 215.992 360.5 263.444 372.579 272.41C378.169 276.556 385.726 269.101 402.355 265.7C439.187 258.178 470.52 281.003 496.487 299.959C535.106 328.098 534.478 344.17 550.994 343.152C591.499 340.695 628.705 241.816 629.569 242.202C630.027 242.439 617.407 269.222 575.673 354.923L610.883 371.274C610.883 371.274 633.648 324.499 637.245 327.188C640.843 329.878 624.985 378.499 624.985 378.499L687.781 364.345L707.54 321.748L719.623 343.287L695.937 379.816L778.368 434.046L798.738 398.239L795.502 437.137L830.711 453.488L833.336 407.8L856.844 444.121L877.596 449.824C881.01 433.341 886.149 412.464 891.08 412.095C897.21 411.688 895.507 443.836 906.201 467.664C916.063 489.59 941.294 515.229 1012.42 523.463C1015.68 513.683 1020.34 498.812 1025.26 480.46C1031.25 458.045 1033.46 445.524 1035.74 445.348C1040.04 445.112 1027.56 490.66 1045.2 512.575C1073.19 547.411 1149.98 488.445 1211.5 509.996L1211.43 509.984Z" fill="#ABD7A2" fill-opacity="0.5"/>
</svg>
