<svg width="536" height="720" viewBox="0 0 536 720" fill="none" xmlns="http://www.w3.org/2000/svg">
<g opacity="0.5">
<path d="M140.364 874.064C136.229 791.108 132.095 708.152 127.96 625.149C126.675 599.047 125.598 571.332 134.631 548.315C144.29 523.684 163.504 509.4 181.605 496.444C208.845 476.939 236.258 456.437 259.675 428.864C281.39 403.332 296.191 374.477 312 342.301C324.021 317.861 337.016 294.274 350.879 271.732C356.855 262.003 363.074 249.189 370.926 242.26C378.118 235.901 386.457 230.396 393.927 224.227C414.947 206.999 436.314 190.674 458.064 175.203C479.814 159.732 502.12 148.674 522.584 132.491C530.054 126.606 532.278 121.101 530.158 109.474C528.247 98.9859 523.487 80.3825 517.963 72.8367C505.837 56.3214 489.195 79.8604 478.737 88.2604C470.954 94.5248 462.963 100.267 454.868 105.725C423.39 127.128 390.244 144.498 360.92 171.406C317.212 211.555 284.899 270.45 253.56 328.254C241.226 350.986 228.788 373.908 213.222 392.559C200.541 407.698 173.232 435.461 155.582 423.359C136.751 410.403 135.465 378.464 136.368 353.501C137.932 309.793 139.982 263.949 156.833 226.742C175.178 186.26 207.872 163.006 233.86 131.257C269.716 87.4537 293.273 25.2841 298.728 -40.0176C273.052 -21.8413 244.318 -11.7803 215.411 -10.8311C226.112 30.5045 215.932 77.6774 196.962 113.033C177.992 148.389 151.308 174.396 125.111 199.738C115.452 209.088 103.674 218.864 92.5561 213.311C85.1556 209.61 80.3609 200.071 76.0526 191.054C51.4885 139.657 26.8897 88.213 2.32558 36.8163C-5.38762 20.6333 -13.622 3.83328 -26.0604 -5.3735C-34.9549 -11.9227 -46.9416 -13.4413 -56.0445 -6.79723C-70.0464 3.45362 -58.7198 14.3214 -51.5625 25.996C-35.9624 51.5282 -20.6403 77.4401 -6.42994 104.538C21.7823 158.26 45.8252 217.393 55.8663 282.647C70.8062 379.65 53.8511 479.691 40.4051 577.074C29.6692 654.715 21.1221 732.878 14.8335 811.42C13.9649 822.43 7.29399 854.654 12.1582 863.908C17.0223 873.162 42.872 871.122 50.6199 872.023C80.3609 875.393 110.276 875.772 140.051 873.115" fill="#59C6D7"/>
<path d="M145.577 874.064C143.388 830.213 141.199 786.41 139.01 742.559C136.821 698.708 134.215 656.233 132.617 613C131.922 594.444 131.853 574.891 137.203 557.427C142.172 541.101 151.97 528.952 162.567 519.461C173.164 509.969 185.741 501.664 197.415 493.074C210.34 483.583 223.091 473.664 235.321 462.654C259.051 441.25 279.342 415.528 296.54 384.681C313.738 353.833 329.477 318.952 347.892 287.915C352.2 280.654 356.578 273.488 360.851 266.179C364.777 259.44 368.877 252.654 374.228 247.955C380.378 242.593 386.909 238.084 393.233 233.149C399.904 227.928 406.47 222.423 413.141 217.155C439.72 196.179 466.717 177.006 494.651 159.637C501.426 155.413 508.201 151.142 514.803 146.491C520.362 142.599 526.754 138.803 531.271 132.728C539.401 121.766 535.301 105.772 531.862 93.0537C528.422 80.3351 523.176 63.6775 512.023 60.5927C501.495 57.6978 491.698 67.3317 483.602 75.2571C461.088 97.23 434.37 111.183 409.458 127.223C383.296 144.071 358.211 163.006 335.94 188.491C313.669 213.976 296.088 241.501 278.855 271.257C261.24 301.63 245.536 334.233 226.948 363.515C218.956 376.139 210.201 387.908 200.368 397.827C191.682 406.606 181.989 415.149 171.287 418.423C161.246 421.508 152.421 415.339 147.244 403.284C142.068 391.23 141.303 376.233 141.373 362.471C141.616 326.071 143.527 287.155 153.151 252.939C162.636 219.196 182.128 195.372 202.696 173.969C223.265 152.566 243.694 131.874 259.92 104.064C276.145 76.2537 288.479 44.8368 296.158 11.0469C299.945 -5.56325 302.446 -22.6005 303.94 -39.9226C304.427 -45.6649 299.215 -48.2751 296.088 -46.0921C271.073 -28.5802 243.486 -18.9463 215.412 -17.8548C212.216 -17.7124 209.263 -13.3463 210.375 -8.83782C224.029 45.5961 202.001 101.027 173.824 138.376C159.023 157.976 142.276 174.538 125.495 190.769C117.816 198.22 108.192 209.04 98.1163 207.854C88.0405 206.667 82.5509 191.861 77.652 181.61C64.4145 153.942 51.177 126.227 37.9395 98.5588C25.4316 72.4096 13.4796 45.5012 0.207378 20.0164C-10.598 -0.722571 -25.7117 -20.37 -45.8286 -17.9497C-53.785 -17.0005 -65.1463 -11.8277 -67.5784 0.0367546C-69.7325 10.5724 -63.1659 19.352 -58.4407 26.3757C-43.188 49.1554 -29.2556 74.213 -15.8791 99.0808C-3.44075 122.145 8.23327 146.016 18.448 171.027C40.0241 223.705 53.7828 280.749 56.0064 341.305C58.3343 404.898 50.3084 468.017 41.6224 530.233C32.9363 592.45 24.2156 657.8 17.6837 722.105C14.6609 751.956 12.611 783.278 9.44931 812.322C8.40699 821.813 6.70453 831.162 5.80118 840.749C5.00207 849.054 3.9945 859.4 7.26044 867.04C10.2484 874.064 16.8846 876.057 22.3046 877.149C29.323 878.573 36.4107 878.81 43.4985 879C63.9281 879.569 84.2187 882.322 104.718 882.132C116.496 882.037 128.239 881.42 139.983 880.423C146.654 879.854 146.689 865.617 139.983 866.186C116.218 868.227 92.3835 868.464 68.5838 866.756C60.2105 866.139 51.8719 865 43.4985 864.762C36.7582 864.573 29.8441 864.62 23.208 863.006C17.8574 861.678 15.738 861.44 15.5295 854.511C15.2516 844.783 16.8846 834.912 18.2396 825.42C22.0267 798.891 23.2775 771.556 25.8833 744.742C32.033 680.959 39.9199 617.556 48.8144 554.389C57.4657 493.074 66.3949 431.189 66.8118 368.545C67.2288 308.464 58.1606 250.566 39.5377 196.132C21.2971 142.837 -4.17038 94.9046 -31.1318 49.2503C-37.7679 37.9554 -44.3346 26.4707 -51.5266 15.7927C-53.1943 13.3249 -57.1899 8.81642 -57.5026 5.11472C-57.85 0.843533 -52.2562 -1.52935 -49.8241 -2.4785C-29.9853 -10.4514 -14.9758 14.6063 -5.35168 34.3486C20.9149 87.9758 46.0349 142.599 72.1277 196.369C77.0961 206.62 82.8289 216.776 91.7234 220.715C101.452 224.986 111.632 219.718 120.005 212.932C128.969 205.671 137.342 196.749 145.716 188.349C153.672 180.376 161.49 172.166 168.994 163.433C199.013 128.552 224.793 81.0944 224.828 24.9995C224.828 12.2334 223.334 -0.485282 220.311 -12.5395L215.273 -3.52257C245.223 -4.70901 274.547 -15.0073 301.196 -33.7056L293.344 -39.8751C287.194 31.4537 259.399 95.1419 218.505 139.562C198.562 161.203 176.499 180.281 160.378 207.664C143.04 237.135 136.092 273.013 133.208 309.983C131.818 327.637 130.845 345.576 130.776 363.325C130.706 377.8 131.818 392.701 136.335 405.942C140.852 419.183 148.982 429.908 159.196 432.803C169.411 435.698 180.564 430.383 189.806 423.786C211.799 408.125 229.38 382.83 244.459 356.396C261.796 325.976 277.882 294.322 295.915 264.708C313.947 235.094 333.369 207.332 356.057 184.742C378.745 162.152 406.575 144.545 433.119 127.793C446.53 119.298 459.907 110.708 472.866 101.027C478.008 97.1825 482.977 93.1961 487.772 88.5453C492.045 84.369 496.353 79.908 501.183 76.8707C505.109 74.4029 509.591 72.9791 513.239 76.9656C517.2 81.2368 519.423 89.1622 521.195 95.3317C522.967 101.501 525.26 109.094 525.538 115.976C525.816 122.857 520.917 125.752 517.061 128.694C504.067 138.613 490.343 146.681 476.827 155.128C463.312 163.576 449.484 173.257 436.142 183.176C422.8 193.094 408.902 203.867 395.491 214.735C383.678 224.322 369.781 231.915 360.052 245.488C355.605 251.705 351.887 258.776 347.857 265.515C343.132 273.393 338.372 281.176 333.786 289.149C324.544 305.284 315.719 321.847 307.311 338.837C291.85 370.159 275.798 400.722 254.604 425.352C231.985 451.596 205.649 471.196 179.487 489.942C157.286 505.84 134.076 524.017 125.703 558.423C121.36 576.267 121.325 595.583 122.055 614.139C122.889 635.447 124.14 656.803 125.182 678.111C127.371 721.962 129.56 765.766 131.749 809.617C132.826 831.162 133.903 852.661 134.98 874.206C135.431 883.318 145.855 883.366 145.403 874.206L145.577 874.064Z" fill="#59C6D7"/>
</g>
</svg>
