<svg width="463" height="720" viewBox="0 0 463 720" fill="none" xmlns="http://www.w3.org/2000/svg">
<g opacity="0.5">
<path d="M114.993 181.356C91.5853 148.095 62.2438 98.7508 21.5955 80.6046C16.6897 90.4145 4.82232 102.414 7.48548 113.95C9.86831 124.181 23.1841 129.823 30.099 137.401C39.2098 147.421 48.2271 159.421 56.7773 170.199C75.6998 194.113 91.4919 220.006 104.2 247.078C129.757 301.517 142.84 360.545 144.381 419.572C145.783 472.411 138.214 525.208 124.197 576.489C117.142 602.213 108.452 627.559 98.4068 652.442C95.2764 660.147 74.0645 720.985 66.6824 721.321L171.2 716.901C188.627 716.185 255.253 721.364 262.448 707.68C267.494 697.997 261.327 673.914 261 663.009C260.486 647.432 260.065 631.854 259.692 616.276C258.991 586.088 258.57 555.901 258.43 525.671C258.29 497.462 254.973 467.064 261 439.361C266.42 414.183 261.327 388.459 264.784 362.818C269.363 328.883 282.772 296.043 317.814 281.181C352.856 266.319 384.393 248.257 413.875 226.743C471.483 184.682 518.392 130.58 548.575 69.5316C554.882 56.8166 561.236 41.5334 561.797 27.4291C562.124 19.598 558.527 11.0933 556.611 3.5569C554.275 -5.66356 551.939 -14.884 549.649 -24.1045C535.773 -22.8414 521.896 -21.5362 508.02 -20.2732C508.861 -8.73705 511.571 3.6832 511.104 15.093C510.683 25.4081 506.665 36.3127 502.133 45.6595C492.695 65.0267 476.716 81.9519 456.252 92.4775C459.008 91.046 457.747 69.8684 457.84 66.5423C458.074 57.4903 458.027 48.4382 457.84 39.3862C457.42 21.3242 456.345 3.26218 455.457 -14.7998C455.037 -23.8098 454.663 -32.8618 454.476 -41.9139C454.336 -49.1134 459.849 -68.4806 450.084 -71.512C444.618 -73.1961 433.638 -69.87 428.218 -68.5648C421.677 -67.007 409.67 -64.7335 406.259 -59.3443C402.381 -53.1974 403.269 -39.0509 404.297 -32.2724C406.025 -20.9047 404.484 -8.94757 403.736 2.46223C403.456 6.63038 404.343 10.167 404.53 14.251C404.811 19.8506 402.568 25.2397 402.661 30.8394C402.989 54.2905 406.539 77.6995 409.203 100.982C410.511 112.266 411.632 123.886 407.988 134.749C402.708 150.579 388.318 162.368 374.254 172.978C339.96 198.955 304.078 223.248 266.84 245.773C248.058 257.141 228.995 268.214 209.419 278.445C199.373 283.707 195.682 281.771 188.067 274.319C180.451 266.866 173.676 259.372 167.042 251.541C148.072 229.142 131.813 205.018 115.087 181.23L114.993 181.356Z" fill="#59C6D7"/>
<path d="M108.919 184.514C96.024 166.157 83.9229 147.338 69.7194 129.739C55.5158 112.14 39.3967 95.7619 18.0447 85.9941L27.6227 83.7205C23.2776 92.0569 11.6905 102.961 14.4004 112.813C16.7365 121.402 28.9777 126.455 35.0048 132.812C44.2558 142.538 52.1519 153.358 60.3282 163.8C68.5046 174.241 76.4007 184.809 83.5959 195.84C112.891 240.847 132.467 290.949 142.699 342.23C153.259 395.111 153.959 449.255 146.484 502.515C139.149 555.017 123.777 605.414 104.574 655.305C99.4814 668.525 94.7625 681.83 89.296 694.924C86.259 702.249 83.0819 709.617 79.204 716.606C77.0548 720.396 73.7842 726.585 68.4579 727.301L66.589 714.88L133.962 712.017C150.035 711.344 166.154 710.165 182.226 710.459C194.327 710.67 206.428 711.007 218.576 710.754C229.509 710.544 241.844 710.628 252.169 706.965C252.964 706.67 252.777 706.754 253.524 706.418C253.805 706.291 255.954 705.112 255.113 705.66C256.281 704.902 256.188 704.818 256.748 702.713C258.243 696.86 257.169 690.166 256.468 684.272C255.72 677.956 254.552 671.683 254.038 665.368C253.291 656.484 253.384 647.432 253.151 638.548C252.029 598.635 252.029 558.722 251.235 518.851C250.861 499.736 249.553 480.622 250.861 461.507C251.515 452.076 253.291 442.94 254.879 433.635C256.608 423.615 256.608 413.342 256.515 403.237C256.188 370.902 257.215 337.346 275.624 308.464C283.567 296.002 294.92 285.266 308.843 278.192C317.3 273.898 326.318 270.488 334.868 266.362C343.838 262.025 352.669 257.478 361.312 252.636C394.812 233.9 425.602 211.376 452.888 185.735C480.174 160.095 501.572 134.328 520.355 105.109C529.933 90.2043 538.903 74.7527 545.912 58.7116C549.556 50.3753 552.873 41.6601 554.182 32.7343C555.536 23.3034 552.359 15.0933 549.93 6.08339C547.407 -3.38969 545.117 -12.947 542.735 -22.42L549.509 -17.7888C535.633 -16.5257 521.756 -15.2205 507.88 -13.9574L514.888 -20.2728C515.916 -7.93676 518.86 4.48349 517.832 16.9038C516.804 29.324 512.459 40.3128 506.899 51.0489C496.807 70.5003 480.22 87.0887 459.616 97.9091C452.935 101.446 444.945 92.8147 451.112 87.9729C450.038 88.8149 450.692 89.657 450.365 88.6886C450.412 88.857 450.645 86.8361 450.598 87.1308C450.832 85.4046 450.832 83.6363 450.832 81.9101C450.926 77.9946 450.832 74.1211 450.692 70.2056C450.365 57.8695 450.832 45.4914 450.458 33.1553C449.991 18.5458 449.197 3.97827 448.449 -10.5892C447.842 -23.0095 446.347 -35.8508 447.795 -48.271C448.262 -52.355 448.823 -56.4389 448.683 -60.565C448.543 -64.691 448.543 -65.8278 444.571 -65.5752C439.572 -65.2384 434.713 -63.5964 429.901 -62.4175C425.088 -61.2386 419.295 -60.3966 414.763 -57.9546C407.287 -53.9549 410.137 -39.7663 410.978 -33.2404C411.819 -26.7145 412.053 -19.7676 411.679 -12.947C411.305 -6.12635 410.09 0.77847 410.698 7.59909C411.212 13.6619 411.072 19.0931 410.09 25.1559C408.829 32.7764 409.763 40.7759 410.324 48.4386C411.399 63.2587 413.314 78.0367 415.136 92.7726C416.818 106.582 419.108 120.939 415.23 134.623C411.866 146.453 403.689 156.6 394.252 165.189C384.346 174.241 373.086 182.156 362.107 190.156C349.679 199.25 337.017 208.134 324.168 216.807C298.705 234.027 272.447 250.363 245.628 265.856C237.686 270.445 229.696 274.95 221.566 279.287C215.306 282.655 208.157 287.539 200.541 287.75C194.514 287.918 189.655 284.887 185.497 281.224C179.423 275.835 174.003 269.814 168.677 263.835C146.39 238.869 127.842 211.502 108.873 184.472C104.013 177.567 116.161 171.252 120.974 178.115C138.541 203.081 155.548 228.553 175.872 251.836C180.404 257.015 185.076 262.067 189.936 266.993C193.3 270.361 196.991 276.34 202.597 274.529C209.419 272.34 216.1 267.54 222.221 264.13C229.603 260.046 236.938 255.836 244.227 251.584C271.512 235.627 298.191 218.828 324.075 201.06C337.624 191.756 350.94 182.198 364.069 172.346C374.628 164.431 385.935 156.432 393.831 146.159C402.615 134.665 404.016 122.16 402.848 108.561C401.587 93.6567 399.251 78.7945 397.709 63.9323C396.167 49.0701 394.672 34.5868 396.961 19.9351C397.943 13.4513 396.307 7.05175 396.728 0.567957C397.195 -6.8421 398.036 -14.2521 397.943 -21.7043C397.802 -33.072 394.906 -44.1029 397.335 -55.4706C399.625 -66.1646 409.016 -70.3749 419.809 -73.1116C429.433 -75.5535 441.815 -80.3111 451.813 -77.5744C461.812 -74.8378 463.12 -64.3963 462.653 -56.4389C462.419 -51.8076 461.438 -47.2185 461.345 -42.5872C461.111 -34.714 461.812 -26.7566 462.139 -18.9255C462.933 -1.57928 464.008 15.8091 464.522 33.1553C464.942 46.4598 464.522 59.7221 464.802 73.0265C464.942 79.2998 467.091 92.2253 461.064 96.9407L452.561 87.0045C471.25 77.1525 485.687 62.2903 494.798 44.6494C499.844 34.8816 503.815 24.0612 504.002 13.2408C504.189 2.42047 501.806 -9.11564 500.872 -20.3149C500.591 -23.9778 504.329 -26.2935 507.88 -26.6303C521.756 -27.8934 535.633 -29.1986 549.509 -30.4616C552.406 -30.7143 555.63 -28.3144 556.284 -25.8304C558.76 -16.0205 561.05 -6.16845 563.713 3.55724C566.236 12.6514 569.413 21.4087 568.432 30.9239C566.563 48.9859 558.2 65.9532 549.649 82.1627C533.157 113.361 512.225 142.538 487.883 169.231C463.541 195.924 434.993 220.47 404.016 241.521C387.197 252.931 369.536 263.372 351.174 272.677C342.016 277.35 332.625 281.687 323.14 285.771C315.525 289.055 308.423 292.844 302.209 298.107C276.979 319.537 270.578 354.23 270.344 384.038C270.204 404.247 270.858 423.825 267.027 443.824C263.196 463.823 264.13 483.442 264.784 503.146C266.093 543.523 265.766 583.941 266.793 624.318C267.214 641.495 266.98 658.757 269.363 675.809C270.905 686.629 274.83 702.334 267.494 712.101C261.888 719.596 249.506 721.027 240.395 722.08C227.407 723.553 214.231 723.595 201.196 723.427C167.883 723.048 134.757 724.648 101.49 726.037L66.6357 727.511C58.8798 727.848 56.8708 716.143 64.7668 715.091C64.2996 715.133 63.6922 715.722 63.5988 715.638C63.5053 715.512 63.5988 715.764 63.5988 715.638C63.8791 715.259 64.2061 714.88 64.4398 714.501C65.8414 712.396 67.1029 710.249 68.271 708.018C71.4481 701.997 74.0645 695.724 76.6342 689.45C81.5401 677.493 85.9787 665.368 90.5107 653.326C98.874 631.18 107.284 609.161 113.965 586.552C121.674 560.364 127.795 533.755 131.813 506.936C147.278 403.532 131.112 295.033 72.5227 203.923C64.4865 191.461 55.5626 179.588 46.3583 167.841C37.9016 157.021 29.8654 144.853 18.6521 136.138C9.77488 129.276 0.336974 122.329 0.0099188 110.877C-0.363859 98.288 9.86828 88.1413 15.4749 77.363C17.1569 74.1632 21.9226 73.658 25.053 75.0895C47.5731 85.3625 64.8136 102.835 79.6712 120.813C94.5289 138.791 107.424 158.874 120.927 178.115C125.739 185.019 113.638 191.335 108.826 184.472L108.919 184.514Z" fill="#59C6D7"/>
</g>
</svg>
