<svg width="322" height="244" viewBox="0 0 322 244" fill="none" xmlns="http://www.w3.org/2000/svg">
<path d="M18.84 63.78C16.8 63.78 14.64 64.26 12.24 65.58C8.04 67.74 10.2 73.74 14.52 71.58C24.72 66.3 32.04 90.06 51 90.06C68.88 90.06 66.48 68.34 57.36 70.5C41.4 74.34 33.6 69.78 27.12 66.42C29.52 66.9 31.92 67.14 34.56 67.14C53.52 67.14 69 53.34 69 36.3C69 19.26 53.52 5.46 34.56 5.46C15.48 5.46 0 19.26 0 36.3C0 48.3 7.68 58.74 18.84 63.78ZM34.56 11.58C41.16 11.58 46.56 22.62 46.56 36.3C46.56 50.1 41.16 61.14 34.56 61.14C27.84 61.14 22.44 50.1 22.44 36.3C22.44 22.62 27.84 11.58 34.56 11.58ZM81.0328 30.54L87.8728 52.26C91.4728 62.94 93.7528 67.14 101.313 67.14C108.513 67.14 110.913 62.22 115.233 51.9L117.873 45.18L120.153 52.26C123.633 62.94 125.913 67.14 133.593 67.14C140.673 67.14 143.073 62.22 147.393 51.9L155.913 30.78C158.553 24.06 167.073 19.62 168.993 14.22C170.913 8.94 166.593 5.46 157.953 5.46C149.793 5.46 146.313 7.38 145.233 10.86C143.313 17.58 152.673 22.98 148.713 32.34L143.793 44.34C142.113 48.42 138.753 51.18 135.633 42.18L129.873 24.18C128.313 19.26 129.753 16.74 128.193 12.54C126.153 7.38 122.433 5.46 114.033 5.46C105.753 5.46 100.233 7.38 102.273 12.54C104.913 19.26 110.673 22.14 113.193 30.54L114.993 36.06L111.633 44.34C109.833 48.42 106.473 51.18 103.473 42.18L97.7128 24.18C96.1528 19.26 97.5928 16.74 95.9128 12.54C93.8728 7.38 90.1528 5.46 81.8728 5.46C73.4728 5.46 68.0728 7.38 69.9928 12.54C72.6328 19.26 78.5128 22.14 81.0328 30.54ZM180.483 42.18C180.483 50.34 176.883 53.46 176.883 60.06C176.883 65.22 181.563 67.14 189.123 67.14H201.723C209.403 67.14 213.123 67.62 215.523 68.1C233.283 71.82 233.763 50.58 225.243 50.58C217.323 50.58 214.203 61.14 206.283 61.14C201.603 61.14 198.123 59.22 198.123 54.18V38.22H202.203C207.963 38.22 211.203 43.5 216.723 43.5C221.403 43.5 221.763 40.02 221.763 35.22C221.763 30.42 221.403 27.06 216.723 27.06C211.203 27.06 207.963 32.22 202.203 32.22H198.123V18.54C198.123 13.5 201.603 11.58 206.283 11.58C214.203 11.58 217.323 22.14 225.243 22.14C233.763 22.14 233.283 0.899993 215.523 4.62C213.123 5.1 209.403 5.46 201.723 5.46H189.123C181.563 5.58 176.883 7.38 176.883 12.66C176.883 19.26 180.483 22.38 180.483 30.54V42.18ZM239.133 60.06C239.133 65.34 243.933 67.14 251.613 67.14C259.293 67.14 264.093 65.34 264.093 60.06C264.093 53.46 260.373 50.34 260.373 42.18V38.22H266.013C270.693 38.22 276.933 42.06 276.933 46.26C276.933 52.62 273.333 54.9 273.333 60.06C273.333 65.34 278.133 67.14 285.813 67.14C293.493 67.14 298.293 65.34 298.293 60.06C298.293 54.9 294.573 52.62 294.573 46.26C294.573 40.86 290.973 37.26 285.813 35.22C290.733 32.22 294.213 27.3 294.213 21.9C294.213 12.78 284.853 5.46 274.893 5.46H251.613C243.933 5.46 239.133 7.38 239.133 12.66C239.133 19.26 242.733 22.38 242.733 30.54V42.18C242.733 50.34 239.133 53.46 239.133 60.06ZM275.013 21.9C275.013 27.3 269.373 32.22 263.013 32.22H260.373V11.46H263.013C269.373 11.46 275.013 16.5 275.013 21.9ZM0 157.06C0 162.34 4.8 164.14 12.48 164.14C20.16 164.14 24.96 162.34 24.96 157.06C24.96 150.46 21.24 147.34 21.24 139.18V136.42H42V139.18C42 147.34 38.28 150.46 38.28 157.06C38.28 162.34 43.08 164.14 50.76 164.14C58.44 164.14 63.24 162.34 63.24 157.06C63.24 150.46 59.64 147.34 59.64 139.18V127.54C59.64 119.38 63.24 116.26 63.24 109.66C63.24 104.38 58.44 102.46 50.76 102.46C43.08 102.46 38.28 104.38 38.28 109.66C38.28 116.26 42 119.38 42 127.54V130.3H21.24V127.54C21.24 119.38 24.96 116.26 24.96 109.66C24.96 104.38 20.16 102.46 12.48 102.46C4.8 102.46 0 104.38 0 109.66C0 116.26 3.6 119.38 3.6 127.54V139.18C3.6 147.34 0 150.46 0 157.06ZM89.8566 164.14C96.3366 164.14 100.777 162.22 103.897 159.82C105.697 162.58 108.817 164.14 112.297 164.14C116.977 164.14 122.977 160.9 122.977 156.46C122.977 152.74 118.537 152.5 118.537 148.42V141.22C118.537 130.66 106.057 124.06 96.2166 124.06C87.5766 124.06 73.8966 126.22 75.5766 133.66C76.4166 137.5 81.9366 139.42 86.0166 138.1C90.9366 136.3 89.8566 130.06 94.7766 130.06C98.7366 130.06 101.257 134.5 102.097 140.38C91.7766 135.46 70.0566 142.66 72.0966 153.82C73.6566 162.34 82.6566 164.14 89.8566 164.14ZM102.457 146.98V151.42C98.1366 155.26 92.4966 157.06 91.4166 151.54C90.8166 147.7 94.4166 143.38 102.457 146.98ZM152.833 164.14C162.193 164.14 170.353 159.7 174.193 153.1C176.593 148.9 169.753 147.7 168.193 150.34C164.713 156.58 148.753 151.54 148.753 138.22C148.753 133.66 150.673 130.06 152.833 130.06C155.113 130.06 156.073 134.74 156.553 140.98C157.273 149.86 178.633 146.02 175.153 137.02C172.273 129.22 163.033 124.06 152.833 124.06C139.633 124.06 128.953 133.06 128.953 144.1C128.953 155.26 139.633 164.14 152.833 164.14ZM183.586 157.06C183.586 162.34 187.666 164.14 195.346 164.14C202.906 164.14 206.986 162.34 206.986 157.06C206.986 153.46 205.906 150.82 204.946 147.94L206.506 146.62C208.306 150.7 208.426 154.06 210.946 157.66C214.546 162.7 217.306 164.14 224.986 164.14C232.666 164.14 240.946 158.02 237.586 152.62C233.746 146.5 225.946 145.9 221.506 139.18L220.186 137.26C225.226 135.46 229.186 135.7 233.146 131.86C237.226 127.66 231.946 124.06 226.186 124.06C221.626 124.06 217.186 124.66 213.946 128.02C210.586 131.5 212.146 134.26 205.666 139.54L203.506 141.34C203.386 140.62 203.386 139.9 203.386 139.18V127.54C203.386 119.38 206.986 116.26 206.986 109.66C206.986 104.38 202.906 102.46 195.346 102.46C187.666 102.46 183.586 104.38 183.586 109.66C183.586 116.26 187.186 119.38 187.186 127.54V139.18C187.186 147.34 183.586 150.46 183.586 157.06ZM250.139 144.1C257.099 149.74 271.499 152.62 271.499 155.98C271.499 158.86 267.059 159.46 261.059 153.94C257.099 150.1 245.219 150.34 246.899 155.86C248.579 161.26 259.739 164.14 268.379 164.14C285.779 164.14 295.499 151.9 286.499 144.1C279.899 138.46 265.019 135.7 265.139 132.22C265.139 129.34 269.579 128.74 275.459 134.38C279.539 138.1 291.419 137.86 289.619 132.34C288.059 126.94 276.779 124.06 268.139 124.06C250.859 124.06 240.779 136.66 250.139 144.1Z" fill="#F05F71"/>
<path d="M12.376 203.564C11.856 203.2 11.232 203.148 10.66 203.304L4.368 205.228L3.224 205.54C2.548 205.8 2.08 206.424 2.08 207.152C2.08 207.62 2.288 208.088 2.652 208.4L4.368 209.96V230.448C4.368 234.4 3.016 236.688 2.028 237.78C1.508 238.352 1.456 239.184 1.872 239.86C2.288 240.536 3.12 240.848 3.9 240.588C6.76 239.652 13.208 236.688 13.208 229.2V205.176C13.208 204.552 12.896 203.928 12.376 203.564ZM7.176 192.124C4.368 192.8 2.548 195.452 3.172 198.104C3.796 200.704 6.552 202.316 9.412 201.64C12.22 200.964 14.04 198.312 13.416 195.712C12.792 193.06 10.036 191.5 7.176 192.124ZM45.8404 225.716V213.652C45.8404 205.696 40.6404 203.252 33.5164 203.252C29.4084 203.252 25.1964 204.76 22.9604 207.828C21.2964 210.012 22.9084 213.132 25.6644 213.132C27.3284 213.132 28.7324 211.884 28.9404 210.272C29.3044 207.776 30.2404 205.592 32.6324 205.592C34.8684 205.592 37.0004 207.412 37.0004 212.248V213.912C32.1124 214.536 20.3084 216.876 20.3084 224.052C20.3084 228.628 24.0524 230.968 28.7844 230.968C32.2164 230.968 35.0764 229.2 37.1044 227.432C37.4164 229.148 38.9764 230.448 40.7964 230.448H46.7244C47.5044 230.448 48.1804 229.772 48.1804 228.992C48.1804 228.628 48.0764 228.316 47.8164 228.056L45.8404 225.716ZM29.6684 223.168C29.6684 218.54 33.7244 216.668 37.0004 216.148V224.624C35.7524 225.82 34.1404 226.912 32.6324 226.912C30.6044 226.912 29.6684 225.664 29.6684 223.168ZM80.2092 225.716V214.016C80.2092 205.54 74.9052 203.304 71.0572 203.304C68.3532 203.304 66.1692 204.656 64.5572 206.216V205.176C64.5572 204.552 64.2452 203.928 63.6732 203.564C63.2052 203.2 62.5812 203.148 62.0092 203.304L55.7172 205.228L54.5732 205.54C53.8452 205.8 53.3772 206.424 53.3772 207.152C53.3772 207.62 53.5852 208.088 53.9492 208.4L55.7172 209.96V225.716L53.7412 228.056C53.5332 228.316 53.3772 228.628 53.3772 228.992C53.3772 229.772 54.0532 230.448 54.8332 230.448H65.4412C66.2212 230.448 66.8972 229.772 66.8972 228.992C66.8972 228.628 66.7412 228.316 66.5332 228.056L64.5572 225.716V209.284C65.6492 207.88 67.0012 206.684 68.4052 206.684C70.6932 206.684 71.3692 208.868 71.3692 215.056V225.716L69.3932 228.056C69.1852 228.316 69.0812 228.628 69.0812 228.992C69.0812 229.772 69.7052 230.448 70.5372 230.448H81.0932C81.8732 230.448 82.5492 229.772 82.5492 228.992C82.5492 228.628 82.4452 228.316 82.1852 228.056L80.2092 225.716ZM130.55 219.268C130.186 219.268 129.822 219.424 129.562 219.632C128.054 220.932 126.13 221.608 124.206 221.608H110.842C113.494 213.392 131.954 216.044 131.954 203.304C131.954 196.18 125.454 192.852 118.85 192.852C113.858 192.852 107.15 195.452 105.174 202.732C104.55 205.124 105.798 207.62 108.138 208.608C111.206 209.856 114.638 207.776 114.95 204.448C115.366 199.56 116.51 196.856 118.85 196.856C121.346 196.856 122.386 199.56 122.386 202.264C122.386 211.624 105.122 213.288 103.926 228.784C103.874 229.668 104.602 230.448 105.486 230.448H129.25C130.03 230.448 130.654 229.876 130.758 229.148L132.058 221.088C132.214 220.152 131.486 219.268 130.55 219.268ZM167.238 194.256C166.822 193.372 165.938 192.852 165.002 192.852H140.51C139.73 192.852 139.106 193.372 138.95 194.152L137.858 201.172C137.702 202.108 138.43 202.94 139.366 202.94C139.73 202.94 140.094 202.836 140.354 202.576C141.862 201.328 143.786 200.652 145.71 200.652H160.374C155.85 208.036 144.982 213.704 142.382 227.276C141.706 230.552 144.254 233.62 147.582 233.62C150.338 233.62 152.678 231.488 152.886 228.732C154.55 208.4 166.51 202.42 167.498 195.712C167.55 195.192 167.498 194.672 167.238 194.256ZM209.35 212.976V210.116C209.35 209.232 208.674 208.556 207.79 208.556H190.942C190.11 208.556 189.382 209.232 189.382 210.116V212.976C189.382 213.808 190.11 214.536 190.942 214.536H207.79C208.674 214.536 209.35 213.808 209.35 212.976ZM257.859 219.268C257.495 219.268 257.131 219.424 256.871 219.632C255.363 220.932 253.439 221.608 251.515 221.608H238.151C240.803 213.392 259.263 216.044 259.263 203.304C259.263 196.18 252.763 192.852 246.159 192.852C241.167 192.852 234.459 195.452 232.483 202.732C231.859 205.124 233.107 207.62 235.447 208.608C238.515 209.856 241.947 207.776 242.259 204.448C242.675 199.56 243.819 196.856 246.159 196.856C248.655 196.856 249.695 199.56 249.695 202.264C249.695 211.624 232.431 213.288 231.235 228.784C231.183 229.668 231.911 230.448 232.795 230.448H256.559C257.339 230.448 257.963 229.876 258.067 229.148L259.367 221.088C259.523 220.152 258.795 219.268 257.859 219.268ZM280.663 189.732C271.563 189.732 265.115 197.064 265.115 204.916C265.115 213.236 270.315 218.176 277.595 218.176C284.147 218.176 287.475 214.536 287.475 214.536C287.475 225.456 283.003 229.304 280.767 229.304C278.687 229.304 277.595 227.38 277.023 224.416C276.451 221.4 273.279 219.632 270.419 220.776C267.611 221.92 266.519 225.404 268.235 227.952C270.939 231.956 275.775 233.62 280.767 233.62C290.491 233.62 297.199 224.728 297.199 210.116C297.199 199.3 292.779 189.732 280.663 189.732ZM280.975 213.808C277.023 213.808 274.475 209.804 274.475 204.136C274.475 198.572 276.919 194.516 280.871 194.516C288.983 194.516 289.815 213.808 280.975 213.808Z" fill="#C8428C"/>
</svg>
