<svg width="321" height="248" viewBox="0 0 321 248" fill="none" xmlns="http://www.w3.org/2000/svg">
<path d="M18.84 63.28C7.68 58.24 0 47.8 0 35.8C0 18.76 15.48 4.96 34.56 4.96C53.52 4.96 69 18.76 69 35.8C69 52.84 53.52 66.64 34.56 66.64C31.92 66.64 29.52 66.4 27.12 65.92C33.6 69.28 41.4 73.84 57.36 70C66.48 67.84 68.88 89.56 51 89.56C32.04 89.56 24.72 65.8 14.52 71.08C10.2 73.24 8.04 67.24 12.24 65.08C14.64 63.76 16.8 63.28 18.84 63.28ZM34.56 11.08C27.84 11.08 22.44 22.12 22.44 35.8C22.44 49.6 27.84 60.64 34.56 60.64C41.16 60.64 46.56 49.6 46.56 35.8C46.56 22.12 41.16 11.08 34.56 11.08ZM81.0328 30.04C78.5128 21.64 72.6328 18.76 69.9928 12.04C68.0728 6.88 73.4728 4.96 81.8728 4.96C90.1528 4.96 93.8728 6.88 95.9128 12.04C97.5928 16.24 96.1528 18.76 97.7128 23.68L103.473 41.68C106.473 50.68 109.833 47.92 111.633 43.84L114.993 35.56L113.193 30.04C110.673 21.64 104.913 18.76 102.273 12.04C100.233 6.88 105.753 4.96 114.033 4.96C122.433 4.96 126.153 6.88 128.193 12.04C129.753 16.24 128.313 18.76 129.873 23.68L135.633 41.68C138.753 50.68 142.113 47.92 143.793 43.84L148.713 31.84C152.673 22.48 143.313 17.08 145.233 10.36C146.313 6.88 149.793 4.96 157.953 4.96C166.593 4.96 170.913 8.44 168.993 13.72C167.073 19.12 158.553 23.56 155.913 30.28L147.393 51.4C143.073 61.72 140.673 66.64 133.593 66.64C125.913 66.64 123.633 62.44 120.153 51.76L117.873 44.68L115.233 51.4C110.913 61.72 108.513 66.64 101.313 66.64C93.7528 66.64 91.4728 62.44 87.8728 51.76L81.0328 30.04ZM180.483 41.68V30.04C180.483 21.88 176.883 18.76 176.883 12.16C176.883 6.88 181.563 5.08 189.123 4.96H201.723C209.403 4.96 213.123 4.6 215.523 4.12C233.283 0.399993 233.763 21.64 225.243 21.64C217.323 21.64 214.203 11.08 206.283 11.08C201.603 11.08 198.123 13 198.123 18.04V31.72H202.203C207.963 31.72 211.203 26.56 216.723 26.56C221.403 26.56 221.763 29.92 221.763 34.72C221.763 39.52 221.403 43 216.723 43C211.203 43 207.963 37.72 202.203 37.72H198.123V53.68C198.123 58.72 201.603 60.64 206.283 60.64C214.203 60.64 217.323 50.08 225.243 50.08C233.763 50.08 233.283 71.32 215.523 67.6C213.123 67.12 209.403 66.64 201.723 66.64H189.123C181.563 66.64 176.883 64.72 176.883 59.56C176.883 52.96 180.483 49.84 180.483 41.68ZM239.133 59.56C239.133 52.96 242.733 49.84 242.733 41.68V30.04C242.733 21.88 239.133 18.76 239.133 12.16C239.133 6.88 243.933 4.96 251.613 4.96H274.893C284.853 4.96 294.213 12.28 294.213 21.4C294.213 26.8 290.733 31.72 285.813 34.72C290.973 36.76 294.573 40.36 294.573 45.76C294.573 52.12 298.293 54.4 298.293 59.56C298.293 64.84 293.493 66.64 285.813 66.64C278.133 66.64 273.333 64.84 273.333 59.56C273.333 54.4 276.933 52.12 276.933 45.76C276.933 41.56 270.693 37.72 266.013 37.72H260.373V41.68C260.373 49.84 264.093 52.96 264.093 59.56C264.093 64.84 259.293 66.64 251.613 66.64C243.933 66.64 239.133 64.84 239.133 59.56ZM275.013 21.4C275.013 16 269.373 10.96 263.013 10.96H260.373V31.72H263.013C269.373 31.72 275.013 26.8 275.013 21.4ZM0 156.56C0 149.96 3.6 146.84 3.6 138.68V127.04C3.6 118.88 0 115.76 0 109.16C0 103.88 4.8 101.96 12.48 101.96C20.16 101.96 24.96 103.88 24.96 109.16C24.96 115.76 21.24 118.88 21.24 127.04V129.8H42V127.04C42 118.88 38.28 115.76 38.28 109.16C38.28 103.88 43.08 101.96 50.76 101.96C58.44 101.96 63.24 103.88 63.24 109.16C63.24 115.76 59.64 118.88 59.64 127.04V138.68C59.64 146.84 63.24 149.96 63.24 156.56C63.24 161.84 58.44 163.64 50.76 163.64C43.08 163.64 38.28 161.84 38.28 156.56C38.28 149.96 42 146.84 42 138.68V135.92H21.24V138.68C21.24 146.84 24.96 149.96 24.96 156.56C24.96 161.84 20.16 163.64 12.48 163.64C4.8 163.64 0 161.84 0 156.56ZM89.8566 163.64C82.6566 163.64 73.6566 161.84 72.0966 153.32C70.0566 142.16 91.7766 134.96 102.097 139.88C101.257 134 98.7366 129.56 94.7766 129.56C89.8566 129.56 90.9366 135.8 86.0166 137.6C81.9366 138.92 76.4166 137 75.5766 133.16C73.8966 125.72 87.5766 123.56 96.2166 123.56C106.057 123.56 118.537 130.16 118.537 140.72V147.92C118.537 152 122.977 152.24 122.977 155.96C122.977 160.4 116.977 163.64 112.297 163.64C108.817 163.64 105.697 162.08 103.897 159.32C100.777 161.72 96.3366 163.64 89.8566 163.64ZM102.457 146.48C94.4166 142.88 90.8166 147.2 91.4166 151.04C92.4966 156.56 98.1366 154.76 102.457 150.92V146.48ZM152.833 163.64C139.633 163.64 128.953 154.76 128.953 143.6C128.953 132.56 139.633 123.56 152.833 123.56C163.033 123.56 172.273 128.72 175.153 136.52C178.633 145.52 157.273 149.36 156.553 140.48C156.073 134.24 155.113 129.56 152.833 129.56C150.673 129.56 148.753 133.16 148.753 137.72C148.753 151.04 164.713 156.08 168.193 149.84C169.753 147.2 176.593 148.4 174.193 152.6C170.353 159.2 162.193 163.64 152.833 163.64ZM183.586 156.56C183.586 149.96 187.186 146.84 187.186 138.68V127.04C187.186 118.88 183.586 115.76 183.586 109.16C183.586 103.88 187.666 101.96 195.346 101.96C202.906 101.96 206.986 103.88 206.986 109.16C206.986 115.76 203.386 118.88 203.386 127.04V138.68C203.386 139.4 203.386 140.12 203.506 140.84L205.666 139.04C212.146 133.76 210.586 131 213.946 127.52C217.186 124.16 221.626 123.56 226.186 123.56C231.946 123.56 237.226 127.16 233.146 131.36C229.186 135.2 225.226 134.96 220.186 136.76L221.506 138.68C225.946 145.4 233.746 146 237.586 152.12C240.946 157.52 232.666 163.64 224.986 163.64C217.306 163.64 214.546 162.2 210.946 157.16C208.426 153.56 208.306 150.2 206.506 146.12L204.946 147.44C205.906 150.32 206.986 152.96 206.986 156.56C206.986 161.84 202.906 163.64 195.346 163.64C187.666 163.64 183.586 161.84 183.586 156.56ZM250.139 143.6C240.779 136.16 250.859 123.56 268.139 123.56C276.779 123.56 288.059 126.44 289.619 131.84C291.419 137.36 279.539 137.6 275.459 133.88C269.579 128.24 265.139 128.84 265.139 131.72C265.019 135.2 279.899 137.96 286.499 143.6C295.499 151.4 285.779 163.64 268.379 163.64C259.739 163.64 248.579 160.76 246.899 155.36C245.219 149.84 257.099 149.6 261.059 153.44C267.059 158.96 271.499 158.36 271.499 155.48C271.499 152.12 257.099 149.24 250.139 143.6Z" fill="#F05F71"/>
<path d="M18.84 63.28V63.53H20.001L18.9429 63.0522L18.84 63.28ZM27.12 65.92L27.169 65.6749L25.4355 65.3281L27.0049 66.1419L27.12 65.92ZM57.36 70L57.3024 69.7567L57.3015 69.7569L57.36 70ZM14.52 71.08L14.6318 71.3036L14.6349 71.302L14.52 71.08ZM12.24 65.08L12.3544 65.3024L12.3605 65.2991L12.24 65.08ZM18.9429 63.0522C7.85869 58.0464 0.25 47.6875 0.25 35.8H-0.25C-0.25 47.9125 7.50132 58.4336 18.7371 63.5078L18.9429 63.0522ZM0.25 35.8C0.25 18.9241 15.5905 5.21 34.56 5.21V4.71C15.3695 4.71 -0.25 18.5958 -0.25 35.8H0.25ZM34.56 5.21C53.4089 5.21 68.75 18.9236 68.75 35.8H69.25C69.25 18.5964 53.6311 4.71 34.56 4.71V5.21ZM68.75 35.8C68.75 52.6764 53.4089 66.39 34.56 66.39V66.89C53.6311 66.89 69.25 53.0036 69.25 35.8H68.75ZM34.56 66.39C31.936 66.39 29.5524 66.1515 27.169 65.6749L27.071 66.1651C29.4876 66.6485 31.904 66.89 34.56 66.89V66.39ZM27.0049 66.1419C30.2386 67.8187 33.8377 69.8154 38.6296 70.9038C43.4264 71.9933 49.4056 72.171 57.4185 70.2431L57.3015 69.7569C49.3544 71.669 43.4536 71.4867 38.7404 70.4162C34.0223 69.3446 30.4814 67.3813 27.2351 65.6981L27.0049 66.1419ZM57.4176 70.2433C59.5818 69.7307 61.3444 70.6253 62.5242 72.2896C63.7113 73.9643 64.299 76.4141 64.0561 78.9461C63.8136 81.4741 62.745 84.062 60.6489 86.0172C58.5553 87.97 55.417 89.31 51 89.31V89.81C55.523 89.81 58.7897 88.435 60.9899 86.3828C63.1875 84.333 64.3014 81.6259 64.5539 78.9939C64.806 76.3659 64.2012 73.7907 62.9321 72.0004C61.6556 70.1997 59.6982 69.1893 57.3024 69.7567L57.4176 70.2433ZM51 89.31C41.6316 89.31 35.128 83.4444 29.6485 78.16C26.9219 75.5305 24.4339 73.03 21.9878 71.527C19.5248 70.0137 17.0587 69.4843 14.4051 70.858L14.6349 71.302C17.0813 70.0357 19.3552 70.4963 21.726 71.953C24.1136 73.42 26.5531 75.8695 29.3015 78.52C34.772 83.7956 41.4084 89.81 51 89.81V89.31ZM14.4082 70.8564C13.3787 71.3712 12.5081 71.3865 11.8421 71.1248C11.1729 70.8619 10.6758 70.306 10.4195 69.6132C9.90786 68.2305 10.368 66.3239 12.3543 65.3023L12.1257 64.8577C9.91201 65.9961 9.35214 68.1695 9.95053 69.7868C10.2492 70.594 10.8396 71.2681 11.6592 71.5902C12.4819 71.9135 13.5013 71.8688 14.6318 71.3036L14.4082 70.8564ZM12.3605 65.2991C14.7245 63.9988 16.8432 63.53 18.84 63.53V63.03C16.7568 63.03 14.5555 63.5212 12.1195 64.8609L12.3605 65.2991ZM34.56 10.83C31.0521 10.83 27.9579 13.7047 25.7555 18.2C23.5453 22.7113 22.19 28.9305 22.19 35.8H22.69C22.69 28.9895 24.0347 22.8487 26.2045 18.42C28.3821 13.9753 31.3479 11.33 34.56 11.33V10.83ZM22.19 35.8C22.19 42.7292 23.5452 48.9784 25.7554 53.5047C27.9578 58.0151 31.0519 60.89 34.56 60.89V60.39C31.3481 60.39 28.3822 57.7449 26.2046 53.2853C24.0348 48.8416 22.69 42.6708 22.69 35.8H22.19ZM34.56 60.89C38.0097 60.89 41.0734 58.0128 43.2599 53.5041C45.4548 48.9781 46.81 42.7292 46.81 35.8H46.31C46.31 42.6708 44.9652 48.8418 42.8101 53.2859C40.6466 57.7472 37.7103 60.39 34.56 60.39V60.89ZM46.81 35.8C46.81 28.9305 45.4547 22.7115 43.2598 18.2006C41.0733 13.707 38.0095 10.83 34.56 10.83V11.33C37.7105 11.33 40.6467 13.973 42.8102 18.4194C44.9653 22.8485 46.31 28.9895 46.31 35.8H46.81ZM81.0328 30.04L80.7933 30.1118L80.7944 30.1151L81.0328 30.04ZM69.9928 12.04L69.7585 12.1272L69.7601 12.1314L69.9928 12.04ZM95.9128 12.04L95.6803 12.1319L95.6807 12.1328L95.9128 12.04ZM97.7128 23.68L97.4745 23.7556L97.4747 23.7562L97.7128 23.68ZM103.473 41.68L103.235 41.7562L103.236 41.7591L103.473 41.68ZM111.633 43.84L111.862 43.941L111.864 43.934L111.633 43.84ZM114.993 35.56L115.224 35.654L115.259 35.5693L115.23 35.4825L114.993 35.56ZM113.193 30.04L112.953 30.1119L112.955 30.1175L113.193 30.04ZM102.273 12.04L102.506 11.9486L102.505 11.9481L102.273 12.04ZM128.193 12.04L128.427 11.9529L128.425 11.9481L128.193 12.04ZM129.873 23.68L129.635 23.7556L129.635 23.7562L129.873 23.68ZM135.633 41.68L135.395 41.7562L135.397 41.7619L135.633 41.68ZM143.793 43.84L144.024 43.9352L144.024 43.9348L143.793 43.84ZM148.713 31.84L148.483 31.7426L148.482 31.7452L148.713 31.84ZM145.233 10.36L144.994 10.2859L144.992 10.2913L145.233 10.36ZM168.993 13.72L168.758 13.6346L168.757 13.6362L168.993 13.72ZM155.913 30.28L156.145 30.3735L156.146 30.3714L155.913 30.28ZM147.393 51.4L147.623 51.4965L147.625 51.4935L147.393 51.4ZM120.153 51.76L119.915 51.8366L119.915 51.8375L120.153 51.76ZM117.873 44.68L118.111 44.6034L117.896 43.9369L117.64 44.5886L117.873 44.68ZM115.233 51.4L115.463 51.4966L115.466 51.4914L115.233 51.4ZM87.8728 51.76L87.6343 51.8351L87.6359 51.8399L87.8728 51.76ZM81.2723 29.9682C79.9979 25.7203 77.8727 22.8695 75.752 20.2526C73.6276 17.631 71.5281 15.2644 70.2255 11.9486L69.7601 12.1314C71.0975 15.5356 73.258 17.969 75.3636 20.5674C77.473 23.1705 79.5477 25.9597 80.7934 30.1118L81.2723 29.9682ZM70.2271 11.9528C69.7622 10.7033 69.7518 9.68287 70.0895 8.85087C70.4278 8.0171 71.1322 7.33155 72.1783 6.78673C74.2815 5.69133 77.6792 5.21 81.8728 5.21V4.71C77.6664 4.71 74.1642 5.18867 71.9473 6.34327C70.8334 6.92344 70.0228 7.68539 69.6262 8.66287C69.2288 9.64212 69.2634 10.7967 69.7585 12.1272L70.2271 11.9528ZM81.8728 5.21C85.9999 5.21 88.9525 5.68971 91.1198 6.788C93.2739 7.8796 94.6776 9.59562 95.6803 12.1319L96.1453 11.9481C95.108 9.32437 93.6317 7.50039 91.3458 6.342C89.0731 5.19029 86.0257 4.71 81.8728 4.71V5.21ZM95.6807 12.1328C96.503 14.1886 96.563 15.8301 96.6079 17.5964C96.6529 19.3676 96.6829 21.2589 97.4745 23.7556L97.9511 23.6044C97.1828 21.1811 97.1527 19.3524 97.1077 17.5836C97.0626 15.8099 97.0026 14.0914 96.1449 11.9471L95.6807 12.1328ZM97.4747 23.7562L103.235 41.7562L103.711 41.6038L97.9509 23.6038L97.4747 23.7562ZM103.236 41.7591C103.99 44.0215 104.774 45.5688 105.566 46.5456C106.36 47.5245 107.187 47.9578 108.016 47.9147C108.832 47.8721 109.572 47.3695 110.207 46.6555C110.845 45.9375 111.405 44.9749 111.862 43.9409L111.404 43.7391C110.96 44.7451 110.425 45.6575 109.833 46.3233C109.238 46.993 108.613 47.3829 107.99 47.4153C107.378 47.4472 106.69 47.138 105.954 46.2306C105.217 45.3212 104.456 43.8385 103.71 41.6009L103.236 41.7591ZM111.864 43.934L115.224 35.654L114.761 35.466L111.401 43.746L111.864 43.934ZM115.23 35.4825L113.43 29.9625L112.955 30.1175L114.755 35.6375L115.23 35.4825ZM113.432 29.9682C112.158 25.7214 110.064 22.8711 107.973 20.254C105.879 17.6325 103.809 15.2654 102.506 11.9486L102.04 12.1314C103.377 15.5346 105.507 17.9675 107.582 20.566C109.662 23.1689 111.707 25.9586 112.953 30.1118L113.432 29.9682ZM102.505 11.9481C102.011 10.6987 101.988 9.6794 102.318 8.84922C102.648 8.0169 103.352 7.33171 104.398 6.78673C106.502 5.69126 109.9 5.21 114.033 5.21V4.71C109.886 4.71 106.384 5.18874 104.167 6.34327C103.054 6.92329 102.242 7.68559 101.853 8.66452C101.463 9.64559 101.514 10.8013 102.04 12.1319L102.505 11.9481ZM114.033 5.21C118.22 5.21 121.203 5.6898 123.385 6.7883C125.554 7.87995 126.958 9.59578 127.96 12.1319L128.425 11.9481C127.388 9.32421 125.911 7.50004 123.61 6.34169C121.323 5.19019 118.245 4.71 114.033 4.71V5.21ZM127.958 12.127C128.722 14.1835 128.753 15.8257 128.783 17.5942C128.813 19.3674 128.843 21.2585 129.635 23.7556L130.111 23.6044C129.343 21.1814 129.313 19.3526 129.283 17.5858C129.253 15.8143 129.223 14.0964 128.427 11.9529L127.958 12.127ZM129.635 23.7562L135.395 41.7562L135.871 41.6038L130.111 23.6038L129.635 23.7562ZM135.397 41.7619C136.181 44.0244 136.988 45.5713 137.795 46.5475C138.604 47.5253 139.438 47.9578 140.266 47.9147C141.083 47.8721 141.816 47.3686 142.437 46.6532C143.06 45.9341 143.598 44.9703 144.024 43.9352L143.562 43.7448C143.148 44.7497 142.635 45.6609 142.059 46.3256C141.479 46.9939 140.862 47.3829 140.24 47.4153C139.628 47.4472 138.932 47.1372 138.18 46.2288C137.428 45.3187 136.645 43.8356 135.869 41.5981L135.397 41.7619ZM144.024 43.9348L148.944 31.9348L148.482 31.7452L143.562 43.7452L144.024 43.9348ZM148.943 31.9374C150.966 27.1549 149.576 23.3792 147.963 20.0022C147.153 18.3055 146.299 16.7333 145.76 15.1542C145.224 13.5856 145.012 12.043 145.473 10.4287L144.992 10.2913C144.494 12.037 144.731 13.6894 145.287 15.3158C145.839 16.9317 146.718 18.5545 147.512 20.2178C149.109 23.5608 150.419 27.1651 148.483 31.7426L148.943 31.9374ZM145.472 10.4341C145.989 8.76646 147.077 7.47016 149.041 6.58282C151.018 5.6893 153.887 5.21 157.953 5.21V4.71C153.859 4.71 150.907 5.1907 148.835 6.12717C146.749 7.06983 145.557 8.47353 144.994 10.2859L145.472 10.4341ZM157.953 5.21C162.25 5.21 165.422 6.07717 167.277 7.55551C168.2 8.29104 168.796 9.17601 169.05 10.185C169.306 11.1954 169.225 12.3512 168.758 13.6346L169.228 13.8054C169.721 12.4488 169.82 11.1895 169.535 10.0625C169.25 8.93398 168.586 7.95895 167.589 7.16448C165.604 5.58283 162.296 4.71 157.953 4.71V5.21ZM168.757 13.6362C168.292 14.9438 167.423 16.2063 166.321 17.4769C165.22 18.7475 163.902 20.0101 162.549 21.3257C159.855 23.9442 157.023 26.7702 155.68 30.1886L156.146 30.3714C157.443 27.0698 160.19 24.3158 162.897 21.6842C164.244 20.3749 165.581 19.095 166.699 17.8044C167.818 16.5137 168.733 15.1962 169.228 13.8037L168.757 13.6362ZM155.681 30.1865L147.161 51.3065L147.625 51.4935L156.145 30.3735L155.681 30.1865ZM147.162 51.3035C144.998 56.473 143.331 60.2465 141.333 62.7334C140.338 63.9712 139.267 64.8819 138.02 65.4849C136.772 66.0879 135.333 66.39 133.593 66.39V66.89C135.393 66.89 136.909 66.5771 138.237 65.9351C139.566 65.2931 140.692 64.3288 141.723 63.0466C143.774 60.4935 145.467 56.647 147.623 51.4965L147.162 51.3035ZM133.593 66.39C129.809 66.39 127.398 65.3608 125.491 63.046C123.561 60.7034 122.133 57.0299 120.391 51.6825L119.915 51.8375C121.653 57.1701 123.105 60.9366 125.105 63.364C127.128 65.8192 129.696 66.89 133.593 66.89V66.39ZM120.391 51.6834L118.111 44.6034L117.635 44.7566L119.915 51.8366L120.391 51.6834ZM117.64 44.5886L115 51.3086L115.466 51.4914L118.106 44.7714L117.64 44.5886ZM115.002 51.3035C112.838 56.4731 111.171 60.2461 109.159 62.7327C108.157 63.9702 107.075 64.8811 105.81 65.4844C104.545 66.0877 103.084 66.39 101.313 66.39V66.89C103.142 66.89 104.68 66.5773 106.025 65.9356C107.371 65.2939 108.509 64.3298 109.547 63.0473C111.614 60.4939 113.307 56.6469 115.463 51.4965L115.002 51.3035ZM101.313 66.39C99.4453 66.39 97.9205 66.1305 96.6266 65.5864C95.3351 65.0433 94.2607 64.2111 93.3008 63.046C91.3698 60.7024 89.9122 57.0276 88.1097 51.6801L87.6359 51.8399C89.4334 57.1724 90.9158 60.9376 92.9149 63.364C93.92 64.5839 95.058 65.4692 96.4328 66.0473C97.8052 66.6245 99.4003 66.89 101.313 66.89V66.39ZM88.1113 51.6849L81.2713 29.9649L80.7944 30.1151L87.6344 51.8351L88.1113 51.6849ZM189.123 4.96V4.70997L189.119 4.71003L189.123 4.96ZM215.523 4.12L215.572 4.36515L215.574 4.36469L215.523 4.12ZM198.123 31.72H197.873V31.97H198.123V31.72ZM198.123 37.72V37.47H197.873V37.72H198.123ZM215.523 67.6L215.574 67.3553L215.572 67.3549L215.523 67.6ZM180.733 41.68V30.04H180.233V41.68H180.733ZM180.733 30.04C180.733 25.918 179.822 23.0666 178.919 20.4339C178.017 17.8033 177.133 15.4119 177.133 12.16H176.633C176.633 15.5081 177.548 17.9767 178.446 20.5961C179.344 23.2134 180.233 26.002 180.233 30.04H180.733ZM177.133 12.16C177.133 10.878 177.416 9.82221 177.946 8.95454C178.475 8.08658 179.259 7.39134 180.285 6.84572C182.346 5.74958 185.356 5.26981 189.127 5.20997L189.119 4.71003C185.329 4.77018 182.22 5.25042 180.05 6.40428C178.961 6.98365 178.103 7.73592 177.519 8.69421C176.934 9.65278 176.633 10.802 176.633 12.16H177.133ZM189.123 5.21H201.723V4.71H189.123V5.21ZM201.723 5.21C209.408 5.21 213.147 4.85006 215.572 4.36514L215.474 3.87485C213.098 4.34994 209.398 4.71 201.723 4.71V5.21ZM215.574 4.36469C219.966 3.44474 223.258 4.07341 225.602 5.50161C227.948 6.93091 229.372 9.17829 229.996 11.5486C230.621 13.9226 230.437 16.4016 229.588 18.2762C228.741 20.1462 227.249 21.39 225.243 21.39V21.89C227.497 21.89 229.139 20.4788 230.044 18.4825C230.946 16.4908 231.13 13.8924 230.48 11.4214C229.828 8.9467 228.335 6.58158 225.862 5.07463C223.387 3.56658 219.96 2.93525 215.472 3.87531L215.574 4.36469ZM225.243 21.39C221.399 21.39 218.711 18.8338 215.936 16.1793C213.191 13.5538 210.359 10.83 206.283 10.83V11.33C210.126 11.33 212.815 13.8862 215.59 16.5407C218.335 19.1662 221.166 21.89 225.243 21.89V21.39ZM206.283 10.83C203.915 10.83 201.812 11.3148 200.296 12.4712C198.769 13.6366 197.873 15.4564 197.873 18.04H198.373C198.373 15.5836 199.217 13.9234 200.599 12.8688C201.994 11.8052 203.971 11.33 206.283 11.33V10.83ZM197.873 18.04V31.72H198.373V18.04H197.873ZM198.123 31.97H202.203V31.47H198.123V31.97ZM202.203 31.97C205.159 31.97 207.464 30.6429 209.678 29.3562C211.908 28.0607 214.041 26.81 216.723 26.81V26.31C213.885 26.31 211.638 27.6393 209.427 28.9238C207.202 30.2171 205.007 31.47 202.203 31.47V31.97ZM216.723 26.81C217.864 26.81 218.718 27.015 219.362 27.3778C220.002 27.7386 220.453 28.266 220.771 28.9461C221.419 30.3271 221.513 32.3091 221.513 34.72H222.013C222.013 32.3309 221.927 30.2329 221.224 28.7339C220.868 27.974 220.351 27.3614 219.607 26.9422C218.867 26.525 217.921 26.31 216.723 26.31V26.81ZM221.513 34.72C221.513 37.1303 221.419 39.1437 220.771 40.5557C220.451 41.2517 219.999 41.7937 219.359 42.165C218.716 42.538 217.863 42.75 216.723 42.75V43.25C217.923 43.25 218.87 43.027 219.61 42.5975C220.354 42.1663 220.87 41.5383 221.225 40.7643C221.927 39.2363 222.013 37.1097 222.013 34.72H221.513ZM216.723 42.75C214.042 42.75 211.91 41.471 209.681 40.1451C207.467 38.8287 205.161 37.47 202.203 37.47V37.97C205.005 37.97 207.199 39.2513 209.425 40.5749C211.635 41.889 213.883 43.25 216.723 43.25V42.75ZM202.203 37.47H198.123V37.97H202.203V37.47ZM197.873 37.72V53.68H198.373V37.72H197.873ZM197.873 53.68C197.873 56.2636 198.769 58.0834 200.296 59.2488C201.812 60.4052 203.915 60.89 206.283 60.89V60.39C203.971 60.39 201.994 59.9148 200.599 58.8512C199.217 57.7966 198.373 56.1364 198.373 53.68H197.873ZM206.283 60.89C210.359 60.89 213.191 58.1662 215.936 55.5407C218.711 52.8862 221.399 50.33 225.243 50.33V49.83C221.166 49.83 218.335 52.5538 215.59 55.1793C212.815 57.8338 210.126 60.39 206.283 60.39V60.89ZM225.243 50.33C227.249 50.33 228.741 51.5738 229.588 53.4438C230.437 55.3183 230.621 57.7974 229.996 60.1714C229.372 62.5417 227.948 64.7891 225.602 66.2184C223.258 67.6466 219.966 68.2753 215.574 67.3553L215.472 67.8447C219.96 68.7847 223.387 68.1534 225.862 66.6454C228.335 65.1384 229.828 62.7733 230.48 60.2986C231.13 57.8276 230.946 55.2292 230.044 53.2375C229.139 51.2412 227.497 49.83 225.243 49.83V50.33ZM215.572 67.3549C213.151 66.8706 209.413 66.39 201.723 66.39V66.89C209.392 66.89 213.095 67.3694 215.474 67.8451L215.572 67.3549ZM201.723 66.39H189.123V66.89H201.723V66.39ZM189.123 66.39C185.355 66.39 182.345 65.9101 180.285 64.8143C179.259 64.2686 178.475 63.5732 177.945 62.7122C177.416 61.8517 177.133 60.811 177.133 59.56H176.633C176.633 60.889 176.935 62.0233 177.519 62.9741C178.104 63.9243 178.961 64.6764 180.05 65.2557C182.22 66.4099 185.33 66.89 189.123 66.89V66.39ZM177.133 59.56C177.133 56.3081 178.017 53.9167 178.919 51.2861C179.822 48.6534 180.733 45.802 180.733 41.68H180.233C180.233 45.718 179.344 48.5066 178.446 51.1239C177.548 53.7433 176.633 56.2119 176.633 59.56H177.133ZM285.813 34.72L285.683 34.5065L285.254 34.7679L285.721 34.9525L285.813 34.72ZM260.373 37.72V37.47H260.123V37.72H260.373ZM260.373 10.96V10.71H260.123V10.96H260.373ZM260.373 31.72H260.123V31.97H260.373V31.72ZM239.383 59.56C239.383 56.3081 240.267 53.9167 241.169 51.2861C242.072 48.6534 242.983 45.802 242.983 41.68H242.483C242.483 45.718 241.594 48.5066 240.696 51.1239C239.798 53.7433 238.883 56.2119 238.883 59.56H239.383ZM242.983 41.68V30.04H242.483V41.68H242.983ZM242.983 30.04C242.983 25.918 242.072 23.0666 241.169 20.4339C240.267 17.8033 239.383 15.4119 239.383 12.16H238.883C238.883 15.5081 239.798 17.9767 240.696 20.5961C241.594 23.2134 242.483 26.002 242.483 30.04H242.983ZM239.383 12.16C239.383 10.8791 239.673 9.81614 240.215 8.93891C240.758 8.06118 241.561 7.3544 242.61 6.80109C244.715 5.69003 247.785 5.21 251.613 5.21V4.71C247.761 4.71 244.591 5.18996 242.376 6.3589C241.264 6.94559 240.388 7.70882 239.79 8.67609C239.192 9.64385 238.883 10.8009 238.883 12.16H239.383ZM251.613 5.21H274.893V4.71H251.613V5.21ZM274.893 5.21C279.814 5.21 284.587 7.01899 288.128 9.95252C291.669 12.8858 293.963 16.9298 293.963 21.4H294.463C294.463 16.7502 292.077 12.5742 288.447 9.56748C284.818 6.56101 279.932 4.71 274.893 4.71V5.21ZM293.963 21.4C293.963 26.6892 290.551 31.5381 285.683 34.5065L285.943 34.9334C290.915 31.9019 294.463 26.9108 294.463 21.4H293.963ZM285.721 34.9525C290.827 36.9713 294.323 40.5012 294.323 45.76H294.823C294.823 40.2188 291.118 36.5487 285.905 34.4875L285.721 34.9525ZM294.323 45.76C294.323 48.996 295.272 51.1967 296.206 53.215C297.14 55.2333 298.043 57.0439 298.043 59.56H298.543C298.543 56.9161 297.586 55.0067 296.66 53.005C295.734 51.0033 294.823 48.884 294.823 45.76H294.323ZM298.043 59.56C298.043 60.8409 297.752 61.8958 297.211 62.7612C296.669 63.6271 295.867 64.319 294.819 64.8576C292.713 65.9396 289.643 66.39 285.813 66.39V66.89C289.663 66.89 292.833 66.4404 295.047 65.3024C296.159 64.731 297.036 63.9829 297.635 63.0263C298.233 62.0692 298.543 60.9191 298.543 59.56H298.043ZM285.813 66.39C281.983 66.39 278.913 65.9396 276.807 64.8576C275.759 64.319 274.956 63.6271 274.415 62.7612C273.873 61.8958 273.583 60.8409 273.583 59.56H273.083C273.083 60.9191 273.392 62.0692 273.991 63.0263C274.589 63.9829 275.467 64.731 276.579 65.3024C278.793 66.4404 281.963 66.89 285.813 66.89V66.39ZM273.583 59.56C273.583 57.0419 274.457 55.23 275.361 53.2122C276.265 51.1938 277.183 48.9943 277.183 45.76H276.683C276.683 48.8857 275.801 51.0062 274.905 53.0078C274.008 55.01 273.083 56.9181 273.083 59.56H273.583ZM277.183 45.76C277.183 43.5372 275.54 41.4618 273.37 39.9595C271.191 38.4511 268.413 37.47 266.013 37.47V37.97C268.293 37.97 270.974 38.9089 273.086 40.3705C275.205 41.8382 276.683 43.7828 276.683 45.76H277.183ZM266.013 37.47H260.373V37.97H266.013V37.47ZM260.123 37.72V41.68H260.623V37.72H260.123ZM260.123 41.68C260.123 45.8034 261.064 48.6558 261.997 51.2885C262.929 53.9194 263.843 56.3097 263.843 59.56H264.343C264.343 56.2103 263.396 53.7406 262.468 51.1215C261.541 48.5042 260.623 45.7166 260.623 41.68H260.123ZM263.843 59.56C263.843 60.8409 263.552 61.8958 263.011 62.7612C262.469 63.6271 261.667 64.319 260.619 64.8576C258.513 65.9396 255.443 66.39 251.613 66.39V66.89C255.463 66.89 258.633 66.4404 260.847 65.3024C261.959 64.731 262.836 63.9829 263.435 63.0263C264.033 62.0692 264.343 60.9191 264.343 59.56H263.843ZM251.613 66.39C247.783 66.39 244.713 65.9396 242.607 64.8576C241.559 64.319 240.756 63.6271 240.215 62.7612C239.673 61.8958 239.383 60.8409 239.383 59.56H238.883C238.883 60.9191 239.192 62.0692 239.791 63.0263C240.389 63.9829 241.267 64.731 242.379 65.3024C244.593 66.4404 247.763 66.89 251.613 66.89V66.39ZM275.263 21.4C275.263 18.612 273.808 15.9378 271.563 13.9671C269.316 11.9951 266.258 10.71 263.013 10.71V11.21C266.128 11.21 269.07 12.4449 271.233 14.3429C273.397 16.2422 274.763 18.788 274.763 21.4H275.263ZM263.013 10.71H260.373V11.21H263.013V10.71ZM260.123 10.96V31.72H260.623V10.96H260.123ZM260.373 31.97H263.013V31.47H260.373V31.97ZM263.013 31.97C266.256 31.97 269.314 30.7161 271.561 28.7742C273.808 26.8333 275.263 24.1887 275.263 21.4H274.763C274.763 24.0113 273.398 26.5267 271.234 28.3958C269.072 30.2639 266.129 31.47 263.013 31.47V31.97ZM21.24 129.8H20.99V130.05H21.24V129.8ZM42 129.8V130.05H42.25V129.8H42ZM42 135.92H42.25V135.67H42V135.92ZM21.24 135.92V135.67H20.99V135.92H21.24ZM0.25 156.56C0.25 153.308 1.13455 150.917 2.03649 148.286C2.93911 145.653 3.85 142.802 3.85 138.68H3.35C3.35 142.718 2.46089 145.507 1.56351 148.124C0.665453 150.743 -0.25 153.212 -0.25 156.56H0.25ZM3.85 138.68V127.04H3.35V138.68H3.85ZM3.85 127.04C3.85 122.918 2.93911 120.067 2.03649 117.434C1.13455 114.803 0.25 112.412 0.25 109.16H-0.25C-0.25 112.508 0.665453 114.977 1.56351 117.596C2.46089 120.213 3.35 123.002 3.35 127.04H3.85ZM0.25 109.16C0.25 107.879 0.540645 106.816 1.08268 105.939C1.62501 105.061 2.42832 104.354 3.47669 103.801C5.58186 102.69 8.65198 102.21 12.48 102.21V101.71C8.62802 101.71 5.45814 102.19 3.24331 103.359C2.13168 103.946 1.25499 104.709 0.657323 105.676C0.0593551 106.644 -0.25 107.801 -0.25 109.16H0.25ZM12.48 102.21C16.308 102.21 19.3781 102.69 21.4833 103.801C22.5317 104.354 23.335 105.061 23.8773 105.939C24.4194 106.816 24.71 107.879 24.71 109.16H25.21C25.21 107.801 24.9006 106.644 24.3027 105.676C23.705 104.709 22.8283 103.946 21.7167 103.359C19.5019 102.19 16.332 101.71 12.48 101.71V102.21ZM24.71 109.16C24.71 112.41 23.7965 114.801 22.8644 117.432C21.9316 120.064 20.99 122.917 20.99 127.04H21.49C21.49 123.003 22.4084 120.216 23.3356 117.598C24.2635 114.979 25.21 112.51 25.21 109.16H24.71ZM20.99 127.04V129.8H21.49V127.04H20.99ZM21.24 130.05H42V129.55H21.24V130.05ZM42.25 129.8V127.04H41.75V129.8H42.25ZM42.25 127.04C42.25 122.917 41.3084 120.064 40.3756 117.432C39.4435 114.801 38.53 112.41 38.53 109.16H38.03C38.03 112.51 38.9765 114.979 39.9044 117.598C40.8316 120.216 41.75 123.003 41.75 127.04H42.25ZM38.53 109.16C38.53 107.879 38.8206 106.816 39.3627 105.939C39.905 105.061 40.7083 104.354 41.7567 103.801C43.8619 102.69 46.932 102.21 50.76 102.21V101.71C46.908 101.71 43.7381 102.19 41.5233 103.359C40.4117 103.946 39.535 104.709 38.9373 105.676C38.3394 106.644 38.03 107.801 38.03 109.16H38.53ZM50.76 102.21C54.588 102.21 57.6581 102.69 59.7633 103.801C60.8117 104.354 61.615 105.061 62.1573 105.939C62.6994 106.816 62.99 107.879 62.99 109.16H63.49C63.49 107.801 63.1806 106.644 62.5827 105.676C61.985 104.709 61.1083 103.946 59.9967 103.359C57.7819 102.19 54.612 101.71 50.76 101.71V102.21ZM62.99 109.16C62.99 112.412 62.1055 114.803 61.2035 117.434C60.3009 120.067 59.39 122.918 59.39 127.04H59.89C59.89 123.002 60.7791 120.213 61.6765 117.596C62.5745 114.977 63.49 112.508 63.49 109.16H62.99ZM59.39 127.04V138.68H59.89V127.04H59.39ZM59.39 138.68C59.39 142.802 60.3009 145.653 61.2035 148.286C62.1055 150.917 62.99 153.308 62.99 156.56H63.49C63.49 153.212 62.5745 150.743 61.6765 148.124C60.7791 145.507 59.89 142.718 59.89 138.68H59.39ZM62.99 156.56C62.99 157.841 62.6994 158.896 62.1581 159.761C61.6164 160.627 60.814 161.319 59.7657 161.858C57.6603 162.94 54.5898 163.39 50.76 163.39V163.89C54.6102 163.89 57.7797 163.44 59.9943 162.302C61.106 161.731 61.9836 160.983 62.582 160.026C63.1806 159.069 63.49 157.919 63.49 156.56H62.99ZM50.76 163.39C46.9303 163.39 43.8597 162.94 41.7543 161.858C40.706 161.319 39.9036 160.627 39.362 159.761C38.8206 158.896 38.53 157.841 38.53 156.56H38.03C38.03 157.919 38.3394 159.069 38.9381 160.026C39.5364 160.983 40.414 161.731 41.5257 162.302C43.7403 163.44 46.9098 163.89 50.76 163.89V163.39ZM38.53 156.56C38.53 153.31 39.4435 150.919 40.3756 148.288C41.3084 145.656 42.25 142.803 42.25 138.68H41.75C41.75 142.717 40.8316 145.504 39.9044 148.122C38.9765 150.741 38.03 153.21 38.03 156.56H38.53ZM42.25 138.68V135.92H41.75V138.68H42.25ZM42 135.67H21.24V136.17H42V135.67ZM20.99 135.92V138.68H21.49V135.92H20.99ZM20.99 138.68C20.99 142.803 21.9316 145.656 22.8644 148.288C23.7965 150.919 24.71 153.31 24.71 156.56H25.21C25.21 153.21 24.2635 150.741 23.3356 148.122C22.4084 145.504 21.49 142.717 21.49 138.68H20.99ZM24.71 156.56C24.71 157.841 24.4194 158.896 23.8781 159.761C23.3364 160.627 22.534 161.319 21.4857 161.858C19.3803 162.94 16.3098 163.39 12.48 163.39V163.89C16.3302 163.89 19.4997 163.44 21.7143 162.302C22.826 161.731 23.7036 160.983 24.302 160.026C24.9006 159.069 25.21 157.919 25.21 156.56H24.71ZM12.48 163.39C8.65025 163.39 5.57969 162.94 3.47427 161.858C2.42605 161.319 1.62358 160.627 1.08195 159.761C0.540641 158.896 0.25 157.841 0.25 156.56H-0.25C-0.25 157.919 0.059359 159.069 0.658049 160.026C1.25642 160.983 2.13395 161.731 3.24573 162.302C5.46031 163.44 8.62975 163.89 12.48 163.89V163.39ZM72.0966 153.32L71.8506 153.365L71.8507 153.365L72.0966 153.32ZM102.097 139.88L101.989 140.106L102.41 140.306L102.344 139.845L102.097 139.88ZM86.0166 137.6L86.0936 137.838L86.1025 137.835L86.0166 137.6ZM75.5766 133.16L75.8208 133.107L75.8204 133.105L75.5766 133.16ZM103.897 159.32L104.106 159.183L103.958 158.957L103.744 159.122L103.897 159.32ZM102.457 146.48H102.707V146.318L102.559 146.252L102.457 146.48ZM91.4166 151.04L91.1694 151.079L91.1712 151.088L91.4166 151.04ZM102.457 150.92L102.623 151.107L102.707 151.032V150.92H102.457ZM89.8566 163.39C86.2717 163.39 82.2628 162.941 78.9647 161.447C75.6775 159.958 73.1047 157.438 72.3425 153.275L71.8507 153.365C72.6485 157.722 75.3556 160.362 78.7584 161.903C82.1504 163.439 86.2415 163.89 89.8566 163.89V163.39ZM72.3425 153.275C71.8495 150.578 72.7865 148.11 74.6597 145.985C76.5366 143.856 79.3452 142.083 82.5542 140.802C88.9832 138.237 96.9152 137.687 101.989 140.106L102.204 139.654C96.9579 137.153 88.8699 137.743 82.3689 140.338C79.1129 141.637 76.2291 143.449 74.2846 145.655C72.3366 147.865 71.3236 150.482 71.8506 153.365L72.3425 153.275ZM102.344 139.845C101.921 136.883 101.072 134.263 99.8146 132.376C98.5541 130.486 96.8652 129.31 94.7766 129.31V129.81C96.6479 129.81 98.1991 130.854 99.3986 132.654C100.601 134.457 101.432 136.997 101.849 139.915L102.344 139.845ZM94.7766 129.31C93.485 129.31 92.5693 129.723 91.8549 130.379C91.1524 131.024 90.6549 131.897 90.1764 132.787C89.2069 134.589 88.2867 136.503 85.9307 137.365L86.1025 137.835C88.6664 136.897 89.6662 134.791 90.6167 133.023C91.0982 132.128 91.5608 131.328 92.1932 130.747C92.8138 130.177 93.6081 129.81 94.7766 129.81V129.31ZM85.9396 137.362C83.9603 138.002 81.6204 137.858 79.6741 137.083C77.7253 136.306 76.217 134.918 75.8208 133.107L75.3323 133.213C75.7762 135.242 77.4478 136.734 79.489 137.547C81.5327 138.362 83.9928 138.518 86.0935 137.838L85.9396 137.362ZM75.8204 133.105C75.4206 131.334 75.9295 129.888 77.0594 128.693C78.2005 127.487 79.9792 126.536 82.1076 125.806C86.3611 124.349 91.9103 123.81 96.2166 123.81V123.31C91.8828 123.31 86.2721 123.851 81.9455 125.333C79.7839 126.074 77.9176 127.058 76.6962 128.349C75.4636 129.652 74.8925 131.266 75.3327 133.215L75.8204 133.105ZM96.2166 123.81C101.087 123.81 106.618 125.445 110.926 128.386C115.233 131.327 118.287 135.549 118.287 140.72H118.787C118.787 135.331 115.6 130.973 111.208 127.974C106.815 124.975 101.186 123.31 96.2166 123.31V123.81ZM118.287 140.72V147.92H118.787V140.72H118.287ZM118.287 147.92C118.287 150.076 119.474 151.221 120.586 152.258C121.706 153.302 122.727 154.223 122.727 155.96H123.227C123.227 153.977 122.027 152.918 120.927 151.892C119.819 150.859 118.787 149.844 118.787 147.92H118.287ZM122.727 155.96C122.727 158.06 121.306 159.913 119.255 161.256C117.208 162.596 114.586 163.39 112.297 163.39V163.89C114.688 163.89 117.405 163.064 119.528 161.674C121.648 160.287 123.227 158.3 123.227 155.96H122.727ZM112.297 163.39C108.892 163.39 105.855 161.865 104.106 159.183L103.687 159.457C105.538 162.295 108.742 163.89 112.297 163.89V163.39ZM103.744 159.122C100.668 161.488 96.2822 163.39 89.8566 163.39V163.89C96.3909 163.89 100.885 161.952 104.049 159.518L103.744 159.122ZM102.559 146.252C98.4975 144.433 95.4937 144.588 93.5669 145.756C91.6394 146.925 90.856 149.072 91.1696 151.079L91.6636 151.001C91.3772 149.168 92.0937 147.235 93.8262 146.184C95.5595 145.132 98.3757 144.927 102.354 146.708L102.559 146.252ZM91.1712 151.088C91.4494 152.51 92.029 153.497 92.842 154.092C93.6548 154.687 94.6646 154.863 95.7502 154.738C97.909 154.49 100.446 153.042 102.623 151.107L102.29 150.733C100.147 152.638 97.7041 154.01 95.693 154.242C94.6936 154.357 93.8208 154.188 93.1373 153.688C92.4541 153.188 91.9237 152.33 91.6619 150.992L91.1712 151.088ZM102.707 150.92V146.48H102.207V150.92H102.707ZM175.153 136.52L174.919 136.607L174.92 136.61L175.153 136.52ZM156.553 140.48L156.304 140.499L156.304 140.5L156.553 140.48ZM168.193 149.84L167.978 149.713L167.975 149.718L168.193 149.84ZM174.193 152.6L174.409 152.726L174.41 152.724L174.193 152.6ZM152.833 163.39C139.728 163.39 129.203 154.582 129.203 143.6H128.703C128.703 154.938 139.539 163.89 152.833 163.89V163.39ZM129.203 143.6C129.203 132.737 139.729 123.81 152.833 123.81V123.31C139.538 123.31 128.703 132.383 128.703 143.6H129.203ZM152.833 123.81C162.966 123.81 172.086 128.936 174.919 136.607L175.388 136.433C172.46 128.504 163.1 123.31 152.833 123.31V123.81ZM174.92 136.61C175.337 137.69 175.379 138.68 175.141 139.574C174.903 140.471 174.379 141.286 173.642 142.005C172.163 143.448 169.848 144.478 167.38 144.96C164.914 145.441 162.333 145.367 160.338 144.638C158.351 143.913 156.972 142.554 156.802 140.46L156.304 140.5C156.494 142.846 158.055 144.337 160.167 145.108C162.27 145.876 164.947 145.944 167.476 145.45C170.004 144.957 172.421 143.895 173.991 142.363C174.778 141.596 175.358 140.704 175.624 139.703C175.891 138.699 175.839 137.6 175.386 136.43L174.92 136.61ZM156.802 140.461C156.562 137.338 156.201 134.585 155.608 132.608C155.311 131.621 154.952 130.807 154.506 130.235C154.056 129.658 153.503 129.31 152.833 129.31V129.81C153.304 129.81 153.725 130.047 154.112 130.542C154.502 131.043 154.84 131.789 155.129 132.752C155.705 134.675 156.064 137.382 156.304 140.499L156.802 140.461ZM152.833 129.31C151.607 129.31 150.523 130.322 149.76 131.816C148.989 133.328 148.503 135.408 148.503 137.72H149.003C149.003 135.472 149.477 133.472 150.206 132.044C150.943 130.598 151.899 129.81 152.833 129.81V129.31ZM148.503 137.72C148.503 144.493 152.564 149.161 157.059 151.34C159.305 152.429 161.673 152.903 163.712 152.701C165.752 152.498 167.49 151.614 168.411 149.962L167.975 149.718C167.156 151.186 165.594 152.012 163.663 152.203C161.731 152.395 159.456 151.946 157.277 150.89C152.922 148.779 149.003 144.267 149.003 137.72H148.503ZM168.408 149.967C168.753 149.385 169.402 148.994 170.183 148.81C170.963 148.627 171.844 148.659 172.604 148.894C173.368 149.129 173.976 149.557 174.264 150.137C174.545 150.704 174.547 151.477 173.976 152.476L174.41 152.724C175.039 151.623 175.086 150.671 174.711 149.915C174.343 149.17 173.594 148.676 172.752 148.416C171.907 148.156 170.936 148.12 170.069 148.323C169.205 148.526 168.414 148.975 167.978 149.713L168.408 149.967ZM173.977 152.474C170.189 158.985 162.12 163.39 152.833 163.39V163.89C162.267 163.89 170.517 159.415 174.409 152.726L173.977 152.474ZM203.506 140.84L203.259 140.881L203.331 141.311L203.666 141.032L203.506 140.84ZM205.666 139.04L205.508 138.846L205.506 138.848L205.666 139.04ZM213.946 127.52L214.126 127.694L214.126 127.694L213.946 127.52ZM233.146 131.36L233.32 131.54L233.325 131.534L233.146 131.36ZM220.186 136.76L220.102 136.525L219.796 136.634L219.98 136.902L220.186 136.76ZM221.506 138.68L221.715 138.542L221.712 138.538L221.506 138.68ZM237.586 152.12L237.798 151.988L237.798 151.987L237.586 152.12ZM210.946 157.16L210.741 157.303L210.743 157.305L210.946 157.16ZM206.506 146.12L206.735 146.019L206.6 145.713L206.344 145.929L206.506 146.12ZM204.946 147.44L204.784 147.249L204.655 147.358L204.709 147.519L204.946 147.44ZM183.836 156.56C183.836 153.308 184.72 150.917 185.622 148.286C186.525 145.653 187.436 142.802 187.436 138.68H186.936C186.936 142.718 186.047 145.507 185.149 148.124C184.251 150.743 183.336 153.212 183.336 156.56H183.836ZM187.436 138.68V127.04H186.936V138.68H187.436ZM187.436 127.04C187.436 122.918 186.525 120.067 185.622 117.434C184.72 114.803 183.836 112.412 183.836 109.16H183.336C183.336 112.508 184.251 114.977 185.149 117.596C186.047 120.213 186.936 123.002 186.936 127.04H187.436ZM183.836 109.16C183.836 107.872 184.085 106.805 184.563 105.927C185.041 105.05 185.755 104.347 186.711 103.797C188.632 102.691 191.516 102.21 195.346 102.21V101.71C191.495 101.71 188.5 102.189 186.461 103.363C185.436 103.953 184.651 104.72 184.124 105.688C183.597 106.655 183.336 107.808 183.336 109.16H183.836ZM195.346 102.21C199.115 102.21 201.97 102.691 203.875 103.796C204.823 104.346 205.535 105.049 206.011 105.927C206.487 106.805 206.736 107.872 206.736 109.16H207.236C207.236 107.808 206.975 106.655 206.45 105.688C205.925 104.721 205.144 103.954 204.126 103.364C202.102 102.189 199.137 101.71 195.346 101.71V102.21ZM206.736 109.16C206.736 112.412 205.851 114.803 204.949 117.434C204.047 120.067 203.136 122.918 203.136 127.04H203.636C203.636 123.002 204.525 120.213 205.422 117.596C206.32 114.977 207.236 112.508 207.236 109.16H206.736ZM203.136 127.04V138.68H203.636V127.04H203.136ZM203.136 138.68C203.136 139.397 203.135 140.137 203.259 140.881L203.753 140.799C203.636 140.103 203.636 139.403 203.636 138.68H203.136ZM203.666 141.032L205.826 139.232L205.506 138.848L203.346 140.648L203.666 141.032ZM205.824 139.234C209.094 136.569 210.347 134.529 211.202 132.711C212.056 130.897 212.483 129.395 214.126 127.694L213.766 127.346C212.049 129.125 211.576 130.743 210.75 132.499C209.925 134.251 208.718 136.231 205.508 138.846L205.824 139.234ZM214.126 127.694C217.29 124.412 221.637 123.81 226.186 123.81V123.31C221.615 123.31 217.082 123.908 213.766 127.346L214.126 127.694ZM226.186 123.81C229.026 123.81 231.717 124.7 233.186 126.068C233.916 126.748 234.33 127.531 234.34 128.372C234.35 129.215 233.957 130.167 232.967 131.186L233.325 131.534C234.375 130.453 234.852 129.38 234.84 128.366C234.827 127.352 234.326 126.447 233.526 125.702C231.935 124.22 229.106 123.31 226.186 123.31V123.81ZM232.972 131.181C231.029 133.065 229.088 133.949 226.998 134.586C225.948 134.906 224.866 135.163 223.719 135.455C222.575 135.746 221.373 136.071 220.102 136.525L220.27 136.995C221.519 136.549 222.702 136.229 223.842 135.939C224.978 135.65 226.079 135.389 227.144 135.064C229.284 134.411 231.303 133.495 233.32 131.539L232.972 131.181ZM219.98 136.902L221.3 138.822L221.712 138.538L220.392 136.618L219.98 136.902ZM221.297 138.818C223.553 142.232 226.662 144.087 229.644 145.841C232.639 147.601 235.492 149.253 237.374 152.253L237.798 151.987C235.84 148.867 232.873 147.159 229.898 145.409C226.91 143.653 223.899 141.848 221.715 138.542L221.297 138.818ZM237.374 152.252C238.174 153.538 238.279 154.856 237.876 156.122C237.471 157.397 236.546 158.631 235.265 159.714C232.7 161.881 228.767 163.39 224.986 163.39V163.89C228.885 163.89 232.932 162.339 235.587 160.096C236.916 158.974 237.911 157.665 238.353 156.274C238.798 154.874 238.678 153.402 237.798 151.988L237.374 152.252ZM224.986 163.39C221.156 163.39 218.591 163.03 216.543 162.064C214.499 161.101 212.939 159.521 211.149 157.015L210.743 157.305C212.552 159.839 214.173 161.499 216.329 162.516C218.481 163.53 221.136 163.89 224.986 163.89V163.39ZM211.151 157.017C209.912 155.247 209.261 153.535 208.694 151.745C208.129 149.959 207.642 148.076 206.735 146.019L206.277 146.221C207.17 148.244 207.643 150.081 208.218 151.895C208.791 153.705 209.46 155.473 210.741 157.303L211.151 157.017ZM206.344 145.929L204.784 147.249L205.107 147.631L206.667 146.311L206.344 145.929ZM204.709 147.519C205.674 150.415 206.736 153.01 206.736 156.56H207.236C207.236 152.91 206.138 150.225 205.183 147.361L204.709 147.519ZM206.736 156.56C206.736 157.848 206.487 158.907 206.011 159.773C205.536 160.639 204.826 161.327 203.878 161.862C201.972 162.939 199.117 163.39 195.346 163.39V163.89C199.135 163.89 202.1 163.441 204.124 162.298C205.141 161.723 205.924 160.971 206.449 160.014C206.975 159.058 207.236 157.912 207.236 156.56H206.736ZM195.346 163.39C191.515 163.39 188.629 162.939 186.708 161.862C185.753 161.327 185.039 160.638 184.562 159.773C184.085 158.907 183.836 157.848 183.836 156.56H183.336C183.336 157.912 183.597 159.058 184.125 160.014C184.652 160.972 185.439 161.723 186.464 162.298C188.502 163.441 191.497 163.89 195.346 163.89V163.39ZM250.139 143.6L250.296 143.406L250.295 143.404L250.139 143.6ZM289.619 131.84L289.379 131.909L289.381 131.918L289.619 131.84ZM275.459 133.88L275.286 134.06L275.291 134.065L275.459 133.88ZM265.139 131.72L265.389 131.729V131.72H265.139ZM286.499 143.6L286.663 143.411L286.661 143.41L286.499 143.6ZM246.899 155.36L246.66 155.433L246.66 155.434L246.899 155.36ZM261.059 153.44L260.885 153.62L260.89 153.624L261.059 153.44ZM250.295 143.404C248.001 141.581 246.92 139.462 246.823 137.319C246.725 135.17 247.614 132.958 249.339 130.953C252.79 126.941 259.553 123.81 268.139 123.81V123.31C259.445 123.31 252.528 126.479 248.96 130.627C247.174 132.702 246.218 135.035 246.323 137.341C246.428 139.653 247.597 141.899 249.984 143.796L250.295 143.404ZM268.139 123.81C272.436 123.81 277.388 124.527 281.453 125.912C283.486 126.604 285.287 127.46 286.672 128.47C288.059 129.481 289.01 130.632 289.379 131.909L289.859 131.771C289.448 130.348 288.404 129.114 286.967 128.066C285.528 127.017 283.677 126.141 281.615 125.438C277.49 124.033 272.483 123.31 268.139 123.31V123.81ZM289.381 131.918C289.593 132.568 289.599 133.122 289.456 133.592C289.312 134.063 289.014 134.47 288.583 134.816C287.715 135.512 286.328 135.935 284.722 136.076C283.123 136.216 281.34 136.072 279.707 135.664C278.07 135.256 276.606 134.587 275.628 133.695L275.291 134.065C276.352 135.033 277.903 135.729 279.585 136.149C281.271 136.57 283.11 136.719 284.766 136.574C286.415 136.43 287.916 135.991 288.896 135.206C289.39 134.81 289.756 134.322 289.934 133.738C290.112 133.153 290.095 132.492 289.857 131.762L289.381 131.918ZM275.632 133.7C272.673 130.861 270.043 129.56 268.12 129.356C267.157 129.255 266.35 129.427 265.777 129.848C265.197 130.274 264.889 130.931 264.889 131.72H265.389C265.389 131.069 265.637 130.571 266.073 130.251C266.516 129.926 267.186 129.76 268.068 129.854C269.835 130.04 272.366 131.259 275.286 134.06L275.632 133.7ZM264.889 131.711C264.871 132.242 265.141 132.729 265.573 133.173C266.005 133.617 266.626 134.046 267.375 134.469C268.873 135.315 270.944 136.168 273.205 137.082C277.752 138.918 283.075 141.003 286.337 143.79L286.661 143.41C283.323 140.557 277.906 138.442 273.393 136.618C271.124 135.702 269.085 134.86 267.621 134.034C266.888 133.62 266.315 133.218 265.931 132.824C265.546 132.429 265.377 132.068 265.389 131.729L264.889 131.711ZM286.335 143.789C288.542 145.702 289.582 147.867 289.662 150.031C289.741 152.199 288.858 154.4 287.15 156.382C283.729 160.348 277.027 163.39 268.379 163.39V163.89C277.131 163.89 283.989 160.812 287.528 156.708C289.3 154.655 290.247 152.334 290.161 150.013C290.076 147.688 288.956 145.398 286.663 143.411L286.335 143.789ZM268.379 163.39C264.083 163.39 259.16 162.673 255.11 161.288C253.085 160.596 251.287 159.74 249.896 158.73C248.504 157.719 247.536 156.566 247.138 155.286L246.66 155.434C247.102 156.854 248.159 158.086 249.602 159.134C251.046 160.183 252.893 161.059 254.948 161.762C259.058 163.167 264.035 163.89 268.379 163.89V163.39ZM247.138 155.287C246.941 154.638 246.947 154.084 247.1 153.613C247.254 153.141 247.562 152.733 248 152.388C248.885 151.692 250.28 151.272 251.885 151.139C253.483 151.007 255.259 151.161 256.876 151.586C258.497 152.011 259.937 152.7 260.885 153.619L261.233 153.261C260.201 152.26 258.671 151.539 257.003 151.102C255.332 150.664 253.5 150.503 251.843 150.641C250.194 150.778 248.686 151.213 247.691 151.995C247.191 152.389 246.815 152.875 246.625 153.458C246.435 154.041 246.437 154.702 246.66 155.433L247.138 155.287ZM260.89 153.624C263.909 156.402 266.568 157.671 268.505 157.859C269.475 157.953 270.285 157.776 270.86 157.354C271.441 156.926 271.749 156.269 271.749 155.48H271.249C271.249 156.131 271.002 156.629 270.563 156.951C270.118 157.279 269.443 157.447 268.553 157.361C266.77 157.189 264.209 155.998 261.228 153.256L260.89 153.624ZM271.749 155.48C271.749 154.966 271.474 154.494 271.044 154.06C270.614 153.625 270.001 153.202 269.264 152.782C267.789 151.942 265.756 151.085 263.524 150.164C259.04 148.313 253.741 146.197 250.296 143.406L249.982 143.794C253.497 146.643 258.878 148.787 263.334 150.626C265.572 151.55 267.574 152.395 269.017 153.217C269.738 153.627 270.305 154.024 270.689 154.412C271.075 154.801 271.249 155.154 271.249 155.48H271.749Z" fill="#F05F71"/>
<path d="M13.328 204.992C13.9253 205.403 14.224 205.981 14.224 206.728V232.6C14.224 234.616 13.8507 236.333 13.104 237.752C12.3573 239.208 11.4427 240.421 10.36 241.392C9.31467 242.363 8.21333 243.109 7.056 243.632C5.936 244.192 4.984 244.603 4.2 244.864C3.78933 245.013 3.37867 245.013 2.968 244.864C2.55733 244.715 2.24 244.453 2.016 244.08C1.53067 243.259 1.58667 242.512 2.184 241.84C2.70667 241.243 3.248 240.309 3.808 239.04C4.40533 237.771 4.704 236.072 4.704 233.944V211.88L2.856 210.2C2.44533 209.864 2.24 209.416 2.24 208.856C2.24 207.997 2.65067 207.419 3.472 207.12L4.704 206.784L11.48 204.712C12.1893 204.525 12.8053 204.619 13.328 204.992ZM7.728 192.672C8.512 192.523 9.25867 192.504 9.968 192.616C10.7147 192.728 11.3867 192.952 11.984 193.288C12.5813 193.624 13.0853 194.072 13.496 194.632C13.944 195.192 14.2613 195.827 14.448 196.536C14.784 197.955 14.5227 199.28 13.664 200.512C12.8427 201.744 11.6667 202.547 10.136 202.92C9.352 203.107 8.58667 203.144 7.84 203.032C7.13067 202.92 6.47733 202.696 5.88 202.36C5.28267 201.987 4.76 201.539 4.312 201.016C3.864 200.456 3.56533 199.821 3.416 199.112C3.22933 198.403 3.21067 197.712 3.36 197.04C3.50933 196.331 3.77067 195.696 4.144 195.136C4.55467 194.539 5.05867 194.035 5.656 193.624C6.29067 193.176 6.98133 192.859 7.728 192.672ZM51.4946 231.368C51.756 231.629 51.8866 231.965 51.8866 232.376C51.8866 232.787 51.7186 233.16 51.3826 233.496C51.084 233.795 50.7293 233.944 50.3186 233.944H43.9346C42.964 233.944 42.1053 233.645 41.3586 233.048C40.612 232.413 40.1453 231.629 39.9586 230.696C38.876 231.667 37.5693 232.544 36.0386 233.328C34.5453 234.112 32.8653 234.504 30.9986 234.504C29.7293 234.504 28.5346 234.336 27.4146 234C26.2946 233.701 25.324 233.253 24.5026 232.656C23.6813 232.021 23.028 231.237 22.5426 230.304C22.0946 229.371 21.8706 228.288 21.8706 227.056C21.8706 225.787 22.188 224.648 22.8226 223.64C23.4573 222.595 24.2973 221.699 25.3426 220.952C26.388 220.168 27.564 219.496 28.8706 218.936C30.1773 218.376 31.5026 217.909 32.8466 217.536C34.1906 217.163 35.46 216.864 36.6546 216.64C37.8866 216.416 38.9506 216.248 39.8466 216.136V214.344C39.8466 213.037 39.716 211.936 39.4546 211.04C39.1933 210.107 38.8386 209.36 38.3906 208.8C37.9426 208.24 37.4386 207.829 36.8786 207.568C36.3186 207.307 35.74 207.176 35.1426 207.176C34.508 207.176 33.948 207.325 33.4626 207.624C33.0146 207.885 32.6413 208.24 32.3426 208.688C32.044 209.136 31.8013 209.677 31.6146 210.312C31.428 210.909 31.2786 211.544 31.1666 212.216C31.0546 213.075 30.6626 213.803 29.9906 214.4C29.3186 214.997 28.5346 215.296 27.6386 215.296C26.892 215.296 26.2386 215.109 25.6786 214.736C25.1186 214.363 24.6893 213.896 24.3906 213.336C24.092 212.776 23.9613 212.16 23.9986 211.488C24.036 210.816 24.2786 210.181 24.7266 209.584C25.9213 207.941 27.564 206.709 29.6546 205.888C31.7453 205.067 33.892 204.656 36.0946 204.656C37.9986 204.656 39.7533 204.843 41.3586 205.216C43.0013 205.552 44.4013 206.168 45.5586 207.064C46.7533 207.923 47.6866 209.08 48.3586 210.536C49.0306 211.955 49.3666 213.728 49.3666 215.856V228.848L51.4946 231.368ZM31.9506 226.104C31.9506 228.792 33.0146 230.136 35.1426 230.136C35.964 230.136 36.7853 229.893 37.6066 229.408C38.428 228.885 39.1746 228.307 39.8466 227.672V218.544C38.9506 218.693 38.036 218.936 37.1026 219.272C36.1693 219.608 35.3106 220.075 34.5266 220.672C33.78 221.269 33.164 222.016 32.6786 222.912C32.1933 223.808 31.9506 224.872 31.9506 226.104ZM88.5071 231.368C88.7685 231.629 88.8991 231.965 88.8991 232.376C88.8991 232.787 88.7311 233.16 88.3951 233.496C88.0965 233.795 87.7418 233.944 87.3311 233.944H75.9631C75.5151 233.944 75.1418 233.795 74.8431 233.496C74.5445 233.16 74.3951 232.787 74.3951 232.376C74.3951 232.003 74.5071 231.667 74.7311 231.368L76.8591 228.848V217.368C76.8591 214.045 76.6351 211.712 76.1871 210.368C75.7391 209.024 74.8991 208.352 73.6671 208.352C72.9205 208.352 72.1925 208.632 71.4831 209.192C70.7738 209.752 70.1205 210.405 69.5231 211.152V228.848L71.6511 231.368C71.9125 231.704 72.0431 232.04 72.0431 232.376C72.0431 232.787 71.8751 233.16 71.5391 233.496C71.2405 233.795 70.8858 233.944 70.4751 233.944H59.0511C58.6405 233.944 58.2671 233.795 57.9311 233.496C57.6325 233.16 57.4831 232.787 57.4831 232.376C57.4831 232.04 57.6138 231.704 57.8751 231.368L60.0031 228.848V211.88L58.0991 210.2C57.6885 209.864 57.4831 209.416 57.4831 208.856C57.4831 207.997 57.9125 207.419 58.7711 207.12L60.0031 206.784L66.7791 204.712C67.4885 204.525 68.0858 204.619 68.5711 204.992C69.2058 205.403 69.5231 205.981 69.5231 206.728V207.848C70.3818 206.989 71.3898 206.261 72.5471 205.664C73.7418 205.029 75.0671 204.712 76.5231 204.712C77.5685 204.712 78.6698 204.899 79.8271 205.272C80.9845 205.608 82.0485 206.205 83.0191 207.064C83.9898 207.923 84.7925 209.099 85.4271 210.592C86.0618 212.085 86.3791 213.971 86.3791 216.248V228.848L88.5071 231.368ZM140.592 221.904C141.115 221.904 141.526 222.109 141.824 222.52C142.16 222.893 142.291 223.341 142.216 223.864L140.816 232.544C140.742 232.955 140.555 233.291 140.256 233.552C139.958 233.813 139.603 233.944 139.192 233.944H113.6C113.115 233.944 112.704 233.776 112.368 233.44C112.032 233.067 111.883 232.637 111.92 232.152C112.144 229.389 112.779 227 113.824 224.984C114.907 222.931 116.176 221.139 117.632 219.608C119.126 218.04 120.694 216.64 122.336 215.408C124.016 214.176 125.547 212.963 126.928 211.768C128.347 210.573 129.504 209.341 130.4 208.072C131.334 206.765 131.8 205.272 131.8 203.592C131.8 202.883 131.726 202.173 131.576 201.464C131.427 200.755 131.203 200.139 130.904 199.616C130.606 199.056 130.214 198.608 129.728 198.272C129.243 197.936 128.664 197.768 127.992 197.768C126.723 197.768 125.752 198.477 125.08 199.896C124.446 201.277 124.016 203.293 123.792 205.944C123.718 206.84 123.438 207.643 122.952 208.352C122.504 209.061 121.926 209.621 121.216 210.032C120.544 210.443 119.779 210.704 118.92 210.816C118.099 210.891 117.278 210.76 116.456 210.424C115.187 209.901 114.254 209.043 113.656 207.848C113.059 206.653 112.928 205.403 113.264 204.096C113.787 202.155 114.59 200.512 115.672 199.168C116.792 197.787 118.024 196.685 119.368 195.864C120.75 195.005 122.187 194.389 123.68 194.016C125.211 193.643 126.648 193.456 127.992 193.456C129.784 193.456 131.52 193.68 133.2 194.128C134.88 194.576 136.374 195.267 137.68 196.2C139.024 197.133 140.088 198.309 140.872 199.728C141.694 201.147 142.104 202.808 142.104 204.712C142.104 206.989 141.6 208.856 140.592 210.312C139.622 211.768 138.371 212.981 136.84 213.952C135.31 214.923 133.63 215.744 131.8 216.416C129.971 217.051 128.216 217.723 126.536 218.432C124.856 219.141 123.363 219.963 122.056 220.896C120.75 221.792 119.854 222.968 119.368 224.424H133.76C134.806 224.424 135.814 224.256 136.784 223.92C137.792 223.547 138.707 223.005 139.528 222.296C139.864 222.035 140.219 221.904 140.592 221.904ZM169.463 206.728C171.404 206.728 173.196 207.064 174.839 207.736C176.519 208.371 177.937 209.304 179.095 210.536C180.289 211.731 181.223 213.224 181.895 215.016C182.567 216.771 182.903 218.768 182.903 221.008C182.903 223.136 182.492 225.189 181.671 227.168C180.849 229.109 179.692 230.845 178.199 232.376C176.705 233.869 174.932 235.064 172.879 235.96C170.863 236.893 168.623 237.36 166.159 237.36C162.911 237.36 160.148 236.763 157.871 235.568C155.631 234.373 153.801 232.768 152.383 230.752C151.001 228.736 149.993 226.403 149.359 223.752C148.724 221.101 148.407 218.32 148.407 215.408C148.407 211.488 148.836 207.96 149.695 204.824C150.553 201.688 151.748 199.037 153.279 196.872C154.847 194.669 156.713 192.989 158.879 191.832C161.044 190.675 163.433 190.096 166.047 190.096C168.735 190.096 171.292 190.581 173.719 191.552C176.145 192.485 178.087 194.016 179.543 196.144C179.991 196.816 180.271 197.544 180.383 198.328C180.495 199.112 180.439 199.877 180.215 200.624C179.991 201.333 179.617 201.987 179.095 202.584C178.572 203.144 177.937 203.592 177.191 203.928C176.407 204.227 175.623 204.357 174.839 204.32C174.092 204.245 173.383 204.021 172.711 203.648C172.039 203.275 171.46 202.789 170.975 202.192C170.527 201.557 170.228 200.829 170.079 200.008C169.78 198.403 169.313 197.115 168.679 196.144C168.044 195.173 167.167 194.688 166.047 194.688C165.449 194.688 164.74 194.968 163.919 195.528C163.097 196.088 162.295 197.003 161.511 198.272C160.764 199.541 160.129 201.184 159.607 203.2C159.084 205.216 158.823 207.699 158.823 210.648C159.569 209.939 160.465 209.285 161.511 208.688C162.407 208.203 163.508 207.755 164.815 207.344C166.121 206.933 167.671 206.728 169.463 206.728ZM165.935 232.208C167.017 232.208 167.988 231.947 168.847 231.424C169.705 230.901 170.415 230.192 170.975 229.296C171.572 228.363 172.02 227.261 172.319 225.992C172.655 224.723 172.823 223.341 172.823 221.848C172.823 220.317 172.655 218.917 172.319 217.648C171.983 216.341 171.516 215.24 170.919 214.344C170.321 213.411 169.593 212.701 168.735 212.216C167.876 211.693 166.924 211.432 165.879 211.432C164.273 211.432 162.948 211.955 161.903 213C160.895 214.008 160.148 215.277 159.663 216.808C159.215 218.339 159.009 220.019 159.047 221.848C159.084 223.64 159.364 225.301 159.887 226.832C160.447 228.363 161.231 229.651 162.239 230.696C163.247 231.704 164.479 232.208 165.935 232.208ZM227.914 215.128C227.914 215.576 227.746 215.968 227.41 216.304C227.112 216.64 226.72 216.808 226.234 216.808H208.09C207.642 216.808 207.25 216.64 206.914 216.304C206.578 215.968 206.41 215.576 206.41 215.128V212.048C206.41 211.563 206.578 211.171 206.914 210.872C207.25 210.536 207.642 210.368 208.09 210.368H226.234C226.72 210.368 227.112 210.536 227.41 210.872C227.746 211.171 227.914 211.563 227.914 212.048V215.128ZM280.155 221.904C280.678 221.904 281.088 222.109 281.387 222.52C281.723 222.893 281.854 223.341 281.779 223.864L280.379 232.544C280.304 232.955 280.118 233.291 279.819 233.552C279.52 233.813 279.166 233.944 278.755 233.944H253.163C252.678 233.944 252.267 233.776 251.931 233.44C251.595 233.067 251.446 232.637 251.483 232.152C251.707 229.389 252.342 227 253.387 224.984C254.47 222.931 255.739 221.139 257.195 219.608C258.688 218.04 260.256 216.64 261.899 215.408C263.579 214.176 265.11 212.963 266.491 211.768C267.91 210.573 269.067 209.341 269.963 208.072C270.896 206.765 271.363 205.272 271.363 203.592C271.363 202.883 271.288 202.173 271.139 201.464C270.99 200.755 270.766 200.139 270.467 199.616C270.168 199.056 269.776 198.608 269.291 198.272C268.806 197.936 268.227 197.768 267.555 197.768C266.286 197.768 265.315 198.477 264.643 199.896C264.008 201.277 263.579 203.293 263.355 205.944C263.28 206.84 263 207.643 262.515 208.352C262.067 209.061 261.488 209.621 260.779 210.032C260.107 210.443 259.342 210.704 258.483 210.816C257.662 210.891 256.84 210.76 256.019 210.424C254.75 209.901 253.816 209.043 253.219 207.848C252.622 206.653 252.491 205.403 252.827 204.096C253.35 202.155 254.152 200.512 255.235 199.168C256.355 197.787 257.587 196.685 258.931 195.864C260.312 195.005 261.75 194.389 263.243 194.016C264.774 193.643 266.211 193.456 267.555 193.456C269.347 193.456 271.083 193.68 272.763 194.128C274.443 194.576 275.936 195.267 277.243 196.2C278.587 197.133 279.651 198.309 280.435 199.728C281.256 201.147 281.667 202.808 281.667 204.712C281.667 206.989 281.163 208.856 280.155 210.312C279.184 211.768 277.934 212.981 276.403 213.952C274.872 214.923 273.192 215.744 271.363 216.416C269.534 217.051 267.779 217.723 266.099 218.432C264.419 219.141 262.926 219.963 261.619 220.896C260.312 221.792 259.416 222.968 258.931 224.424H273.323C274.368 224.424 275.376 224.256 276.347 223.92C277.355 223.547 278.27 223.005 279.091 222.296C279.427 222.035 279.782 221.904 280.155 221.904ZM310.817 209.64C311.9 210.424 312.926 211.283 313.897 212.216C314.905 213.112 315.782 214.101 316.529 215.184C317.276 216.229 317.873 217.368 318.321 218.6C318.769 219.832 318.993 221.195 318.993 222.688C318.993 225.003 318.508 226.888 317.537 228.344C316.566 229.8 315.316 230.939 313.785 231.76C312.292 232.581 310.612 233.16 308.745 233.496C306.878 233.795 305.049 233.944 303.257 233.944C301.241 233.944 299.318 233.739 297.489 233.328C295.66 232.917 294.036 232.301 292.617 231.48C291.198 230.621 290.06 229.539 289.201 228.232C288.38 226.925 287.969 225.376 287.969 223.584C287.969 222.091 288.23 220.747 288.753 219.552C289.276 218.32 289.929 217.219 290.713 216.248C291.534 215.277 292.412 214.437 293.345 213.728C294.278 213.019 295.137 212.44 295.921 211.992C295.062 211.32 294.241 210.611 293.457 209.864C292.71 209.117 292.057 208.296 291.497 207.4C290.937 206.467 290.489 205.459 290.153 204.376C289.854 203.293 289.705 202.099 289.705 200.792C289.705 198.589 290.19 196.797 291.161 195.416C292.169 194.035 293.401 192.952 294.857 192.168C296.313 191.384 297.844 190.843 299.449 190.544C301.092 190.245 302.529 190.096 303.761 190.096C307.793 190.096 310.948 190.824 313.225 192.28C315.54 193.699 316.697 195.939 316.697 199C316.697 201.24 316.174 203.181 315.129 204.824C314.084 206.429 312.646 208.035 310.817 209.64ZM305.049 194.576C303.481 194.576 302.193 194.931 301.185 195.64C300.177 196.349 299.673 197.339 299.673 198.608C299.673 199.429 299.878 200.213 300.289 200.96C300.737 201.707 301.316 202.435 302.025 203.144C302.772 203.816 303.612 204.507 304.545 205.216C305.478 205.888 306.468 206.579 307.513 207.288C308.633 206.093 309.398 204.768 309.809 203.312C310.257 201.819 310.369 200.437 310.145 199.168C309.958 197.861 309.436 196.779 308.577 195.92C307.718 195.024 306.542 194.576 305.049 194.576ZM301.745 229.464C302.641 229.464 303.518 229.371 304.377 229.184C305.236 228.96 306.001 228.643 306.673 228.232C307.345 227.784 307.886 227.243 308.297 226.608C308.708 225.973 308.913 225.227 308.913 224.368C308.913 223.285 308.652 222.315 308.129 221.456C307.606 220.56 306.916 219.739 306.057 218.992C305.198 218.208 304.209 217.461 303.089 216.752C301.969 216.043 300.83 215.315 299.673 214.568C299.225 214.979 298.74 215.464 298.217 216.024C297.694 216.584 297.209 217.256 296.761 218.04C296.313 218.787 295.94 219.664 295.641 220.672C295.38 221.643 295.249 222.725 295.249 223.92C295.249 224.592 295.38 225.264 295.641 225.936C295.902 226.608 296.294 227.205 296.817 227.728C297.377 228.251 298.049 228.68 298.833 229.016C299.654 229.315 300.625 229.464 301.745 229.464Z" fill="#C8428C"/>
</svg>
