<svg width="847" height="709" viewBox="0 0 847 709" fill="none" xmlns="http://www.w3.org/2000/svg">
<rect x="34" y="-217" width="1137" height="892" fill="url(#paint0_linear_1252_257)" stroke="#F2EBD1" stroke-width="68"/>
<path fill-rule="evenodd" clip-rule="evenodd" d="M627.188 394.957H439.15C438.261 375.254 441.19 356.24 448.205 337.918C458.686 310.543 475.96 288.361 499.994 271.58C547.104 238.686 609.816 237.407 657.894 268.377C709.498 301.617 725.821 355.452 723.395 394.957H627.188ZM645.673 398.228L723.42 398.228L721.894 411.46H440.753L439.226 398.228L645.673 398.228ZM444.471 427.974H631.148L716.313 427.974C716.421 427.974 716.531 427.983 716.642 427.991C716.894 428.01 717.146 428.03 717.36 427.948C717.703 427.818 718.168 427.548 718.245 427.252C719.1 423.948 719.919 420.635 720.751 417.263C720.955 416.439 721.159 415.611 721.365 414.779H441.324L444.471 427.974ZM510.198 431.294H717.151C716.823 432.202 716.503 433.094 716.187 433.975C715.437 436.065 714.711 438.091 713.955 440.105C713.809 440.497 713.681 440.925 713.552 441.356C713.196 442.552 712.832 443.774 712.027 444.321C711.243 444.854 710.017 444.752 708.805 444.651C708.324 444.611 707.845 444.571 707.396 444.571C692.546 444.572 677.697 444.572 662.847 444.573C592.636 444.575 522.425 444.578 452.213 444.609C450.91 444.609 450.258 444.282 449.826 443.031C448.977 440.57 448.071 438.129 447.164 435.688L447.164 435.687L447.163 435.685L447.163 435.685C446.742 434.551 446.321 433.417 445.905 432.281C445.84 432.101 445.804 431.911 445.762 431.683C445.74 431.564 445.716 431.436 445.685 431.294H510.198ZM682.255 461.154L702.847 461.154C702.971 461.09 703.097 461.032 703.222 460.975C703.614 460.795 703.978 460.627 704.13 460.345C706.065 456.762 707.953 453.153 709.84 449.544L710.341 448.586C710.415 448.445 710.443 448.279 710.469 448.124C710.48 448.056 710.491 447.989 710.506 447.928H451.821C452.42 449.05 453.012 450.153 453.598 451.244L453.605 451.258L453.613 451.273L453.616 451.278C455.161 454.156 456.66 456.949 458.117 459.764C458.672 460.836 459.359 461.184 460.574 461.183C534.437 461.154 608.299 461.154 682.253 461.154H682.253H682.254H682.254H682.255ZM648.578 477.58L629.999 477.58H629.906H629.903H629.899C577.268 477.579 524.732 477.579 472.196 477.606C470.894 477.606 470.021 477.304 469.253 476.18C467.493 473.602 465.675 471.064 463.858 468.525L463.857 468.524C463.092 467.455 462.328 466.387 461.567 465.316C461.455 465.157 461.357 464.989 461.239 464.785C461.176 464.678 461.109 464.561 461.03 464.431H701.591C701.532 464.533 701.476 464.634 701.421 464.735L701.378 464.815L701.335 464.894C701.164 465.21 701 465.513 700.802 465.79C699.874 467.086 698.941 468.379 698.009 469.671L697.996 469.69L697.993 469.694C696.309 472.03 694.625 474.365 692.965 476.718C692.465 477.427 691.901 477.596 691.09 477.595C679.513 477.578 667.937 477.579 656.288 477.58H656.278H656.267H656.257C653.701 477.58 651.142 477.58 648.578 477.58ZM598.208 494.181L613.455 494.181C616.818 494.181 620.176 494.18 623.532 494.18C640.818 494.179 658.026 494.178 675.234 494.202C676.192 494.203 676.91 493.959 677.569 493.28C679.682 491.105 681.803 488.938 683.925 486.77C685.402 485.261 686.879 483.752 688.354 482.24C688.585 482.003 688.789 481.741 689.02 481.445L689.02 481.444L689.02 481.444C689.136 481.295 689.259 481.137 689.395 480.97H473.397L473.183 481.308C474.202 482.333 475.223 483.357 476.243 484.381C479.128 487.276 482.013 490.171 484.877 493.088C485.671 493.897 486.508 494.205 487.654 494.205C524.472 494.18 561.289 494.18 598.197 494.181H598.202H598.208ZM607.381 510.579L595.733 510.58H595.728C566.987 510.58 538.336 510.581 509.685 510.549C508.823 510.548 507.815 510.307 507.123 509.824C502.723 506.754 498.362 503.629 494 500.505L493.996 500.502C492.897 499.715 491.798 498.927 490.698 498.14C490.566 498.046 490.448 497.933 490.29 497.781L490.29 497.781L490.29 497.78C490.202 497.696 490.102 497.6 489.98 497.488H672.374L672.768 497.863C672.668 497.904 672.564 497.939 672.46 497.975C672.237 498.051 672.013 498.126 671.829 498.257C670.023 499.536 668.219 500.818 666.415 502.099L666.412 502.101C662.669 504.762 658.925 507.422 655.162 510.055C654.639 510.42 653.856 510.557 653.193 510.558C640.362 510.581 627.531 510.581 614.621 510.58H614.613C612.777 510.58 610.939 510.579 609.1 510.579H607.381ZM648.073 513.833L573.578 513.833H514.576C528.291 521.392 542.827 526.334 558.195 528.834C573.644 531.347 589.068 531.187 604.544 528.874C616.664 527.062 644.134 517.844 648.073 513.833Z" fill="url(#paint1_linear_1252_257)"/>
<path d="M614.402 448.039C615.342 448.644 616.143 449.122 616.916 449.642C619.469 451.36 621.943 451.076 624.096 449.046C626.252 447.013 628.268 444.815 630.213 442.571C631.458 441.136 632.52 441.084 633.747 442.455C635.789 444.734 637.785 447.058 639.893 449.273C641.998 451.485 643.124 451.356 644.937 448.837C645.781 447.664 646.483 446.382 647.358 445.235C648.938 443.164 650.056 443.02 651.99 444.658C667.25 457.576 684.853 466.079 703.541 472.424C707.576 473.794 711.987 473.986 716.159 475.001C719.183 475.736 722.145 476.813 725.049 477.96C728.08 479.157 730.901 479.141 733.808 477.574C740.056 474.207 746.36 470.948 753.06 467.424C753.957 468.729 755.046 470.301 756.122 471.882C761.814 480.25 774.563 482.778 782.633 476.759C786.192 474.104 789.214 470.678 792.327 467.45C797.497 462.089 799.427 461.929 804.614 467.174C808.078 470.675 811.441 474.29 814.675 478.009C818.448 482.348 823.031 485.163 828.303 487.423C838.471 491.78 848.38 496.76 858.374 501.531C866.095 505.216 873.864 508.717 882.329 510.354C895.521 512.905 907.237 509.474 917.875 501.554C919.507 500.34 921.164 499.126 922.62 497.712C927.069 493.389 932.502 491.696 938.423 492.211C946.487 492.913 954.5 494.189 962.545 495.135C969.635 495.968 976.708 496.511 983.307 492.726C983.85 492.414 984.768 492.592 985.461 492.757C997.738 495.683 1008.5 501.321 1017.34 510.615C1019.41 512.792 1022.15 514.311 1024.48 516.245C1025.15 516.798 1025.92 517.741 1025.93 518.515C1026.03 526.464 1025.99 634.859 1025.99 643C707.985 643 390.066 643 72 643C72 628.096 72 512.711 72 498.38C83.7573 491.345 95.3003 484.438 106.843 477.53C109.732 475.802 112.823 475.988 115.946 476.562C118.106 476.959 120.265 477.755 122.414 477.721C125.03 477.68 127.749 477.288 130.212 476.429C132.552 475.613 134.524 475.662 136.398 477.114C138.473 478.722 140.419 480.501 142.419 482.209C144.594 484.066 146.804 484.515 149.647 483.409C158.79 479.852 166.365 473.882 173.963 467.89C177.492 465.108 181.156 462.502 184.695 459.733C186.349 458.438 188.028 458.252 189.907 459.008C192.572 460.08 195.235 461.155 197.915 462.186C200.989 463.368 203.787 463.045 206.442 460.871C209.316 458.518 212.368 456.387 215.571 453.988C216.791 455.445 217.856 456.74 218.946 458.016C221.11 460.55 222.082 460.887 224.716 458.969C234.652 451.735 244.518 444.402 254.35 437.024C265.202 428.88 275.987 420.644 286.801 412.449C286.869 412.397 286.938 412.348 287.008 412.3C291.721 409.081 291.643 409.17 295.857 412.933C297.928 414.782 300.301 416.303 302.629 417.829C304.131 418.814 305.481 418.428 306.997 417.293C319.548 407.897 332.202 398.642 344.769 389.267C347.238 387.425 349.474 387.548 352.016 389.017C354.423 390.407 356.9 391.76 359.496 392.71C363.498 394.175 367.54 393.458 370.826 390.95C374.43 388.199 377.774 385.008 380.81 381.623C382.555 379.678 383.797 379.445 385.543 381.12C391.915 387.229 398.35 393.273 404.606 399.502C411.046 405.916 417.244 412.579 423.661 419.018C429.853 425.232 437.796 426.994 446.12 427.679C448.727 427.893 451.321 428.261 453.924 428.534C461.294 429.31 467.195 432.883 471.908 438.489C473.318 440.165 474.843 440.665 476.802 440.3C479.374 439.82 481.918 439.007 484.506 438.834C486.774 438.683 489.346 438.638 491.336 439.549C500.525 443.758 509.164 448.94 516.38 456.209C517.579 457.417 518.462 457.151 519.359 456.268C521.674 453.992 523.963 454.088 526.635 455.716C531.622 458.754 536.832 461.424 541.766 464.544C549.856 469.661 558.039 469.733 566.294 465.326C575.548 460.385 584.812 455.414 592.923 448.61C594.862 446.983 596.675 445.136 598.25 443.149C599.596 441.451 601.145 440.932 602.888 441.801C606.736 443.72 610.469 445.874 614.402 448.039Z" fill="url(#paint2_linear_1252_257)"/>
<path d="M1226 645.287C1224.52 645.953 1223.05 646.087 1221.57 646.087C799.772 646.089 440.81 646.104 18.4242 646C17.8353 638.674 18.4244 634.324 18.4244 626.5C21.7647 625.905 35.1104 626.5 38.8797 626.5C60.175 618.133 87.0598 627.81 35.2906 626.435C42.5747 626.435 22.2938 617.27 29.5987 617.27C30.0437 611.58 30.4445 606.455 31.5343 601.045C32.2233 600.761 32.7543 600.686 32.7543 600.686C41.148 603.477 7.23658 598.069 15.8636 596.444C17.3196 596.366 17.8719 596.394 18.4242 596.422C22.5913 595.588 26.7584 594.754 31.5346 593.797C32.6568 587.324 33.4101 580.253 35.2904 573.497C36.0241 570.86 38.8927 568.126 41.4854 566.833C48.3298 563.418 58.7616 565.483 62.8659 571.521C64.8796 574.483 64.5837 579.029 65.285 582.866C65.9622 586.573 66.5776 590.291 67.1829 593.788C70.9826 594.657 74.7345 595.515 79.4501 596.435C80.9804 596.432 81.547 596.365 82.6082 596.43C89.4103 598.048 95.7178 599.536 102.584 601.067C103.887 601.089 104.631 601.067 105.375 601.045C108.497 600.543 110.189 601.417 109.82 605.031C109.543 607.739 109.765 610.499 109.765 613.632C111.583 613.757 113.143 613.864 115.153 614.002C115.153 599.737 115.153 585.839 115.153 572.715C117.746 570.301 119.729 568.455 122.728 565.663C124.079 565.663 126.973 565.663 130.337 565.663C130.337 559.67 130.337 554.031 130.337 548.074C133.684 548.074 136.562 548.074 139.985 548.074C140.279 549.294 140.648 550.823 140.889 551.824C146.525 551.824 152.054 551.824 158.049 551.824C158.201 551.071 158.51 549.54 158.839 547.907C162.027 547.907 164.949 547.907 168.333 547.907C168.333 553.662 168.333 559.302 168.333 565.537C171.812 565.705 174.873 565.853 177.764 565.992C178.651 567.616 179.453 569.086 180.74 571.301C181.229 585.327 181.154 598.609 181.32 611.889C181.346 613.977 182.464 616.052 183.078 618.133C183.186 618.612 183.295 619.091 182.868 620.118C182.655 621.397 182.979 622.127 183.303 622.857C187.304 624.16 187.255 621.723 187.246 618.857C187.187 599.416 187.225 579.975 187.238 560.534C187.246 547.433 187.265 534.331 187.63 520.54C188.08 519.72 188.287 519.51 188.26 519.475C188.073 519.225 187.837 519.011 187.617 518.786C191.727 518.472 195.838 518.159 200.474 517.805C200.474 516.428 200.474 513.539 200.474 509.711C203.278 509.711 205.686 509.711 208.644 510.418C209.195 526.722 209.121 542.321 209.28 557.917C209.304 560.221 210.436 562.513 211.055 564.811C211.165 565.269 211.276 565.727 210.754 566.822C210.442 571.646 210.764 575.834 211.086 580.021C211.19 580.487 211.293 580.952 210.792 582.027C210.483 584.726 210.78 586.816 211.076 588.906C211.172 589.399 211.269 589.892 210.893 590.875C210.627 591.791 210.833 592.218 211.04 592.644C211.157 593.125 211.275 593.605 210.758 594.761C209.903 604.08 209.653 612.724 209.545 621.37C209.539 621.862 210.694 622.369 211.309 622.869C212.556 622.977 213.803 623.086 216.254 623.299C216.254 601.018 216.254 579.025 216.254 556.837C230.538 556.837 243.624 556.837 257.149 556.837C260.969 566.609 259.211 576.956 259.208 587.159C259.205 598.925 259.208 610.691 259.208 623.791C261.069 622.648 263.138 622.09 263.353 621.121C264.247 617.099 264.872 612.966 265.062 608.849C265.497 599.46 268.045 595.175 273.771 595.018C279.819 594.853 282.303 598.39 283.071 608.643C289.39 608.643 295.739 608.643 302.744 608.643C302.345 599.283 304.05 590.774 311.972 585.634C315.861 583.111 320.913 581.022 325.416 581.067C337.9 581.191 345.068 590.776 346.602 608.334C352.703 608.334 358.889 608.334 365.562 608.334C365.881 606.8 366.162 604.759 366.74 602.806C367.991 598.583 370.723 594.848 375.216 596.231C378.375 597.203 382.108 600.535 383.049 603.594C384.909 609.647 385.014 616.241 385.88 622.887C387.39 622.887 388.809 622.887 390.943 622.887C390.943 620.965 390.943 618.909 390.943 616.854C390.942 577.248 390.941 537.642 390.938 498.036C390.937 487.151 395.359 483.865 405.814 487.02C408.711 487.895 411.59 488.833 415.195 489.968C415.195 533.665 415.195 578.014 415.195 622.275C419.892 622.968 419.694 622.964 419.764 619.376C420.083 602.961 420.689 586.549 420.865 570.133C420.993 558.116 420.519 546.093 420.485 534.073C420.45 521.624 420.644 509.174 420.683 496.725C420.691 494.261 420.446 491.797 420.293 488.867C425.026 488.765 428.985 488.959 433.009 484.518C435.441 481.832 444.278 482.437 448.679 484.656C454.753 487.719 454.123 488.968 461.044 488.873C461.044 505.351 461.062 521.828 461.033 538.305C461.024 542.969 460.614 547.655 460.983 552.283C461.073 553.401 463.711 555.358 464.866 555.156C468.382 554.538 472.713 557.881 475.383 551.646C477.102 547.631 487.613 552.372 488.392 557.91C488.759 560.519 489.369 561.254 491.913 562.474C494.214 563.578 496.183 567.804 496.261 570.708C496.681 586.37 496.396 602.049 496.564 617.72C496.584 619.533 497.905 621.332 498.623 623.138C499.164 621.362 500.176 619.587 500.179 617.81C500.264 569.733 500.246 521.655 500.245 473.577C500.245 472.339 500.245 471.101 500.245 469.476C510.625 469.476 520.656 469.476 530.709 469.476C532.053 472.762 529.049 477.903 535.206 479.06C535.903 479.191 535.935 482.867 536.875 485.589C537.978 486.584 538.48 486.888 538.981 487.192C539.087 487.671 539.193 488.15 538.665 489.296C537.742 490.73 537.204 491.495 537.2 492.262C537.135 505.683 537.08 519.105 537.205 532.525C537.218 533.973 538.364 535.411 538.984 536.854C539.088 537.308 539.193 537.763 538.664 538.869C537.742 540.295 537.201 541.069 537.2 541.845C537.14 567.264 537.108 592.683 537.195 618.102C537.199 619.301 538.336 620.497 538.945 621.694C540.07 621.986 541.195 622.279 543.038 621.935C544.079 620.567 544.683 619.836 544.685 619.102C544.742 598.713 544.769 578.322 544.665 557.933C544.659 556.754 543.503 555.581 542.882 554.406C542.374 550.438 541.866 546.47 541.282 541.912C550.86 541.912 559.421 541.912 567.858 541.912C568.61 536.604 569.29 531.793 569.991 526.839C573.107 528.643 575.47 530.011 578.423 531.721C578.704 534.493 579.078 538.187 579.975 542.48C580.897 542.902 581.296 542.724 581.696 542.547C582.218 542.422 582.741 542.297 583.873 542.751C586.259 544.423 588.036 545.515 589.813 546.607C589.92 569.081 590.028 591.555 589.536 614.853C589.221 617.337 589.504 618.997 589.788 620.658C591.241 621.688 592.694 622.718 595.255 624.534C595.255 589.597 595.255 556.686 595.715 522.977C596.35 521.693 596.525 521.207 596.7 520.72C596.848 519.47 597.216 518.201 597.111 516.973C596.302 507.515 600.265 498.957 602.083 489.997C602.879 486.072 603.356 482.069 604.367 478.203C605.471 473.985 607.027 469.885 608.53 465.292C610.661 465.292 612.742 465.294 614.823 465.292C620.994 465.286 625.477 469.234 626.465 475.337C627.886 484.113 629.476 492.862 630.892 501.638C631.857 507.619 632.649 513.628 633.822 520.608C634.603 521.995 635.08 522.398 635.557 522.801C635.672 530.869 635.788 538.938 635.3 547.728C634.37 549.393 633.76 550.337 633.757 551.282C633.703 573.365 633.681 595.449 633.794 617.532C633.801 618.923 634.956 620.308 635.576 621.696C636.865 622.276 638.153 622.856 639.854 623.623C639.854 590.556 639.854 558.561 639.854 526.089C643.617 526.089 645.983 526.089 648.813 526.089C648.813 530.532 648.813 534.897 648.813 539.696C651.858 539.696 654.469 539.696 657.766 539.696C657.766 535.265 657.766 530.731 657.766 525.924C660.65 525.924 662.878 525.924 666.334 525.924C666.989 558.16 667.641 590.251 668.305 622.916C668.265 622.912 669.648 623.054 672.029 622.952C672.86 618.495 672.693 614.283 672.527 610.071C672.419 609.604 672.311 609.137 672.837 608.009C673.701 595.304 673.954 583.261 674.09 571.218C674.097 570.62 673.082 570.01 672.543 569.405C672.442 568.939 672.341 568.472 672.864 567.347C673.172 561.644 672.855 556.6 672.539 551.556C672.539 551.556 672.31 551.144 672.72 550.788C672.931 550 672.734 549.568 672.536 549.135C672.426 548.647 672.317 548.158 672.785 547.081C673.094 545.243 672.825 543.994 672.556 542.744C672.44 537.758 672.325 532.773 672.841 526.904C673.777 523.776 674.334 521.532 674.345 519.285C674.42 504.332 674.378 489.378 674.374 474.425C677.931 474.725 678.263 472.653 678.239 469.741C678.124 455.566 678.187 441.39 678.187 427.214C678.814 427.363 679.441 427.512 680.068 427.661C681.02 424.994 682.55 422.379 682.798 419.648C683.244 414.718 682.924 409.719 682.924 405C693.778 405 703.517 405 714.15 405C714.15 411.417 714.15 418.242 714.15 425.066C715.021 424.901 715.891 424.735 716.762 424.569C717.792 426.97 719.661 429.354 719.711 431.776C719.998 445.519 719.851 459.27 719.851 473.392C721.6 473.867 723.273 474.321 725.504 474.927C725.504 524.29 725.504 573.644 725.504 622.999C726.05 623.012 726.595 623.025 727.14 623.039C727.14 599.102 727.14 575.164 727.14 553.543C736.066 548.059 743.194 543.68 751.247 538.929C752.507 537.392 753.135 536.227 753.137 535.06C753.194 506.222 753.215 477.383 753.108 448.545C753.101 446.886 751.955 445.231 751.339 443.574C751.243 443.101 751.147 442.629 751.611 441.615C752.941 439.829 753.71 438.585 754.48 437.341C757.457 433.011 760.307 431.105 764.948 435.993C766.255 437.37 770.331 436.02 773.132 436.101C776.38 436.195 779.625 436.467 782.869 436.698C786.11 436.929 789.348 437.203 792.957 437.488C792.957 450.443 792.957 462.911 792.957 475.379C792.957 487.877 792.956 500.376 792.956 512.874C792.956 525.16 792.956 537.446 792.956 549.732C792.956 562.231 792.946 574.729 792.959 587.227C792.971 599.212 792.897 611.205 793.018 623.184C794.137 623.164 795.257 623.143 796.376 623.123C796.376 620.96 796.376 618.796 796.376 616.633C796.377 569.606 796.375 522.579 796.38 475.552C796.382 465.668 799.775 463.664 808.337 468.222C809.354 468.763 811.089 467.816 812.49 467.818C813.655 467.82 814.819 468.204 816.476 469.03C817.336 469.926 817.703 470.211 818.071 470.496C818.17 506.68 818.268 542.865 818.366 579.049C818.372 581.327 818.367 583.606 818.367 586.163C821.665 586.163 824.351 586.163 827.821 586.163C827.821 573.836 827.457 561.619 828.026 549.446C828.216 545.391 824.567 540.117 831.732 536.777C833.98 535.729 833.646 527.8 833.414 523.073C833.011 514.87 838.932 509.98 842.608 503.94C842.807 503.613 846.889 504.732 848.14 506.109C856.096 514.859 856.403 525.866 856.527 536.863C857.086 536.705 857.646 536.547 858.206 536.39C859.215 538.789 861.049 541.173 861.096 543.592C861.374 557.706 861.232 571.829 861.232 585.848C869.707 585.848 877.555 585.848 885.645 585.848C889.995 587.916 882.272 597.696 892.717 597.14C892.717 566.333 892.717 535.715 892.717 504.68C897.515 504.411 902.446 501.45 904.814 509.142C906.11 506.968 907.021 505.442 908.406 503.12C909.472 505.441 910.163 506.947 911.352 509.537C914.172 502.399 917.986 504.036 922.966 505.861C926.846 507.283 931.664 506.146 937.676 506.146C937.676 526.692 937.691 546.645 937.671 566.599C937.654 584.026 937.673 601.454 937.494 618.879C937.457 622.45 938.291 624.078 942.555 622.66C942.555 606.949 942.54 591.117 942.564 575.286C942.571 570.594 947.073 565.559 951.738 564.89C952.565 564.771 953.935 564.868 954.13 564.442C956.748 558.721 958.862 562.808 962.183 565.837C962.395 561.656 962.556 558.491 962.74 554.872C964.469 554.872 966.192 554.872 968.219 554.872C968.219 557.962 968.219 560.884 968.219 564.637C972.088 565.366 975.861 565.951 979.554 566.863C980.434 567.08 981.046 568.384 982.084 570.106C983.536 571.406 984.686 571.788 985.835 572.17C986.706 589.119 985.554 606.198 986.431 623.146C987.588 623.1 988.745 623.054 989.901 623.007C989.901 615.705 989.712 608.394 990.019 601.104C990.109 598.963 991.607 596.882 993.022 594.168C993.327 592.736 993.069 591.909 992.811 591.082C992.706 580.129 992.602 569.176 993.065 557.461C995.246 555.206 996.858 553.713 998.933 552.12C1001.24 551.106 1003.09 550.192 1005.4 549.267C1007.63 548.014 1009.41 546.772 1011.2 545.53C1011.63 549.288 1012.38 553.043 1012.42 556.806C1012.58 569.67 1012.48 582.537 1012.48 596.668C1021.24 596.18 1029.72 595.735 1038.2 595.224C1045.83 594.764 1053.46 594.231 1061.25 593.719C1061.69 590.724 1062.1 586.769 1062.98 582.925C1063.24 581.768 1064.85 580.918 1065.84 579.928C1066.71 581.061 1068.24 582.135 1068.35 583.338C1069.03 590.829 1069.39 598.348 1069.87 606.068C1075.56 606.068 1081.19 606.068 1087.41 605.681C1088.01 605.295 1088.51 605.257 1088.51 605.257C1090.43 605.557 1092.62 606.607 1094.22 606.029C1101.94 603.248 1109.32 604.27 1116.54 606.938C1118.47 612.277 1114.88 618.551 1118.86 623.22C1119.48 623.146 1120.1 623.072 1120.72 622.997C1120.72 618.072 1120.72 613.146 1120.72 607.696C1124.09 607.696 1126.77 607.696 1130.5 607.753C1132.18 607.726 1132.82 607.642 1133.46 607.557C1137.25 607.557 1141.03 607.557 1145.13 607.557C1145.42 610.194 1145.67 612.436 1145.96 615.143C1168 615.143 1190.07 615.143 1212.6 615.143C1212.81 617.809 1212.99 620.052 1213.24 623.191C1217.03 623.191 1220.93 623.191 1225.42 623.097C1226 630.233 1226 637.462 1226 645.287ZM55.416 586.429C47.2407 582.875 39.4041 585.829 38.8798 593.418C38.205 603.183 38.7156 613.029 38.7156 622.825C46.1116 622.825 52.9306 622.825 60.1543 622.825C60.1543 613.392 60.4633 604.354 59.9727 595.36C59.8185 592.534 57.5165 589.824 55.416 586.429Z" fill="url(#paint3_linear_1252_257)"/>
<path d="M102.641 568.264C101.599 564.548 100.558 560.831 99.4289 556.8C97.3582 558.295 95.9632 559.301 93.5586 561.036C93.5586 557.166 93.5586 554.342 93.5586 551.394C92.8494 551.005 91.7462 550.399 90.2469 549.522C91.233 547.338 92.6151 545.424 94.2576 543.15C94.0101 542.856 93.2733 541.98 92.6285 541.215C96.6465 538.536 101.145 533.097 104.596 533.696C114.766 535.461 115.644 544.772 116.331 553.836C114.94 553.969 113.45 554.112 111.801 554.27C112.583 555.621 113.335 556.923 113.303 556.869C109.854 560.947 107.036 564.278 103.693 567.939C103.168 568.269 102.641 568.264 102.641 568.264Z" fill="url(#paint4_linear_1252_257)"/>
<path d="M87.2649 549.161C86.9028 550.343 85.9944 551.468 84.8572 552.876C86.4352 553.53 87.911 554.142 88.4823 554.378C88.4823 557.359 88.4823 559.952 88.4823 562.251C86.5561 563.738 84.2686 565.504 81.3295 567.619C80.3059 568.178 79.9106 568.325 79.4919 568.41C75.5535 564.582 71.6151 560.754 66.9692 556.239C69.1622 554.581 70.5991 553.967 71.3067 552.879C74.5892 547.832 78.0745 544.171 84.2408 549.161C84.7308 549.557 85.8773 549.142 87.2649 549.161Z" fill="url(#paint5_linear_1252_257)"/>
<path d="M10.3998 554.957C8.38946 550.607 11.6571 548.3 13.7402 546.692C17.0225 544.158 21.2127 544.773 24.3039 547.618C29.6356 552.526 28.7743 558.199 22.576 563.186C20.8733 564.555 19.7303 566.621 17.207 569.768C18.3479 562.151 8.52588 562.256 10.3998 554.957Z" fill="url(#paint6_linear_1252_257)"/>
<path d="M751.201 444.128C751.955 445.23 753.102 446.885 753.108 448.545C753.215 477.383 753.194 506.222 753.137 535.06C753.135 536.227 752.507 537.392 751.664 538.788C751.126 507.572 751.094 476.127 751.201 444.128Z" fill="url(#paint7_linear_1252_257)"/>
<path d="M539.093 621.255C538.335 620.497 537.199 619.301 537.195 618.102C537.107 592.683 537.14 567.264 537.199 541.845C537.201 541.069 537.741 540.295 538.5 539.188C539.059 566.176 539.15 593.496 539.093 621.255Z" fill="url(#paint8_linear_1252_257)"/>
<path d="M635.712 621.116C634.956 620.308 633.802 618.923 633.795 617.532C633.682 595.449 633.704 573.365 633.758 551.282C633.76 550.337 634.37 549.393 635.133 548.253C635.661 572.217 635.754 596.377 635.712 621.116Z" fill="url(#paint9_linear_1252_257)"/>
<path d="M542.748 554.985C543.503 555.581 544.659 556.754 544.665 557.933C544.769 578.322 544.742 598.713 544.685 619.102C544.683 619.836 544.079 620.567 543.319 621.495C542.793 599.649 542.703 577.606 542.748 554.985Z" fill="url(#paint10_linear_1252_257)"/>
<path d="M673.841 474.398C674.378 489.378 674.419 504.332 674.345 519.285C674.334 521.532 673.777 523.776 673.011 526.357C672.46 509.705 672.361 492.716 672.323 475.728C672.322 475.277 672.966 474.823 673.841 474.398Z" fill="url(#paint11_linear_1252_257)"/>
<path d="M211.21 564.298C210.435 562.513 209.304 560.221 209.28 557.917C209.121 542.321 209.195 526.722 209.2 510.533C209.926 511.737 211.253 513.527 211.271 515.331C211.434 531.481 211.366 547.633 211.21 564.298Z" fill="url(#paint12_linear_1252_257)"/>
<path d="M539.118 536.335C538.364 535.411 537.218 533.973 537.205 532.525C537.08 519.105 537.135 505.683 537.2 492.262C537.204 491.495 537.743 490.73 538.502 489.636C539.064 504.811 539.158 520.313 539.118 536.335Z" fill="url(#paint13_linear_1252_257)"/>
<path d="M183.22 617.611C182.464 616.052 181.346 613.977 181.32 611.889C181.153 598.609 181.228 585.327 181.228 571.447C181.957 572.436 183.292 574.016 183.31 575.611C183.462 589.435 183.377 603.262 183.22 617.611Z" fill="url(#paint14_linear_1252_257)"/>
<path d="M102.514 568.854C102.641 568.264 103.168 568.269 103.428 568.31C104.12 578.886 104.552 589.42 105.18 600.5C104.632 601.067 103.888 601.089 102.585 601.067C102.146 590.496 102.266 579.97 102.514 568.854Z" fill="url(#paint15_linear_1252_257)"/>
<path d="M79.4546 569C79.9104 568.325 80.3058 568.178 80.9954 567.952C81.57 576.993 81.827 586.051 82.0986 595.704C81.5466 596.365 80.9799 596.431 79.9926 596.412C79.5204 587.414 79.4689 578.503 79.4546 569Z" fill="url(#paint16_linear_1252_257)"/>
<path d="M672.402 569.893C673.081 570.01 674.096 570.619 674.089 571.218C673.953 583.261 673.7 595.304 673.002 607.679C672.443 595.467 672.352 582.924 672.402 569.893Z" fill="url(#paint17_linear_1252_257)"/>
<path d="M18.3703 595.823C17.8717 596.394 17.3194 596.366 16.3464 596.285C15.9257 590.006 15.9257 583.781 15.9257 577.556C16.7226 577.553 17.5196 577.551 18.3166 577.549C18.3166 583.441 18.3166 589.333 18.3703 595.823Z" fill="url(#paint18_linear_1252_257)"/>
<path d="M211.324 622.358C210.694 622.369 209.539 621.862 209.545 621.37C209.653 612.724 209.903 604.08 210.595 595.106C211.158 603.8 211.249 612.824 211.324 622.358Z" fill="url(#paint19_linear_1252_257)"/>
<path d="M672.398 552.02C672.855 556.6 673.171 561.644 673.033 567.02C672.472 562.396 672.364 557.44 672.398 552.02Z" fill="url(#paint20_linear_1252_257)"/>
<path d="M672.395 610.584C672.694 614.283 672.86 618.495 672.566 622.885C672.157 619.075 672.21 615.086 672.395 610.584Z" fill="url(#paint21_linear_1252_257)"/>
<path d="M211.215 579.432C210.764 575.834 210.442 571.646 210.584 567.142C211.146 570.831 211.245 574.837 211.215 579.432Z" fill="url(#paint22_linear_1252_257)"/>
<path d="M754.035 437.216C753.71 438.585 752.941 439.829 751.783 441.285C752.126 440.029 752.858 438.56 754.035 437.216Z" fill="url(#paint23_linear_1252_257)"/>
<path d="M589.947 546.014C588.036 545.515 586.259 544.423 584.241 542.941C586.513 542.478 589.97 540.406 589.947 546.014Z" fill="url(#paint24_linear_1252_257)"/>
<path d="M211.202 588.346C210.78 586.816 210.484 584.726 210.63 582.356C211.158 583.979 211.243 585.882 211.202 588.346Z" fill="url(#paint25_linear_1252_257)"/>
<path d="M589.932 620.118C589.505 618.997 589.221 617.337 589.364 615.411C589.884 616.623 589.979 618.1 589.932 620.118Z" fill="url(#paint26_linear_1252_257)"/>
<path d="M672.413 543.262C672.825 543.993 673.094 545.243 672.948 546.732C672.445 545.908 672.357 544.844 672.413 543.262Z" fill="url(#paint27_linear_1252_257)"/>
<path d="M183.331 622.415C182.979 622.127 182.655 621.397 182.702 620.457C183.167 620.823 183.263 621.398 183.331 622.415Z" fill="url(#paint28_linear_1252_257)"/>
<path d="M818.116 470.051C817.704 470.211 817.336 469.926 816.823 469.316C817.172 469.196 817.666 469.401 818.116 470.051Z" fill="url(#paint29_linear_1252_257)"/>
<path d="M538.983 486.647C538.479 486.888 537.977 486.584 537.262 485.892C537.694 485.703 538.34 485.902 538.983 486.647Z" fill="url(#paint30_linear_1252_257)"/>
<path d="M187.476 519.098C187.838 519.011 188.073 519.225 188.261 519.475C188.287 519.51 188.081 519.72 187.761 519.957C187.471 519.847 187.402 519.629 187.476 519.098Z" fill="url(#paint31_linear_1252_257)"/>
<path d="M596.284 520.859C596.525 521.207 596.35 521.693 595.848 522.395C595.637 522.074 595.753 521.536 596.284 520.859Z" fill="url(#paint32_linear_1252_257)"/>
<path d="M635.628 522.256C635.08 522.398 634.603 521.995 633.984 521.138C634.461 521.026 635.08 521.369 635.628 522.256Z" fill="url(#paint33_linear_1252_257)"/>
<path d="M581.327 542.411C581.296 542.724 580.897 542.902 580.36 542.816C580.468 542.46 580.713 542.367 581.327 542.411Z" fill="url(#paint34_linear_1252_257)"/>
<path d="M672.417 549.536C672.734 549.568 672.931 550 672.837 550.583C672.463 550.469 672.381 550.203 672.417 549.536Z" fill="url(#paint35_linear_1252_257)"/>
<path d="M211.14 592.247C210.833 592.218 210.626 591.791 210.71 591.216C211.081 591.329 211.161 591.59 211.14 592.247Z" fill="url(#paint36_linear_1252_257)"/>
<path d="M634 119C640.651 117.86 645.86 112.651 647 106C648.042 112.629 653.204 117.851 659.821 118.97L660 119L659.458 119.107C653.018 120.377 648.048 125.52 647 132C645.853 125.499 640.836 120.367 634.363 119.073L634 119Z" fill="#FFF6E0"/>
<path d="M348 210C354.651 208.86 359.86 203.651 361 197C362.042 203.629 367.204 208.851 373.821 209.97L374 210L373.458 210.107C367.018 211.377 362.048 216.52 361 223C359.853 216.499 354.836 211.367 348.363 210.073L348 210Z" fill="#FFF6E0"/>
<path d="M59 171C65.6506 169.86 70.8599 164.651 72 158C73.0418 164.629 78.2036 169.851 84.8206 170.97L85 171L84.4582 171.107C78.018 172.377 73.0482 177.52 72 184C70.8528 177.499 65.8362 172.367 59.3631 171.073L59 171Z" fill="#FFF6E0"/>
<path d="M311 291C314.07 290.474 316.474 288.07 317 285C317.481 288.06 319.863 290.47 322.917 290.986L323 291L322.75 291.049C319.778 291.635 317.484 294.009 317 297C316.471 294 314.155 291.631 311.168 291.034L311 291Z" fill="#FFF6E0"/>
<path d="M773 11C776.07 10.4738 778.474 8.06952 779 5C779.481 8.05972 781.863 10.4698 784.917 10.986L785 11L784.75 11.0493C781.778 11.6354 779.484 14.0093 779 17C778.471 13.9996 776.155 11.631 773.168 11.0335L773 11Z" fill="#FFF6E0"/>
<rect y="50" width="68" height="641" fill="#F2EBD1"/>
<defs>
<linearGradient id="paint0_linear_1252_257" x1="602.5" y1="-251" x2="602.5" y2="709" gradientUnits="userSpaceOnUse">
<stop stop-color="#424165"/>
<stop offset="1" stop-color="#D18CBB"/>
</linearGradient>
<linearGradient id="paint1_linear_1252_257" x1="581.31" y1="246" x2="581.31" y2="530.664" gradientUnits="userSpaceOnUse">
<stop stop-color="#FFE58A"/>
<stop offset="1" stop-color="#DF4C78"/>
</linearGradient>
<linearGradient id="paint2_linear_1252_257" x1="549" y1="380" x2="549" y2="643" gradientUnits="userSpaceOnUse">
<stop stop-color="#140626"/>
<stop offset="1" stop-color="#28192F"/>
</linearGradient>
<linearGradient id="paint3_linear_1252_257" x1="620.223" y1="405" x2="645.936" y2="901.49" gradientUnits="userSpaceOnUse">
<stop stop-color="#05034A"/>
<stop offset="1" stop-color="#B682DA"/>
</linearGradient>
<linearGradient id="paint4_linear_1252_257" x1="103.289" y1="533.65" x2="125.343" y2="597.507" gradientUnits="userSpaceOnUse">
<stop stop-color="#05034A"/>
<stop offset="1" stop-color="#B682DA"/>
</linearGradient>
<linearGradient id="paint5_linear_1252_257" x1="77.7258" y1="546.785" x2="88.6587" y2="588.577" gradientUnits="userSpaceOnUse">
<stop stop-color="#05034A"/>
<stop offset="1" stop-color="#B682DA"/>
</linearGradient>
<linearGradient id="paint6_linear_1252_257" x1="18.7943" y1="545.097" x2="34.8833" y2="590.317" gradientUnits="userSpaceOnUse">
<stop stop-color="#05034A"/>
<stop offset="1" stop-color="#B682DA"/>
</linearGradient>
<linearGradient id="paint7_linear_1252_257" x1="752.168" y1="444.128" x2="768.182" y2="445.449" gradientUnits="userSpaceOnUse">
<stop stop-color="#05034A"/>
<stop offset="1" stop-color="#B682DA"/>
</linearGradient>
<linearGradient id="paint8_linear_1252_257" x1="538.124" y1="539.188" x2="553.596" y2="540.613" gradientUnits="userSpaceOnUse">
<stop stop-color="#05034A"/>
<stop offset="1" stop-color="#B682DA"/>
</linearGradient>
<linearGradient id="paint9_linear_1252_257" x1="634.717" y1="548.253" x2="650.466" y2="549.92" gradientUnits="userSpaceOnUse">
<stop stop-color="#05034A"/>
<stop offset="1" stop-color="#B682DA"/>
</linearGradient>
<linearGradient id="paint10_linear_1252_257" x1="543.737" y1="554.985" x2="559.378" y2="556.79" gradientUnits="userSpaceOnUse">
<stop stop-color="#05034A"/>
<stop offset="1" stop-color="#B682DA"/>
</linearGradient>
<linearGradient id="paint11_linear_1252_257" x1="673.348" y1="474.398" x2="689.251" y2="476.809" gradientUnits="userSpaceOnUse">
<stop stop-color="#05034A"/>
<stop offset="1" stop-color="#B682DA"/>
</linearGradient>
<linearGradient id="paint12_linear_1252_257" x1="210.272" y1="510.533" x2="227.205" y2="513.178" gradientUnits="userSpaceOnUse">
<stop stop-color="#05034A"/>
<stop offset="1" stop-color="#B682DA"/>
</linearGradient>
<linearGradient id="paint13_linear_1252_257" x1="538.128" y1="489.636" x2="553.546" y2="492.168" gradientUnits="userSpaceOnUse">
<stop stop-color="#05034A"/>
<stop offset="1" stop-color="#B682DA"/>
</linearGradient>
<linearGradient id="paint14_linear_1252_257" x1="182.301" y1="571.447" x2="199.032" y2="574.48" gradientUnits="userSpaceOnUse">
<stop stop-color="#05034A"/>
<stop offset="1" stop-color="#B682DA"/>
</linearGradient>
<linearGradient id="paint15_linear_1252_257" x1="103.736" y1="568.294" x2="124.292" y2="575.253" gradientUnits="userSpaceOnUse">
<stop stop-color="#05034A"/>
<stop offset="1" stop-color="#B682DA"/>
</linearGradient>
<linearGradient id="paint16_linear_1252_257" x1="80.7766" y1="567.952" x2="99.3836" y2="574.593" gradientUnits="userSpaceOnUse">
<stop stop-color="#05034A"/>
<stop offset="1" stop-color="#B682DA"/>
</linearGradient>
<linearGradient id="paint17_linear_1252_257" x1="673.24" y1="569.893" x2="686.334" y2="572.156" gradientUnits="userSpaceOnUse">
<stop stop-color="#05034A"/>
<stop offset="1" stop-color="#B682DA"/>
</linearGradient>
<linearGradient id="paint18_linear_1252_257" x1="17.148" y1="577.549" x2="32.6624" y2="585.309" gradientUnits="userSpaceOnUse">
<stop stop-color="#05034A"/>
<stop offset="1" stop-color="#B682DA"/>
</linearGradient>
<linearGradient id="paint19_linear_1252_257" x1="210.435" y1="595.106" x2="223.719" y2="598.439" gradientUnits="userSpaceOnUse">
<stop stop-color="#05034A"/>
<stop offset="1" stop-color="#B682DA"/>
</linearGradient>
<linearGradient id="paint20_linear_1252_257" x1="672.729" y1="552.02" x2="677.92" y2="552.916" gradientUnits="userSpaceOnUse">
<stop stop-color="#05034A"/>
<stop offset="1" stop-color="#B682DA"/>
</linearGradient>
<linearGradient id="paint21_linear_1252_257" x1="672.488" y1="610.584" x2="676.097" y2="611.107" gradientUnits="userSpaceOnUse">
<stop stop-color="#05034A"/>
<stop offset="1" stop-color="#B682DA"/>
</linearGradient>
<linearGradient id="paint22_linear_1252_257" x1="210.885" y1="567.142" x2="215.975" y2="568.208" gradientUnits="userSpaceOnUse">
<stop stop-color="#05034A"/>
<stop offset="1" stop-color="#B682DA"/>
</linearGradient>
<linearGradient id="paint23_linear_1252_257" x1="752.909" y1="437.216" x2="756.145" y2="444.097" gradientUnits="userSpaceOnUse">
<stop stop-color="#05034A"/>
<stop offset="1" stop-color="#B682DA"/>
</linearGradient>
<linearGradient id="paint24_linear_1252_257" x1="587.094" y1="542.185" x2="588.434" y2="549.857" gradientUnits="userSpaceOnUse">
<stop stop-color="#05034A"/>
<stop offset="1" stop-color="#B682DA"/>
</linearGradient>
<linearGradient id="paint25_linear_1252_257" x1="210.902" y1="582.356" x2="215.142" y2="584.038" gradientUnits="userSpaceOnUse">
<stop stop-color="#05034A"/>
<stop offset="1" stop-color="#B682DA"/>
</linearGradient>
<linearGradient id="paint26_linear_1252_257" x1="589.635" y1="615.411" x2="593.535" y2="617.373" gradientUnits="userSpaceOnUse">
<stop stop-color="#05034A"/>
<stop offset="1" stop-color="#B682DA"/>
</linearGradient>
<linearGradient id="paint27_linear_1252_257" x1="672.693" y1="543.262" x2="675.973" y2="545.404" gradientUnits="userSpaceOnUse">
<stop stop-color="#05034A"/>
<stop offset="1" stop-color="#B682DA"/>
</linearGradient>
<linearGradient id="paint28_linear_1252_257" x1="183.014" y1="620.457" x2="184.989" y2="622.912" gradientUnits="userSpaceOnUse">
<stop stop-color="#05034A"/>
<stop offset="1" stop-color="#B682DA"/>
</linearGradient>
<linearGradient id="paint29_linear_1252_257" x1="817.469" y1="469.284" x2="817.736" y2="470.916" gradientUnits="userSpaceOnUse">
<stop stop-color="#05034A"/>
<stop offset="1" stop-color="#B682DA"/>
</linearGradient>
<linearGradient id="paint30_linear_1252_257" x1="538.122" y1="485.825" x2="538.372" y2="487.656" gradientUnits="userSpaceOnUse">
<stop stop-color="#05034A"/>
<stop offset="1" stop-color="#B682DA"/>
</linearGradient>
<linearGradient id="paint31_linear_1252_257" x1="187.856" y1="519.078" x2="188.328" y2="520.76" gradientUnits="userSpaceOnUse">
<stop stop-color="#05034A"/>
<stop offset="1" stop-color="#B682DA"/>
</linearGradient>
<linearGradient id="paint32_linear_1252_257" x1="596.07" y1="520.859" x2="597.493" y2="523.146" gradientUnits="userSpaceOnUse">
<stop stop-color="#05034A"/>
<stop offset="1" stop-color="#B682DA"/>
</linearGradient>
<linearGradient id="paint33_linear_1252_257" x1="634.806" y1="521.118" x2="635.236" y2="523.447" gradientUnits="userSpaceOnUse">
<stop stop-color="#05034A"/>
<stop offset="1" stop-color="#B682DA"/>
</linearGradient>
<linearGradient id="paint34_linear_1252_257" x1="580.843" y1="542.401" x2="580.948" y2="543.29" gradientUnits="userSpaceOnUse">
<stop stop-color="#05034A"/>
<stop offset="1" stop-color="#B682DA"/>
</linearGradient>
<linearGradient id="paint35_linear_1252_257" x1="672.635" y1="549.536" x2="673.593" y2="551.12" gradientUnits="userSpaceOnUse">
<stop stop-color="#05034A"/>
<stop offset="1" stop-color="#B682DA"/>
</linearGradient>
<linearGradient id="paint36_linear_1252_257" x1="210.918" y1="591.216" x2="211.852" y2="592.79" gradientUnits="userSpaceOnUse">
<stop stop-color="#05034A"/>
<stop offset="1" stop-color="#B682DA"/>
</linearGradient>
</defs>
</svg>
